<svg width="61" height="60" viewBox="0 0 61 60" fill="none" xmlns="http://www.w3.org/2000/svg">
<g clip-path="url(#clip0_11_178)">
<path d="M42.99 21.3V38.8H17.7V21.3L30.35 31.3L42.99 21.3Z" fill="#AFB9D2"/>
<path d="M42.99 21.3L30.35 31.3L17.7 21.3H42.99Z" fill="#D7DEED"/>
<path d="M30.35 1.30005C46.43 1.30005 59.48 14.2001 59.48 30.1C59.48 46 46.43 58.8 30.35 58.8C14.27 58.8 1.32001 45.9 1.32001 30C1.32001 14.1 14.26 1.30005 30.35 1.30005ZM53.11 30C53.11 17.6 42.89 7.50005 30.35 7.50005C17.81 7.50005 7.59001 17.6 7.59001 30C7.59001 42.4 17.81 52.5 30.35 52.5C42.89 52.5 53.11 42.4 53.11 30Z" fill="#313A52"/>
<path d="M30.35 60C22.26 60 14.67 56.9 8.9 51.2C3.14 45.5 0 38 0 30C0 22 3.14 14.5 8.9 8.8C14.67 3.1 22.25 0 30.35 0C38.45 0 46.03 3.1 51.8 8.8C57.57 14.5 60.7 22 60.7 30C60.7 38 57.56 45.5 51.8 51.2C46.03 56.9 38.45 60 30.35 60ZM30.35 2.5C14.97 2.5 2.53 14.8 2.53 30C2.53 45.2 14.97 57.5 30.35 57.5C45.73 57.5 58.17 45.2 58.17 30C58.17 14.8 45.72 2.5 30.35 2.5Z" fill="black"/>
<path d="M30.35 53.7999C17.1 53.7999 6.27 43.1 6.27 30C6.27 16.9 17.1 6.19995 30.35 6.19995C43.6 6.19995 54.43 16.9 54.43 30C54.43 43.1 43.61 53.7999 30.35 53.7999ZM30.35 8.79995C18.52 8.79995 8.8 18.3 8.8 30.1C8.8 41.9 18.51 51.2999 30.35 51.2999C42.19 51.2999 51.9 41.7 51.9 30C51.9 18.3 42.19 8.79995 30.35 8.79995Z" fill="black"/>
<path d="M59.48 59.9999H1.32C0.61 59.9999 0 59.3999 0 58.6999C0 57.9999 0.61 57.3999 1.32 57.3999H59.49C60.2 57.3999 60.81 57.9999 60.81 58.6999C60.71 59.3999 60.1 59.9999 59.49 59.9999H59.48Z" fill="black"/>
<path d="M42.99 40H17.7C16.99 40 16.38 39.4 16.38 38.7V21.3C16.38 20.6 16.99 20 17.7 20H42.99C43.7 20 44.3 20.6 44.3 21.3V38.8C44.3 39.4 43.69 40 42.99 40ZM19.02 37.5H41.78V22.5H19.02V37.5Z" fill="black"/>
<path d="M30.35 32.4999C30.05 32.4999 29.74 32.3999 29.54 32.1999L16.89 22.1999C16.38 21.7999 16.28 20.9999 16.69 20.3999C17.09 19.8999 17.9 19.7999 18.51 20.1999L30.34 29.5999L42.18 20.1999C42.69 19.7999 43.5 19.8999 44 20.3999C44.41 20.8999 44.3 21.6999 43.8 22.1999L31.16 32.1999C30.96 32.3999 30.65 32.4999 30.35 32.4999Z" fill="black"/>
</g>
<defs>
<clipPath id="clip0_11_178">
<rect width="60.8" height="60" fill="white"/>
</clipPath>
</defs>
</svg>
