<svg width="500" height="500" viewBox="0 0 500 500" fill="none" xmlns="http://www.w3.org/2000/svg">
<path d="M81.822 446.215C-11.06 392.589 -11.06 305.645 81.822 252.019C174.704 198.394 325.297 198.394 418.179 252.019C511.061 305.644 511.061 392.589 418.179 446.215C325.297 499.841 174.704 499.841 81.822 446.215Z" fill="#F0F0F0"/>
<path d="M207.673 456.335L65.869 374.408C60.337 371.214 60.337 365.987 65.869 362.793L295.473 230.134C297.751 228.819 301.478 228.819 303.756 230.134L449.04 314.079C451.961 315.767 451.96 319.984 449.038 321.671L215.956 456.335C213.678 457.651 209.951 457.651 207.673 456.335Z" fill="#E0E0E0"/>
<path d="M384.289 444.98C413.315 444.98 436.845 431.395 436.845 414.637C436.845 397.879 413.315 384.294 384.289 384.294C355.263 384.294 331.733 397.879 331.733 414.637C331.733 431.395 355.263 444.98 384.289 444.98Z" fill="#E0E0E0"/>
<path d="M80.507 326.806C80.507 326.806 80.208 305.459 71.338 288.032C62.468 270.605 49.059 258.944 35.703 256.54C22.348 254.135 10.242 265.439 23.799 275.377C37.356 285.315 62.082 296.542 70.692 329.524L80.507 326.806Z" fill="#E75F62"/>
<path opacity="0.15" d="M80.507 326.806C80.507 326.806 80.208 305.459 71.338 288.032C62.468 270.605 49.059 258.944 35.703 256.54C22.348 254.135 10.242 265.439 23.799 275.377C37.356 285.315 62.082 296.542 70.692 329.524L80.507 326.806Z" fill="black"/>
<path d="M77.106 320.931C77.155 320.927 77.204 320.919 77.252 320.903C77.635 320.791 77.854 320.389 77.741 320.006C67.018 283.607 41.427 266.307 29.393 262.245C29.017 262.114 28.606 262.321 28.477 262.698C28.35 263.077 28.552 263.486 28.931 263.613C40.718 267.592 65.799 284.586 76.355 320.413C76.454 320.749 76.773 320.958 77.106 320.931Z" fill="white"/>
<path d="M81.862 346.95C76.904 349.802 74.061 351.646 64.967 352.413C59.542 352.87 52.2 352.101 45.869 349.819C44.182 349.211 41.573 347.88 43.039 346.256C43.797 345.417 52.717 344.001 55.907 340.248C52.172 341.246 47.261 342.381 43.397 342.465C39.532 342.549 35.512 341.623 32.546 339.143C29.602 336.681 28.01 333.005 26.519 329.469C26.01 328.262 25.527 326.782 26.309 325.73C26.806 325.062 27.668 324.799 28.47 324.575C31.848 323.634 35.227 322.694 38.605 321.753C40.81 321.283 39.254 319.826 38.419 319.702C36.972 319.487 35.587 319.492 34.745 319.537C30.875 319.744 26.601 320.473 23.442 318.228C21.551 316.884 20.436 314.659 19.962 312.388C19.795 311.588 19.129 301.144 19.589 301.019C22.104 300.334 24.739 299.969 27.322 299.673C29.773 299.392 32.162 299.278 34.603 298.949C37.36 298.577 40.142 298.394 42.923 298.403C43.867 298.406 44.864 298.446 45.663 298.95C46.76 299.642 47.195 301.025 47.335 302.315C47.475 303.604 47.408 304.94 47.856 306.157C49.044 306.054 49.432 304.511 49.401 303.319C49.37 302.127 49.393 300.641 50.469 300.127C51.015 299.866 51.657 299.971 52.249 300.092C56.026 300.866 59.71 302.091 63.197 303.733C64.792 304.484 66.386 305.353 67.534 306.692C69.229 308.668 69.73 311.409 69.745 314.013C69.76 316.616 69.356 319.218 69.526 321.816C71.563 319.997 74.397 314.465 74.619 311.744C78.999 314.56 81.595 320.365 82.411 328.301C82.949 333.537 82.817 340.435 82.089 345.744C82.065 345.93 82.024 346.857 81.862 346.95Z" fill="#E75F62"/>
<path opacity="0.3" d="M81.862 346.95C76.904 349.802 74.061 351.646 64.967 352.413C59.542 352.87 52.2 352.101 45.869 349.819C44.182 349.211 41.573 347.88 43.039 346.256C43.797 345.417 52.717 344.001 55.907 340.248C52.172 341.246 47.261 342.381 43.397 342.465C39.532 342.549 35.512 341.623 32.546 339.143C29.602 336.681 28.01 333.005 26.519 329.469C26.01 328.262 25.527 326.782 26.309 325.73C26.806 325.062 27.668 324.799 28.47 324.575C31.848 323.634 35.227 322.694 38.605 321.753C40.81 321.283 39.254 319.826 38.419 319.702C36.972 319.487 35.587 319.492 34.745 319.537C30.875 319.744 26.601 320.473 23.442 318.228C21.551 316.884 20.436 314.659 19.962 312.388C19.795 311.588 19.129 301.144 19.589 301.019C22.104 300.334 24.739 299.969 27.322 299.673C29.773 299.392 32.162 299.278 34.603 298.949C37.36 298.577 40.142 298.394 42.923 298.403C43.867 298.406 44.864 298.446 45.663 298.95C46.76 299.642 47.195 301.025 47.335 302.315C47.475 303.604 47.408 304.94 47.856 306.157C49.044 306.054 49.432 304.511 49.401 303.319C49.37 302.127 49.393 300.641 50.469 300.127C51.015 299.866 51.657 299.971 52.249 300.092C56.026 300.866 59.71 302.091 63.197 303.733C64.792 304.484 66.386 305.353 67.534 306.692C69.229 308.668 69.73 311.409 69.745 314.013C69.76 316.616 69.356 319.218 69.526 321.816C71.563 319.997 74.397 314.465 74.619 311.744C78.999 314.56 81.595 320.365 82.411 328.301C82.949 333.537 82.817 340.435 82.089 345.744C82.065 345.93 82.024 346.857 81.862 346.95Z" fill="black"/>
<path d="M81.0419 345.963C80.8249 345.963 80.6159 345.845 80.5089 345.64C66.3229 318.399 34.9389 306.919 27.3109 305.336C26.9869 305.269 26.7779 304.95 26.8449 304.626C26.9129 304.302 27.2369 304.101 27.5549 304.16C35.3009 305.767 67.1689 317.425 81.5739 345.085C81.7269 345.379 81.6129 345.741 81.3189 345.895C81.2299 345.941 81.1349 345.963 81.0419 345.963Z" fill="white"/>
<path d="M39.8179 330.266C39.5079 330.266 39.2459 330.028 39.2199 329.713C39.1949 329.383 39.4419 329.094 39.7719 329.067C55.4289 327.838 60.4929 321.708 60.5429 321.645C60.7479 321.385 61.1249 321.344 61.3849 321.548C61.6439 321.754 61.6889 322.129 61.4849 322.389C61.2729 322.658 56.1149 328.987 39.8669 330.264C39.8499 330.266 39.8329 330.266 39.8179 330.266Z" fill="white"/>
<path d="M460.035 254.297C453.095 261.887 440.365 274.377 432.965 286.437C432.945 286.467 432.925 286.497 432.915 286.527C430.025 291.257 427.955 295.917 427.385 300.187L426.865 307.897L423.695 306.067L423.165 305.757L421.855 305.007C419.978 303.92 418.8 301.932 418.741 299.764C418.232 280.963 423.256 264.982 428.116 255.309C434.766 242.099 447.225 228.628 458.056 229.948C468.125 231.177 469.715 243.717 460.035 254.297Z" fill="#E75F62"/>
<path opacity="0.15" d="M460.035 254.297C453.095 261.887 440.365 274.377 432.965 286.437C432.945 286.467 432.925 286.497 432.915 286.527C430.025 291.257 427.955 295.917 427.385 300.187L426.865 307.897L423.695 306.067L423.165 305.757L421.855 305.007C419.978 303.92 418.8 301.932 418.741 299.764C418.232 280.963 423.256 264.982 428.116 255.309C434.766 242.099 447.225 228.628 458.056 229.948C468.125 231.177 469.715 243.717 460.035 254.297Z" fill="black"/>
<path d="M454.925 237.237C441.665 245.617 422.735 274.827 423.165 305.757L421.855 305.007C421.745 273.887 440.835 244.607 454.225 236.137C454.535 235.937 454.935 236.037 455.125 236.347C455.315 236.647 455.225 237.047 454.925 237.237Z" fill="white"/>
<path d="M467.895 279.077C465.585 285.347 452.405 290.787 442.675 299.837C440.118 302.22 437.889 304.677 436.002 307.09C434.119 309.497 430.751 310.138 428.105 308.607L426.945 307.937L426.865 307.897L423.695 306.067C425.575 298.987 428.955 292.277 432.915 286.527C432.925 286.497 432.945 286.467 432.965 286.437C439.405 277.097 447.355 270.347 452.905 268.817C463.815 265.817 470.665 271.547 467.895 279.077Z" fill="#E75F62"/>
<path opacity="0.3" d="M467.895 279.077C465.585 285.347 452.405 290.787 442.675 299.837C440.118 302.22 437.889 304.677 436.002 307.09C434.119 309.497 430.751 310.138 428.105 308.607L426.945 307.937L426.865 307.897L423.695 306.067C425.575 298.987 428.955 292.277 432.915 286.527C432.925 286.497 432.945 286.467 432.965 286.437C439.405 277.097 447.355 270.347 452.905 268.817C463.815 265.817 470.665 271.547 467.895 279.077Z" fill="black"/>
<path d="M458.625 275.307C450.655 277.557 435.215 287.277 428.105 308.607L426.945 307.937C434.155 286.347 449.505 276.527 458.275 274.057C458.635 273.957 458.975 274.157 459.075 274.507C459.175 274.857 458.975 275.217 458.625 275.307Z" fill="white"/>
<path d="M73.099 359.309C73.099 362.779 75.697 367.091 78.9 368.941L205.187 441.867C208.39 443.716 213.584 443.716 216.788 441.867L439.164 313.478C442.367 311.629 444.964 307.316 444.965 303.846C444.965 300.376 442.368 296.063 439.165 294.214L312.878 221.288C309.675 219.438 304.481 219.438 301.277 221.288L78.899 349.677C75.696 351.526 73.099 355.839 73.099 359.309Z" fill="#3A3A3A"/>
<path d="M444.969 303.846C444.969 307.319 442.369 311.624 439.167 313.475L216.785 441.871C215.184 442.786 213.083 443.254 210.993 443.254V430.692C213.083 430.692 215.184 430.224 216.785 429.298L439.166 300.913C441.972 299.296 442.322 296.794 440.218 294.953C442.913 297.048 444.969 300.767 444.969 303.846Z" fill="#37474F"/>
<path d="M210.99 430.698V443.25C208.887 443.25 206.784 442.795 205.19 441.87L78.898 368.94C75.696 367.091 73.098 362.778 73.098 359.309C73.098 356.054 75.389 352.062 78.309 350.053C75.71 351.915 75.911 354.648 78.898 356.376L205.19 429.305C206.783 430.229 208.887 430.698 210.99 430.698Z" fill="#1D1D1D"/>
<path d="M67.658 349.884C64.823 347.884 64.817 345.219 64.817 341.52L64.816 154.644C64.816 150.945 67.413 146.447 70.616 144.597L292.992 16.208C296.195 14.358 299.15 15.699 302.156 17.434C305.161 19.169 307.077 20.666 307.077 24.365V211.241C307.077 214.94 304.48 219.438 301.276 221.288L78.899 349.677C74.05 352.946 70.744 352.061 67.658 349.884Z" fill="#37474F"/>
<path d="M78.899 349.679C74.051 352.943 70.739 352.06 67.658 349.881C64.826 347.884 64.817 345.216 64.817 341.52V154.647C64.817 152.794 65.47 150.75 66.506 148.935L74.79 153.754C73.743 155.559 73.1 157.603 73.1 159.446V346.328C73.101 350.025 75.693 351.522 78.899 349.679Z" fill="#1D1D1D"/>
<path d="M307.079 24.36C307.079 20.668 304.479 19.171 301.276 21.012L78.896 149.407C77.295 150.332 75.839 151.923 74.799 153.743L66.521 148.928H66.511C67.561 147.108 69.017 145.517 70.619 144.592L292.989 16.207C296.192 14.356 299.146 15.695 302.152 17.432C305.156 19.169 307.079 20.668 307.079 24.36Z" fill="#3A3A3A"/>
<path d="M82.0191 156.096L296.419 32.344C298.341 31.234 299.899 32.134 299.899 34.354V205.76C299.899 207.98 298.341 210.678 296.419 211.788L82.0191 335.537C80.0971 336.647 78.5391 335.747 78.5391 333.528V162.124C78.5391 159.904 80.0971 157.206 82.0191 156.096Z" fill="#1D1D1D"/>
<path d="M82.0191 156.096C80.0971 157.206 78.5391 159.904 78.5391 162.124V332.494L291.678 209.473C293.6 208.363 295.158 205.665 295.158 203.445V33.072L82.0191 156.096Z" fill="#E75F62"/>
<path opacity="0.65" d="M82.0191 156.096C80.0971 157.206 78.5391 159.904 78.5391 162.124V332.494L291.678 209.473C293.6 208.363 295.158 205.665 295.158 203.445V33.072L82.0191 156.096Z" fill="white"/>
<path d="M94.951 350.019L301.365 230.847C302.967 229.922 305.564 229.922 307.166 230.847L313.171 234.002C314.773 234.927 314.773 236.426 313.171 237.35L106.726 356.504C105.124 357.429 102.527 357.428 100.925 356.504L94.951 353.368C93.349 352.443 93.349 350.944 94.951 350.019Z" fill="#37474F"/>
<path d="M111.141 359.646L317.553 240.473C319.155 239.548 321.527 239.419 322.853 240.184L376.58 271.204C377.905 271.969 377.681 273.339 376.079 274.264L169.906 393.275C168.304 394.2 165.929 394.333 164.6 393.573L110.646 362.698C109.317 361.937 109.539 360.571 111.141 359.646Z" fill="#1D1D1D"/>
<path d="M288.295 290.039L294.758 286.308C295.033 286.149 295.073 285.915 294.848 285.785L289.147 282.494C288.922 282.364 288.517 282.388 288.242 282.546L281.779 286.277C281.505 286.435 281.465 286.669 281.69 286.799L287.391 290.091C287.616 290.221 288.021 290.197 288.295 290.039ZM279.277 277.37L272.814 281.101C272.54 281.26 272.499 281.494 272.724 281.623L278.425 284.914C278.65 285.044 279.055 285.02 279.329 284.862L285.792 281.13C286.067 280.972 286.108 280.737 285.882 280.608L280.181 277.316C279.957 277.188 279.552 277.212 279.277 277.37ZM258.397 289.425L247.46 295.739C247.186 295.897 247.145 296.131 247.37 296.261L253.071 299.553C253.296 299.683 253.701 299.659 253.975 299.501L264.912 293.187C265.187 293.029 265.227 292.794 265.002 292.665L259.302 289.373C259.077 289.243 258.672 289.266 258.397 289.425ZM269.832 282.823L263.369 286.555C263.095 286.713 263.054 286.947 263.28 287.077L268.981 290.369C269.205 290.499 269.611 290.476 269.885 290.317L276.348 286.586C276.623 286.427 276.663 286.193 276.438 286.064L270.737 282.773C270.511 282.641 270.106 282.665 269.832 282.823ZM244.478 297.461L238.016 301.192C237.741 301.351 237.701 301.585 237.926 301.714L243.627 305.006C243.852 305.136 244.256 305.113 244.531 304.954L250.994 301.222C251.268 301.064 251.308 300.83 251.083 300.7L245.383 297.408C245.157 297.28 244.752 297.303 244.478 297.461ZM235.032 302.915L228.569 306.646C228.294 306.804 228.254 307.038 228.479 307.168L234.18 310.459C234.405 310.589 234.809 310.566 235.084 310.407L241.547 306.676C241.822 306.517 241.862 306.284 241.637 306.154L235.936 302.863C235.711 302.733 235.307 302.756 235.032 302.915ZM258.981 317.316L265.444 313.584C265.718 313.426 265.759 313.192 265.533 313.062L259.832 309.771C259.607 309.641 259.202 309.664 258.928 309.823L252.465 313.554C252.19 313.713 252.15 313.947 252.375 314.077L258.076 317.368C258.301 317.498 258.707 317.475 258.981 317.316ZM249.536 322.769L255.999 319.038C256.274 318.879 256.314 318.646 256.089 318.516L250.389 315.225C250.164 315.095 249.759 315.118 249.484 315.277L243.021 319.008C242.746 319.167 242.706 319.4 242.931 319.53L248.632 322.822C248.856 322.951 249.261 322.928 249.536 322.769ZM240.09 328.223L246.553 324.491C246.828 324.333 246.868 324.099 246.643 323.969L240.942 320.677C240.717 320.547 240.312 320.571 240.038 320.729L233.575 324.46C233.3 324.619 233.26 324.852 233.485 324.982L239.186 328.274C239.411 328.405 239.815 328.381 240.09 328.223ZM230.644 333.676L237.107 329.945C237.382 329.787 237.422 329.553 237.197 329.423L231.496 326.132C231.271 326.002 230.866 326.025 230.592 326.184L224.129 329.915C223.854 330.073 223.814 330.307 224.039 330.437L229.74 333.728C229.965 333.858 230.37 333.835 230.644 333.676ZM278.85 295.493L285.312 291.761C285.586 291.603 285.627 291.369 285.402 291.239L279.701 287.947C279.477 287.817 279.071 287.841 278.797 287.999L272.334 291.73C272.059 291.889 272.019 292.123 272.243 292.252L277.944 295.544C278.17 295.674 278.575 295.651 278.85 295.493ZM268.427 311.863L282.844 303.539C283.119 303.38 283.159 303.147 282.934 303.017L268.268 294.549C268.043 294.419 267.638 294.443 267.364 294.601L259.907 298.906C259.632 299.065 259.592 299.298 259.816 299.428L267.968 304.134C268.193 304.264 268.152 304.498 267.878 304.656L261.913 308.101C261.638 308.259 261.598 308.493 261.823 308.623L267.524 311.915C267.747 312.045 268.153 312.021 268.427 311.863ZM225.587 308.368L219.124 312.1C218.85 312.258 218.809 312.492 219.035 312.622L224.736 315.914C224.961 316.044 225.366 316.02 225.64 315.862L232.103 312.131C232.377 311.972 232.418 311.738 232.193 311.609L226.493 308.317C226.266 308.187 225.861 308.21 225.587 308.368ZM216.141 313.822L209.678 317.553C209.403 317.712 209.363 317.946 209.588 318.076L215.289 321.368C215.514 321.498 215.919 321.474 216.193 321.316L222.656 317.585C222.931 317.427 222.971 317.192 222.746 317.063L217.045 313.772C216.82 313.64 216.415 313.664 216.141 313.822ZM163.621 371.903C163.846 372.033 164.251 372.009 164.525 371.851L170.988 368.119C171.262 367.961 171.303 367.726 171.078 367.597L165.377 364.306C165.152 364.176 164.747 364.2 164.472 364.358L158.01 368.089C157.735 368.248 157.695 368.481 157.92 368.611L163.621 371.903ZM140.576 357.449L134.113 361.18C133.838 361.339 133.798 361.572 134.023 361.702L139.724 364.993C139.949 365.123 140.354 365.1 140.628 364.941L147.091 361.21C147.366 361.051 147.406 360.818 147.181 360.688L141.48 357.397C141.255 357.268 140.85 357.29 140.576 357.449ZM152.169 368.161C152.394 368.291 152.799 368.268 153.073 368.109L159.536 364.377C159.81 364.219 159.851 363.985 159.626 363.855L153.925 360.563C153.7 360.433 153.295 360.457 153.02 360.615L146.557 364.346C146.282 364.505 146.242 364.738 146.467 364.868L152.169 368.161ZM178.462 374.157L184.925 370.426C185.2 370.267 185.24 370.034 185.015 369.904L179.314 366.612C179.089 366.483 178.684 366.506 178.409 366.664L171.946 370.395C171.672 370.553 171.631 370.787 171.856 370.917L177.557 374.208C177.782 374.338 178.187 374.316 178.462 374.157ZM168.112 379.662C168.336 379.792 168.742 379.769 169.016 379.61L175.479 375.878C175.753 375.72 175.794 375.486 175.569 375.356L169.868 372.064C169.643 371.934 169.238 371.957 168.964 372.116L162.501 375.848C162.227 376.006 162.187 376.24 162.412 376.37L168.112 379.662ZM150.021 351.996L143.558 355.727C143.283 355.886 143.243 356.119 143.468 356.249L149.169 359.541C149.394 359.671 149.799 359.648 150.073 359.489L156.536 355.757C156.811 355.599 156.851 355.365 156.626 355.235L150.925 351.944C150.701 351.814 150.296 351.837 150.021 351.996ZM197.249 324.729L190.786 328.46C190.512 328.619 190.471 328.852 190.696 328.982L196.397 332.274C196.622 332.404 197.027 332.381 197.301 332.222L203.764 328.49C204.039 328.332 204.079 328.098 203.854 327.968L198.153 324.676C197.929 324.547 197.524 324.57 197.249 324.729ZM159.467 346.543L153.004 350.274C152.729 350.432 152.689 350.667 152.914 350.796L158.615 354.088C158.84 354.218 159.245 354.195 159.519 354.036L165.982 350.305C166.257 350.146 166.297 349.913 166.072 349.783L160.372 346.491C160.146 346.361 159.742 346.384 159.467 346.543ZM206.695 319.275L200.232 323.007C199.957 323.165 199.917 323.399 200.143 323.529L205.844 326.821C206.069 326.951 206.473 326.928 206.748 326.769L213.211 323.038C213.486 322.879 213.526 322.646 213.301 322.516L207.6 319.224C207.374 319.093 206.969 319.117 206.695 319.275ZM187.804 330.182L181.341 333.913C181.066 334.071 181.026 334.305 181.251 334.435L186.952 337.726C187.176 337.856 187.582 337.833 187.856 337.674L194.318 333.943C194.593 333.785 194.633 333.551 194.408 333.421L188.707 330.13C188.483 330.001 188.078 330.023 187.804 330.182ZM178.358 335.635L171.895 339.367C171.62 339.525 171.58 339.759 171.805 339.889L177.506 343.181C177.731 343.311 178.136 343.287 178.41 343.129L184.873 339.398C185.147 339.239 185.188 339.005 184.963 338.875L179.262 335.584C179.038 335.454 178.632 335.477 178.358 335.635ZM168.913 341.089L162.45 344.82C162.175 344.979 162.135 345.213 162.36 345.342L168.061 348.634C168.286 348.764 168.691 348.74 168.965 348.582L175.428 344.85C175.702 344.692 175.742 344.458 175.517 344.328L169.816 341.037C169.592 340.907 169.187 340.931 168.913 341.089ZM211.753 344.584L218.216 340.852C218.491 340.694 218.531 340.459 218.306 340.33L212.605 337.039C212.38 336.909 211.975 336.933 211.701 337.091L205.238 340.822C204.963 340.981 204.924 341.215 205.149 341.345L210.849 344.636C211.074 344.766 211.478 344.742 211.753 344.584ZM300.157 265.315L293.694 269.046C293.419 269.204 293.38 269.438 293.604 269.568L299.305 272.859C299.53 272.989 299.935 272.965 300.209 272.807L306.672 269.076C306.947 268.917 306.987 268.684 306.762 268.554L301.061 265.262C300.837 265.133 300.432 265.156 300.157 265.315ZM288.723 271.917L282.26 275.648C281.985 275.806 281.945 276.04 282.17 276.17L287.871 279.462C288.096 279.592 288.501 279.568 288.775 279.41L295.238 275.679C295.513 275.52 295.553 275.286 295.328 275.157L289.627 271.865C289.402 271.735 288.997 271.758 288.723 271.917ZM309.602 259.862L303.14 263.593C302.866 263.751 302.825 263.985 303.05 264.115L308.751 267.406C308.976 267.536 309.381 267.513 309.655 267.354L316.118 263.623C316.393 263.464 316.433 263.23 316.208 263.101L310.507 259.809C310.282 259.68 309.878 259.703 309.602 259.862ZM256.976 308.121L263.439 304.39C263.714 304.231 263.754 303.998 263.529 303.867L257.829 300.575C257.604 300.445 257.199 300.469 256.925 300.627L250.462 304.358C250.187 304.516 250.148 304.75 250.372 304.88L256.073 308.171C256.296 308.303 256.701 308.28 256.976 308.121ZM319.953 254.356C319.728 254.226 319.323 254.249 319.048 254.407L312.586 258.138C312.311 258.297 312.271 258.53 312.496 258.66L318.197 261.952C318.421 262.082 318.827 262.059 319.101 261.9L325.564 258.168C325.839 258.01 325.879 257.776 325.654 257.646L319.953 254.356ZM221.199 339.13L227.662 335.399C227.937 335.24 227.977 335.007 227.752 334.877L222.051 331.585C221.826 331.455 221.421 331.478 221.147 331.637L214.684 335.369C214.409 335.527 214.369 335.761 214.595 335.891L220.296 339.182C220.519 339.312 220.924 339.289 221.199 339.13ZM337.032 272.253L343.494 268.522C343.769 268.364 343.809 268.129 343.584 268L337.883 264.709C337.658 264.579 337.253 264.602 336.979 264.761L330.516 268.492C330.242 268.65 330.201 268.885 330.426 269.014L336.127 272.305C336.352 272.435 336.757 272.412 337.032 272.253ZM318.621 272.531L325.084 268.799C325.358 268.641 325.399 268.407 325.173 268.277L319.472 264.986C319.248 264.856 318.842 264.879 318.568 265.038L312.105 268.769C311.83 268.928 311.79 269.162 312.015 269.291L317.716 272.582C317.941 272.713 318.346 272.689 318.621 272.531ZM328.918 259.533C328.694 259.403 328.288 259.426 328.014 259.585L321.551 263.317C321.277 263.475 321.237 263.709 321.462 263.839L327.163 267.13C327.388 267.26 327.793 267.237 328.067 267.079L334.53 263.348C334.805 263.189 334.845 262.956 334.62 262.826L328.918 259.533ZM330.907 258.384L345.573 266.852C345.798 266.982 346.203 266.958 346.477 266.8L352.94 263.069C353.215 262.91 353.255 262.676 353.03 262.547L338.363 254.079C338.138 253.949 337.733 253.973 337.458 254.131L330.995 257.862C330.722 258.021 330.682 258.255 330.907 258.384ZM309.123 270.492L302.66 274.223C302.385 274.381 302.345 274.615 302.57 274.745L308.271 278.036C308.496 278.166 308.901 278.143 309.175 277.984L315.638 274.253C315.912 274.094 315.953 273.86 315.728 273.731L310.027 270.439C309.802 270.31 309.397 270.333 309.123 270.492ZM238.032 311.535L231.569 315.267C231.294 315.426 231.254 315.659 231.479 315.789L237.18 319.08C237.405 319.21 237.81 319.187 238.084 319.028L244.547 315.297C244.822 315.138 244.862 314.905 244.637 314.775L238.936 311.483C238.711 311.353 238.307 311.377 238.032 311.535ZM326.682 277.759C326.906 277.889 327.312 277.865 327.586 277.707L334.049 273.976C334.323 273.817 334.364 273.584 334.139 273.454L328.438 270.162C328.214 270.032 327.808 270.056 327.534 270.214L321.071 273.946C320.796 274.104 320.756 274.338 320.981 274.468L326.682 277.759ZM247.477 306.082L241.015 309.813C240.74 309.972 240.7 310.205 240.925 310.335L246.626 313.627C246.851 313.757 247.256 313.734 247.53 313.575L253.993 309.843C254.268 309.685 254.308 309.451 254.083 309.321L248.382 306.029C248.157 305.9 247.752 305.924 247.477 306.082ZM173.066 366.449C173.291 366.579 173.696 366.555 173.971 366.397L180.434 362.666C180.708 362.507 180.748 362.274 180.523 362.144L174.822 358.852C174.597 358.722 174.192 358.745 173.918 358.904L167.455 362.636C167.18 362.794 167.14 363.028 167.365 363.158L173.066 366.449ZM162.467 355.163L156.004 358.895C155.73 359.053 155.689 359.287 155.914 359.417L161.615 362.708C161.84 362.838 162.245 362.814 162.519 362.656L168.982 358.925C169.257 358.766 169.297 358.533 169.072 358.403L163.372 355.112C163.146 354.981 162.741 355.005 162.467 355.163ZM183.416 360.944L189.879 357.213C190.154 357.055 190.194 356.821 189.969 356.691L184.268 353.4C184.043 353.27 183.638 353.293 183.363 353.452L176.9 357.183C176.626 357.341 176.585 357.575 176.81 357.705L182.511 360.996C182.737 361.125 183.141 361.102 183.416 360.944ZM192.861 355.491L199.324 351.76C199.599 351.601 199.639 351.368 199.414 351.238L193.713 347.946C193.489 347.816 193.083 347.839 192.809 347.998L186.346 351.729C186.072 351.888 186.031 352.122 186.256 352.251L191.957 355.542C192.182 355.672 192.587 355.648 192.861 355.491ZM202.307 350.037L208.77 346.306C209.045 346.147 209.085 345.914 208.86 345.783L203.159 342.492C202.934 342.363 202.529 342.386 202.254 342.545L195.792 346.276C195.517 346.434 195.477 346.669 195.702 346.798L201.402 350.09C201.628 350.219 202.033 350.196 202.307 350.037ZM171.912 349.71L165.45 353.441C165.175 353.6 165.135 353.833 165.36 353.963L171.061 357.254C171.286 357.384 171.691 357.361 171.965 357.202L178.428 353.471C178.703 353.313 178.743 353.078 178.518 352.949L172.817 349.658C172.592 349.528 172.187 349.551 171.912 349.71ZM181.358 344.256L174.895 347.987C174.62 348.146 174.58 348.379 174.805 348.509L180.506 351.801C180.731 351.931 181.136 351.907 181.41 351.749L187.873 348.017C188.147 347.859 188.188 347.625 187.963 347.495L182.262 344.204C182.038 344.074 181.632 344.098 181.358 344.256ZM219.141 322.443L212.678 326.174C212.403 326.333 212.363 326.567 212.589 326.697L218.289 329.988C218.514 330.118 218.919 330.095 219.194 329.936L225.656 326.205C225.931 326.047 225.971 325.812 225.746 325.682L220.045 322.391C219.82 322.261 219.415 322.284 219.141 322.443ZM209.695 327.896L203.232 331.627C202.958 331.785 202.917 332.02 203.142 332.149L208.843 335.441C209.068 335.571 209.473 335.547 209.747 335.389L216.21 331.658C216.485 331.499 216.525 331.265 216.3 331.135L210.599 327.844C210.374 327.714 209.97 327.737 209.695 327.896ZM228.586 316.989L222.123 320.72C221.848 320.879 221.808 321.112 222.033 321.242L227.733 324.534C227.958 324.664 228.363 324.64 228.638 324.482L235.101 320.75C235.376 320.592 235.415 320.358 235.19 320.228L229.489 316.936C229.266 316.807 228.861 316.831 228.586 316.989ZM190.804 338.802L184.341 342.534C184.066 342.692 184.026 342.927 184.251 343.056L189.952 346.347C190.177 346.477 190.582 346.454 190.856 346.295L197.318 342.564C197.593 342.405 197.633 342.171 197.408 342.042L191.707 338.751C191.483 338.621 191.078 338.644 190.804 338.802ZM200.249 333.349L193.786 337.08C193.512 337.239 193.471 337.472 193.696 337.602L199.397 340.894C199.621 341.024 200.027 341.001 200.301 340.842L206.764 337.11C207.039 336.952 207.079 336.718 206.854 336.588L201.153 333.296C200.929 333.168 200.523 333.191 200.249 333.349ZM187.907 368.703L194.37 364.972C194.645 364.814 194.685 364.58 194.46 364.45L188.759 361.159C188.534 361.029 188.13 361.052 187.855 361.211L181.392 364.942C181.117 365.101 181.077 365.334 181.302 365.464L187.003 368.756C187.228 368.885 187.633 368.862 187.907 368.703ZM137.736 366.142L132.035 362.851C131.81 362.721 131.405 362.745 131.131 362.903L124.668 366.635C124.394 366.793 124.353 367.027 124.578 367.157L130.278 370.449C130.503 370.579 130.908 370.555 131.183 370.397L137.646 366.666C137.92 366.506 137.96 366.272 137.736 366.142ZM150.18 369.309L144.479 366.018C144.254 365.888 143.85 365.911 143.575 366.07L133.632 371.81C133.357 371.968 133.317 372.202 133.542 372.332L139.243 375.623C139.468 375.753 139.872 375.73 140.147 375.571L150.09 369.831C150.365 369.673 150.405 369.439 150.18 369.309ZM129.342 359.574L123.641 356.283C123.416 356.153 123.011 356.176 122.737 356.335L114.783 360.927C114.509 361.085 114.468 361.32 114.693 361.449L120.393 364.74C120.618 364.87 121.024 364.846 121.297 364.688L129.252 360.096C129.527 359.939 129.567 359.704 129.342 359.574ZM135.441 356.054C135.665 356.184 136.071 356.16 136.345 356.002L142.808 352.27C143.083 352.112 143.123 351.878 142.898 351.748L137.197 348.456C136.973 348.326 136.567 348.35 136.292 348.508L129.83 352.239C129.555 352.398 129.515 352.632 129.74 352.761L135.441 356.054ZM161.632 373.051L155.931 369.759C155.706 369.63 155.301 369.653 155.027 369.812L142.598 376.987C142.323 377.146 142.283 377.379 142.508 377.509L148.208 380.801C148.433 380.931 148.838 380.907 149.112 380.749L161.541 373.573C161.817 373.414 161.857 373.181 161.632 373.051ZM166.124 380.81L160.423 377.519C160.199 377.389 159.793 377.412 159.519 377.57L151.565 382.163C151.29 382.322 151.25 382.556 151.475 382.685L157.176 385.977C157.401 386.107 157.806 386.083 158.08 385.925L166.034 381.333C166.308 381.174 166.348 380.94 166.124 380.81ZM205.67 315.507C205.894 315.637 206.299 315.614 206.574 315.456L213.037 311.724C213.312 311.566 213.352 311.332 213.127 311.202L207.427 307.911C207.202 307.781 206.797 307.804 206.522 307.963L200.06 311.694C199.785 311.853 199.745 312.086 199.97 312.216L205.67 315.507ZM186.778 326.414C187.003 326.544 187.408 326.52 187.682 326.362L194.145 322.63C194.419 322.472 194.459 322.238 194.234 322.108L188.534 318.817C188.309 318.687 187.904 318.71 187.63 318.869L181.167 322.6C180.892 322.759 180.852 322.992 181.077 323.123L186.778 326.414ZM144.886 350.6C145.111 350.73 145.516 350.707 145.79 350.548L152.253 346.817C152.527 346.659 152.568 346.424 152.343 346.295L146.642 343.003C146.417 342.874 146.012 342.897 145.738 343.055L139.275 346.786C139.001 346.944 138.96 347.178 139.185 347.308L144.886 350.6ZM196.224 320.96C196.449 321.09 196.854 321.067 197.128 320.908L203.591 317.177C203.865 317.019 203.906 316.785 203.681 316.655L197.98 313.364C197.755 313.235 197.351 313.257 197.076 313.416L190.613 317.147C190.338 317.305 190.298 317.539 190.523 317.669L196.224 320.96ZM177.333 331.868C177.558 331.997 177.963 331.974 178.238 331.815L184.7 328.084C184.975 327.926 185.015 327.692 184.79 327.562L179.09 324.271C178.865 324.141 178.46 324.164 178.185 324.323L171.722 328.054C171.447 328.213 171.408 328.447 171.632 328.576L177.333 331.868ZM171.377 381.547C171.151 381.417 170.747 381.44 170.472 381.599L160.529 387.339C160.254 387.497 160.214 387.731 160.439 387.861L166.14 391.152C166.365 391.282 166.77 391.259 167.044 391.1L176.987 385.36C177.262 385.202 177.301 384.968 177.076 384.838L171.377 381.547ZM163.777 339.694C164.002 339.824 164.407 339.8 164.681 339.642L171.144 335.911C171.419 335.752 171.458 335.518 171.234 335.388L165.533 332.096C165.308 331.966 164.903 331.99 164.628 332.148L158.165 335.879C157.89 336.037 157.85 336.271 158.075 336.401L163.777 339.694ZM154.332 345.147C154.557 345.277 154.962 345.254 155.236 345.095L161.699 341.363C161.973 341.205 162.014 340.97 161.789 340.841L156.088 337.55C155.863 337.42 155.458 337.444 155.184 337.602L148.721 341.333C148.447 341.492 148.407 341.725 148.632 341.855L154.332 345.147ZM346.369 280.515C346.144 280.385 345.739 280.408 345.465 280.567L329.557 289.752C329.282 289.91 329.242 290.144 329.466 290.275L335.168 293.566C335.392 293.696 335.797 293.673 336.072 293.514L351.98 284.329C352.254 284.171 352.295 283.937 352.07 283.807L346.369 280.515ZM325.489 292.57C325.264 292.44 324.86 292.463 324.585 292.622L318.122 296.353C317.847 296.512 317.807 296.745 318.032 296.875L323.732 300.166C323.957 300.295 324.362 300.272 324.637 300.114L331.1 296.383C331.375 296.225 331.415 295.991 331.19 295.861L325.489 292.57ZM197.353 363.25L203.816 359.519C204.09 359.36 204.13 359.126 203.905 358.997L198.205 355.705C197.98 355.575 197.575 355.598 197.301 355.757L190.838 359.488C190.563 359.647 190.523 359.88 190.748 360.01L196.449 363.302C196.674 363.432 197.079 363.408 197.353 363.25ZM306.598 303.477C306.373 303.347 305.968 303.371 305.694 303.529L299.231 307.26C298.956 307.419 298.916 307.652 299.141 307.782L304.842 311.073C305.067 311.203 305.472 311.18 305.746 311.021L312.209 307.289C312.484 307.131 312.524 306.897 312.299 306.767L306.598 303.477ZM355.815 275.061C355.59 274.931 355.185 274.954 354.911 275.113L348.448 278.845C348.174 279.003 348.133 279.238 348.358 279.367L354.058 282.658C354.283 282.788 354.688 282.765 354.962 282.606L361.425 278.875C361.7 278.716 361.74 278.483 361.515 278.353L355.815 275.061ZM370.962 272.9L356.295 264.432C356.07 264.302 355.665 264.325 355.391 264.484L348.928 268.216C348.653 268.374 348.613 268.608 348.838 268.738L363.504 277.206C363.729 277.336 364.134 277.312 364.408 277.154L370.871 273.422C371.146 273.263 371.186 273.029 370.962 272.9ZM271.302 323.855C271.077 323.725 270.672 323.748 270.398 323.907L262.444 328.499C262.169 328.657 262.129 328.891 262.354 329.021L268.055 332.312C268.28 332.442 268.685 332.419 268.959 332.26L276.913 327.668C277.188 327.51 277.228 327.275 277.003 327.146L271.302 323.855ZM295.164 310.078C294.939 309.948 294.534 309.972 294.26 310.13L284.317 315.871C284.043 316.029 284.003 316.263 284.227 316.393L289.928 319.684C290.153 319.814 290.558 319.79 290.832 319.632L300.775 313.891C301.05 313.733 301.09 313.499 300.865 313.369L295.164 310.078ZM249.428 336.484C249.203 336.354 248.798 336.377 248.524 336.536L195.33 367.248C195.055 367.406 195.015 367.64 195.24 367.77L200.941 371.062C201.166 371.192 201.571 371.169 201.845 371.01L255.039 340.299C255.314 340.14 255.354 339.906 255.129 339.776L249.428 336.484ZM193.251 368.918C193.026 368.788 192.621 368.811 192.347 368.97L184.392 373.562C184.117 373.72 184.077 373.954 184.302 374.084L190.003 377.376C190.228 377.505 190.633 377.482 190.907 377.323L198.862 372.73C199.136 372.572 199.176 372.338 198.951 372.209L193.251 368.918ZM260.364 330.17C260.139 330.04 259.735 330.063 259.46 330.222L251.506 334.814C251.231 334.973 251.191 335.206 251.416 335.336L257.117 338.627C257.341 338.758 257.747 338.734 258.021 338.576L265.975 333.983C266.25 333.825 266.29 333.591 266.064 333.461L260.364 330.17ZM182.314 375.232C182.089 375.102 181.684 375.126 181.41 375.284L173.456 379.876C173.181 380.035 173.141 380.268 173.366 380.398L179.066 383.69C179.291 383.82 179.696 383.797 179.97 383.638L187.924 379.046C188.199 378.887 188.239 378.654 188.014 378.523L182.314 375.232ZM282.238 317.541C282.013 317.411 281.609 317.434 281.334 317.593L273.379 322.185C273.105 322.343 273.064 322.577 273.289 322.707L278.99 325.999C279.214 326.129 279.62 326.106 279.894 325.947L287.848 321.355C288.123 321.197 288.163 320.963 287.938 320.833L282.238 317.541ZM316.044 298.023C315.819 297.893 315.414 297.917 315.139 298.075L308.676 301.806C308.401 301.964 308.362 302.198 308.587 302.328L314.288 305.62C314.513 305.75 314.918 305.726 315.192 305.568L321.655 301.837C321.93 301.678 321.97 301.445 321.745 301.314L316.044 298.023ZM336.552 282.883L343.015 279.152C343.29 278.993 343.33 278.76 343.105 278.63L337.404 275.339C337.179 275.209 336.774 275.232 336.5 275.391L330.037 279.122C329.763 279.28 329.722 279.514 329.947 279.644L335.648 282.935C335.872 283.065 336.278 283.042 336.552 282.883ZM297.741 284.586L304.204 280.855C304.479 280.697 304.519 280.463 304.294 280.333L298.593 277.042C298.368 276.912 297.963 276.935 297.689 277.094L291.226 280.825C290.951 280.984 290.911 281.217 291.136 281.347L296.836 284.638C297.061 284.767 297.466 284.744 297.741 284.586ZM272.918 319.622L291.809 308.715C292.084 308.556 292.124 308.323 291.899 308.193L286.198 304.901C285.973 304.772 285.569 304.794 285.294 304.953L266.403 315.86C266.128 316.018 266.088 316.252 266.313 316.382L272.014 319.673C272.239 319.804 272.643 319.781 272.918 319.622ZM326.202 288.388C326.426 288.518 326.832 288.495 327.106 288.336L333.569 284.605C333.844 284.446 333.884 284.213 333.659 284.082L327.958 280.79C327.733 280.66 327.328 280.684 327.054 280.842L320.591 284.574C320.317 284.732 320.277 284.966 320.501 285.096L326.202 288.388ZM318.141 283.161L324.604 279.429C324.878 279.271 324.919 279.037 324.694 278.907L318.993 275.615C318.768 275.485 318.363 275.508 318.089 275.667L311.626 279.398C311.351 279.557 311.311 279.79 311.536 279.92L317.237 283.212C317.461 283.342 317.866 283.319 318.141 283.161ZM263.472 325.076L269.935 321.344C270.21 321.185 270.25 320.952 270.025 320.822L264.324 317.53C264.099 317.4 263.694 317.423 263.42 317.582L256.957 321.314C256.682 321.472 256.642 321.706 256.867 321.836L262.568 325.128C262.793 325.258 263.198 325.234 263.472 325.076ZM305.322 300.444C305.547 300.574 305.952 300.55 306.227 300.392L312.69 296.66C312.965 296.502 313.005 296.268 312.78 296.138L307.079 292.846C306.854 292.716 306.449 292.739 306.175 292.898L299.712 296.629C299.437 296.788 299.397 297.021 299.622 297.151L305.322 300.444ZM216.245 352.343L222.708 348.611C222.982 348.453 223.022 348.219 222.798 348.089L217.097 344.798C216.872 344.668 216.467 344.691 216.193 344.85L209.73 348.581C209.455 348.74 209.416 348.973 209.64 349.103L215.341 352.395C215.565 352.525 215.97 352.501 216.245 352.343ZM225.69 346.889L232.153 343.158C232.428 342.999 232.468 342.766 232.243 342.636L226.542 339.344C226.317 339.215 225.913 339.238 225.638 339.396L219.175 343.127C218.9 343.285 218.86 343.519 219.085 343.649L224.786 346.94C225.011 347.071 225.415 347.048 225.69 346.889ZM206.799 357.796L213.262 354.065C213.537 353.907 213.577 353.672 213.352 353.543L207.651 350.252C207.426 350.122 207.021 350.145 206.747 350.304L200.284 354.035C200.009 354.193 199.969 354.427 200.194 354.557L205.895 357.849C206.12 357.978 206.524 357.955 206.799 357.796ZM244.581 335.983L251.043 332.252C251.318 332.093 251.358 331.859 251.133 331.73L245.432 328.439C245.207 328.309 244.802 328.333 244.527 328.491L238.064 332.223C237.79 332.381 237.749 332.615 237.974 332.745L243.675 336.037C243.902 336.164 244.307 336.141 244.581 335.983ZM235.136 341.436L241.599 337.705C241.874 337.547 241.914 337.313 241.689 337.183L235.988 333.892C235.763 333.762 235.358 333.785 235.083 333.944L228.62 337.675C228.346 337.834 228.305 338.068 228.53 338.197L234.231 341.489C234.456 341.617 234.861 341.595 235.136 341.436ZM254.027 330.529L260.49 326.798C260.764 326.64 260.805 326.406 260.58 326.276L254.879 322.985C254.654 322.855 254.249 322.878 253.975 323.037L247.512 326.768C247.238 326.926 247.197 327.16 247.423 327.29L253.123 330.582C253.347 330.711 253.752 330.688 254.027 330.529ZM306.22 255.039C306.445 255.169 306.85 255.146 307.125 254.987L313.588 251.255C313.863 251.097 313.902 250.863 313.677 250.733L312.16 249.856C311.935 249.726 311.53 249.75 311.255 249.908L304.792 253.64C304.519 253.798 304.478 254.032 304.703 254.162L306.22 255.039ZM259.096 284.661C259.321 284.791 259.726 284.768 260 284.609L266.463 280.878C266.737 280.719 266.778 280.485 266.553 280.356L260.852 277.065C260.627 276.934 260.222 276.958 259.948 277.116L253.485 280.848C253.21 281.006 253.17 281.24 253.395 281.37L259.096 284.661ZM277.987 273.755C278.211 273.885 278.617 273.861 278.891 273.703L285.354 269.972C285.629 269.813 285.669 269.58 285.445 269.449L279.744 266.158C279.519 266.028 279.114 266.052 278.84 266.21L272.377 269.941C272.103 270.099 272.062 270.334 272.287 270.463L277.987 273.755ZM247.562 291.321C247.787 291.451 248.191 291.428 248.466 291.269L254.929 287.538C255.203 287.38 255.243 287.146 255.019 287.016L249.318 283.724C249.093 283.595 248.688 283.618 248.414 283.777L241.951 287.508C241.676 287.666 241.636 287.9 241.861 288.03L247.562 291.321ZM268.541 279.208C268.765 279.338 269.171 279.315 269.446 279.156L275.909 275.424C276.183 275.266 276.224 275.032 275.998 274.902L270.297 271.611C270.073 271.481 269.668 271.504 269.393 271.663L262.93 275.394C262.655 275.553 262.615 275.786 262.84 275.916L268.541 279.208ZM228.67 302.228C228.895 302.357 229.3 302.334 229.575 302.175L236.038 298.444C236.313 298.286 236.353 298.052 236.128 297.921L230.427 294.63C230.202 294.5 229.797 294.523 229.523 294.682L223.06 298.413C222.785 298.572 222.746 298.806 222.97 298.935L228.67 302.228ZM238.116 296.774C238.341 296.904 238.746 296.88 239.02 296.722L245.483 292.991C245.757 292.833 245.797 292.599 245.572 292.469L239.872 289.177C239.647 289.047 239.242 289.071 238.968 289.229L232.505 292.96C232.23 293.119 232.19 293.352 232.415 293.482L238.116 296.774ZM287.329 265.946C287.554 266.076 287.959 266.052 288.234 265.894L294.697 262.162C294.971 262.004 295.012 261.77 294.787 261.641L293.269 260.765C293.044 260.635 292.639 260.658 292.365 260.816L285.902 264.548C285.627 264.706 285.587 264.94 285.812 265.07L287.329 265.946ZM315.666 249.585C315.891 249.715 316.296 249.692 316.571 249.534L323.034 245.802C323.309 245.643 323.349 245.41 323.124 245.28L321.607 244.403C321.382 244.274 320.977 244.297 320.703 244.455L314.24 248.186C313.966 248.344 313.925 248.579 314.15 248.709L315.666 249.585ZM327.642 256.499C327.867 256.629 328.272 256.606 328.547 256.447L335.01 252.716C335.285 252.557 335.325 252.324 335.1 252.194L329.399 248.902C329.175 248.772 328.769 248.795 328.495 248.954L322.032 252.686C321.757 252.844 321.717 253.078 321.942 253.208L327.642 256.499ZM345.997 277.43L352.46 273.698C352.735 273.54 352.775 273.306 352.55 273.176L346.849 269.884C346.625 269.754 346.219 269.778 345.944 269.936L339.481 273.667C339.207 273.826 339.166 274.059 339.391 274.189L345.091 277.481C345.318 277.612 345.723 277.588 345.997 277.43ZM296.775 260.492C297 260.622 297.405 260.599 297.679 260.44L304.142 256.709C304.417 256.551 304.457 256.316 304.232 256.187L302.714 255.311C302.489 255.181 302.084 255.204 301.81 255.363L295.347 259.094C295.073 259.253 295.032 259.486 295.257 259.616L296.775 260.492ZM219.225 307.681C219.45 307.811 219.855 307.788 220.129 307.629L226.592 303.898C226.867 303.739 226.907 303.506 226.682 303.376L220.981 300.085C220.756 299.955 220.351 299.978 220.077 300.137L213.614 303.869C213.34 304.027 213.299 304.261 213.525 304.391L219.225 307.681Z" fill="#3A3A3A"/>
<path d="M248.145 356.458L249.47 357.223L284.667 377.54L347.261 341.401L348.564 340.658L312.042 319.577L248.145 356.458Z" fill="#1D1D1D"/>
<path d="M346.677 341.738L312.042 321.756L250.053 357.559L284.667 377.54L346.677 341.738Z" fill="#37474F"/>
<path d="M386.217 63.423C386.217 60.788 385.298 58.932 383.809 58.057C382.302 57.171 373.58 52.14 372.063 51.276C370.56 50.42 368.49 50.551 366.205 51.87L202.95 146.126V200.156L214.648 206.909L377.904 112.654C382.495 110.003 386.217 103.556 386.217 98.255V63.423Z" fill="#E75F62"/>
<path opacity="0.15" d="M386.217 63.423C386.217 60.788 385.298 58.932 383.809 58.057C382.302 57.171 373.58 52.14 372.063 51.276C370.56 50.42 368.49 50.551 366.205 51.87L202.95 146.126V200.156L214.648 206.909L377.904 112.654C382.495 110.003 386.217 103.556 386.217 98.255V63.423Z" fill="black"/>
<path d="M377.904 58.624C382.495 55.973 386.217 58.122 386.217 63.424V98.256C386.217 103.558 382.495 110.004 377.904 112.655L214.648 206.91V152.88L377.904 58.624Z" fill="#E75F62"/>
<path d="M376.228 108.204C379.31 106.424 381.832 102.057 381.832 98.498V66.321C381.832 63.785 380.035 62.747 377.838 64.015L217.934 156.402V199.662L376.228 108.204Z" fill="#FAFAFA"/>
<path d="M245.805 172.976C245.805 173.224 245.746 173.471 245.629 173.717C245.512 173.966 245.373 174.136 245.212 174.229L242.45 175.824C242.289 175.917 242.15 175.907 242.033 175.794C241.917 175.683 241.858 175.503 241.858 175.255V166.715C241.858 165.748 241.705 165.06 241.398 164.652C241.09 164.246 240.609 164.23 239.951 164.611C239.293 164.99 238.814 165.56 238.514 166.316C238.215 167.076 238.065 167.938 238.065 168.905V177.445C238.065 177.693 238.006 177.94 237.889 178.187C237.773 178.435 237.634 178.605 237.473 178.698L234.71 180.293C234.549 180.387 234.41 180.377 234.294 180.264C234.176 180.152 234.118 179.973 234.118 179.725V157.58C234.118 157.332 234.176 157.085 234.294 156.838C234.41 156.59 234.549 156.42 234.71 156.326L237.473 154.731C237.634 154.638 237.773 154.649 237.889 154.761C238.006 154.873 238.065 155.053 238.065 155.3V162.489C238.313 161.874 238.701 161.194 239.227 160.452C239.753 159.709 240.359 159.141 241.046 158.743C241.747 158.339 242.391 158.118 242.976 158.085C243.56 158.052 244.061 158.23 244.478 158.619C244.894 159.009 245.219 159.62 245.453 160.452C245.687 161.284 245.805 162.365 245.805 163.692V172.976Z" fill="#3A3A3A"/>
<path d="M253.389 162.656C253.389 163.174 253.462 163.531 253.608 163.727C253.754 163.923 253.996 163.925 254.333 163.731L256.086 162.718C256.247 162.626 256.386 162.636 256.503 162.747C256.619 162.86 256.678 163.04 256.678 163.288V166.696C256.678 166.944 256.619 167.191 256.503 167.438C256.386 167.686 256.247 167.856 256.086 167.95L254.004 169.151C253.316 169.549 252.691 169.756 252.129 169.778C251.567 169.8 251.088 169.637 250.693 169.291C250.299 168.945 249.992 168.425 249.773 167.73C249.554 167.036 249.444 166.171 249.444 165.135V159.463L247.822 160.401C247.661 160.494 247.522 160.485 247.405 160.372C247.289 160.26 247.23 160.079 247.23 159.831V156.423C247.23 156.175 247.289 155.928 247.405 155.681C247.522 155.434 247.661 155.263 247.822 155.169L249.444 154.233V148.731C249.444 148.483 249.503 148.236 249.619 147.989C249.736 147.742 249.875 147.571 250.036 147.477L252.799 145.883C252.959 145.789 253.098 145.801 253.216 145.912C253.332 146.024 253.391 146.205 253.391 146.451V151.953L255.869 150.523C256.029 150.43 256.168 150.441 256.286 150.552C256.402 150.665 256.461 150.845 256.461 151.092V154.501C256.461 154.749 256.402 154.997 256.286 155.243C256.168 155.492 256.029 155.661 255.869 155.754L253.391 157.185V162.656H253.389Z" fill="#3A3A3A"/>
<path d="M263.781 156.656C263.781 157.174 263.853 157.531 264 157.728C264.147 157.924 264.388 157.925 264.725 157.732L266.478 156.719C266.638 156.626 266.777 156.636 266.895 156.747C267.011 156.86 267.07 157.041 267.07 157.288V160.697C267.07 160.945 267.011 161.192 266.895 161.438C266.777 161.687 266.638 161.857 266.478 161.95L264.396 163.152C263.708 163.549 263.083 163.757 262.521 163.778C261.958 163.799 261.48 163.637 261.085 163.292C260.691 162.946 260.384 162.426 260.165 161.731C259.946 161.036 259.836 160.17 259.836 159.135V153.464L258.214 154.4C258.053 154.494 257.914 154.484 257.797 154.371C257.681 154.26 257.622 154.079 257.622 153.831V150.422C257.622 150.175 257.681 149.928 257.797 149.68C257.914 149.434 258.053 149.262 258.214 149.169L259.836 148.233V142.731C259.836 142.484 259.895 142.237 260.011 141.989C260.128 141.743 260.267 141.571 260.428 141.478L263.191 139.883C263.351 139.79 263.49 139.801 263.608 139.912C263.724 140.025 263.783 140.205 263.783 140.452V145.954L266.261 144.523C266.421 144.431 266.56 144.441 266.678 144.553C266.794 144.665 266.853 144.845 266.853 145.093V148.501C266.853 148.749 266.794 148.997 266.678 149.244C266.56 149.493 266.421 149.661 266.261 149.755L263.783 151.185V156.656H263.781Z" fill="#3A3A3A"/>
<path d="M275.816 156.897C275.393 157.142 275.02 157.29 274.699 157.34C274.377 157.391 274.099 157.382 273.866 157.315C273.632 157.247 273.434 157.142 273.273 156.999C273.113 156.856 272.981 156.712 272.879 156.568V163.757C272.879 164.004 272.819 164.252 272.703 164.499C272.586 164.747 272.447 164.917 272.287 165.01L269.523 166.606C269.363 166.698 269.224 166.688 269.107 166.575C268.99 166.464 268.931 166.284 268.931 166.036V143.893C268.931 143.647 268.99 143.399 269.107 143.151C269.224 142.905 269.363 142.733 269.523 142.641L272.176 141.109C272.336 141.016 272.476 141.027 272.593 141.139C272.709 141.25 272.768 141.431 272.768 141.678V142.454C272.899 142.154 273.043 141.835 273.196 141.5C273.349 141.162 273.539 140.834 273.765 140.512C273.992 140.19 274.27 139.872 274.598 139.559C274.927 139.244 275.333 138.95 275.815 138.67C276.473 138.291 277.094 138.084 277.679 138.049C278.264 138.016 278.776 138.194 279.213 138.582C279.652 138.969 280.006 139.57 280.276 140.381C280.547 141.192 280.696 142.254 280.725 143.564C280.74 143.893 280.747 144.345 280.747 144.918C280.747 145.492 280.739 145.951 280.725 146.298C280.696 147.643 280.546 148.877 280.276 150.001C280.005 151.125 279.652 152.133 279.213 153.027C278.775 153.922 278.264 154.695 277.679 155.347C277.095 156 276.474 156.518 275.816 156.897ZM276.803 148.158C276.846 147.504 276.846 146.873 276.803 146.268C276.759 145.506 276.591 144.917 276.298 144.499C276.006 144.084 275.517 144.073 274.83 144.47C274.508 144.656 274.23 144.896 273.997 145.188C273.763 145.48 273.568 145.801 273.416 146.148C273.262 146.496 273.142 146.851 273.054 147.218C272.966 147.583 272.907 147.943 272.879 148.297C272.849 148.651 272.835 149.054 272.835 149.504C272.835 149.954 272.849 150.339 272.879 150.659C272.907 150.98 272.966 151.272 273.054 151.538C273.142 151.802 273.262 152.018 273.416 152.188C273.568 152.359 273.763 152.456 273.997 152.477C274.23 152.5 274.508 152.418 274.83 152.233C275.516 151.837 276.006 151.261 276.298 150.508C276.592 149.756 276.76 148.972 276.803 148.158Z" fill="#3A3A3A"/>
<path d="M286.821 137.481C286.821 137.729 286.762 137.976 286.646 138.223C286.529 138.471 286.39 138.641 286.229 138.735L283.358 140.392C283.196 140.485 283.057 140.475 282.941 140.362C282.824 140.251 282.766 140.071 282.766 139.823V135.401C282.766 135.154 282.824 134.907 282.941 134.659C283.057 134.411 283.196 134.241 283.358 134.148L286.229 132.491C286.39 132.397 286.529 132.407 286.646 132.519C286.762 132.632 286.821 132.813 286.821 133.059V137.481ZM286.821 149.295C286.821 149.543 286.762 149.789 286.646 150.036C286.529 150.285 286.39 150.455 286.229 150.547L283.358 152.205C283.196 152.299 283.057 152.289 282.941 152.176C282.824 152.063 282.766 151.884 282.766 151.636V147.214C282.766 146.967 282.824 146.719 282.941 146.471C283.057 146.225 283.196 146.055 283.358 145.961L286.229 144.303C286.39 144.211 286.529 144.221 286.646 144.332C286.762 144.445 286.821 144.625 286.821 144.873V149.295Z" fill="#3A3A3A"/>
<path d="M295.942 119.422C296.014 119.133 296.125 118.84 296.27 118.541C296.416 118.243 296.628 118.014 296.907 117.853L299.625 116.284C299.756 116.208 299.869 116.216 299.965 116.307C300.06 116.399 300.108 116.545 300.108 116.748C300.108 116.838 300.093 116.947 300.064 117.077L292.676 148.648C292.616 148.906 292.514 149.191 292.369 149.501C292.223 149.81 292.003 150.049 291.711 150.218L289.036 151.762C288.904 151.838 288.791 151.83 288.696 151.74C288.6 151.649 288.553 151.501 288.553 151.299C288.553 151.209 288.568 151.099 288.597 150.969L295.942 119.422Z" fill="#3A3A3A"/>
<path d="M303.462 115.08C303.535 114.791 303.645 114.498 303.791 114.199C303.937 113.901 304.148 113.672 304.427 113.511L307.146 111.942C307.277 111.866 307.39 111.874 307.486 111.965C307.581 112.057 307.628 112.203 307.628 112.407C307.628 112.497 307.614 112.606 307.584 112.736L300.197 144.307C300.137 144.565 300.035 144.85 299.889 145.16C299.743 145.47 299.523 145.708 299.232 145.877L296.556 147.421C296.425 147.497 296.312 147.489 296.217 147.399C296.121 147.308 296.074 147.16 296.074 146.958C296.074 146.868 296.088 146.758 296.118 146.628L303.462 115.08Z" fill="#3A3A3A"/>
<path d="M317.953 114.68C318.172 114.554 318.34 114.548 318.457 114.66C318.573 114.771 318.654 114.906 318.698 115.06L320.32 121.786L321.943 113.187C321.986 112.982 322.066 112.755 322.184 112.507C322.3 112.26 322.468 112.071 322.688 111.945L325.406 110.376C325.553 110.292 325.677 110.299 325.779 110.397C325.882 110.496 325.932 110.658 325.932 110.882C325.932 110.972 325.925 111.066 325.911 111.164L322.425 128.805C322.381 129.032 322.305 129.268 322.196 129.51C322.086 129.754 321.922 129.94 321.702 130.067L319.203 131.509C318.984 131.635 318.823 131.639 318.721 131.517C318.619 131.397 318.538 131.251 318.48 131.082L316.923 124.894L315.367 132.88C315.308 133.115 315.227 133.354 315.126 133.592C315.024 133.832 314.862 134.015 314.643 134.142L312.144 135.584C311.925 135.711 311.761 135.716 311.651 135.599C311.542 135.483 311.466 135.335 311.422 135.159L307.936 121.544C307.921 121.462 307.914 121.377 307.914 121.287C307.914 121.062 307.966 120.841 308.068 120.624C308.17 120.408 308.294 120.257 308.44 120.173L311.159 118.603C311.379 118.477 311.546 118.471 311.664 118.583C311.78 118.694 311.86 118.829 311.904 118.983L313.526 125.709L315.149 117.11C315.193 116.905 315.273 116.678 315.39 116.43C315.507 116.183 315.675 115.994 315.894 115.868L317.953 114.68Z" fill="#3A3A3A"/>
<path d="M336.938 103.719C337.158 103.592 337.325 103.586 337.442 103.698C337.559 103.81 337.639 103.945 337.683 104.099L339.305 110.824L340.928 102.225C340.971 102.021 341.052 101.793 341.169 101.546C341.286 101.298 341.454 101.11 341.673 100.983L344.392 99.415C344.538 99.33 344.663 99.337 344.765 99.436C344.867 99.535 344.917 99.697 344.917 99.921C344.917 100.011 344.91 100.105 344.897 100.203L341.411 117.844C341.367 118.072 341.29 118.308 341.181 118.55C341.072 118.794 340.908 118.979 340.688 119.106L338.188 120.548C337.969 120.675 337.809 120.678 337.707 120.556C337.604 120.436 337.524 120.29 337.466 120.122L335.909 113.933L334.352 121.919C334.293 122.155 334.212 122.394 334.111 122.632C334.009 122.872 333.848 123.054 333.628 123.181L331.129 124.624C330.909 124.751 330.745 124.755 330.636 124.638C330.526 124.523 330.449 124.374 330.406 124.199L326.92 110.584C326.906 110.502 326.899 110.416 326.899 110.326C326.899 110.101 326.951 109.881 327.053 109.664C327.154 109.447 327.279 109.297 327.425 109.213L330.144 107.643C330.363 107.516 330.531 107.51 330.648 107.622C330.765 107.734 330.845 107.869 330.889 108.023L332.511 114.748L334.134 106.149C334.178 105.944 334.257 105.717 334.375 105.47C334.491 105.222 334.659 105.034 334.879 104.907L336.938 103.719Z" fill="#3A3A3A"/>
<path d="M355.925 92.758C356.144 92.631 356.312 92.625 356.429 92.737C356.545 92.85 356.626 92.984 356.67 93.138L358.292 99.864L359.915 91.264C359.958 91.06 360.038 90.832 360.156 90.585C360.272 90.338 360.44 90.15 360.66 90.023L363.378 88.454C363.525 88.369 363.649 88.377 363.751 88.475C363.854 88.575 363.904 88.737 363.904 88.961C363.904 89.051 363.897 89.145 363.882 89.242L360.396 106.883C360.352 107.112 360.276 107.347 360.167 107.59C360.057 107.834 359.893 108.018 359.673 108.145L357.174 109.588C356.955 109.715 356.794 109.717 356.692 109.596C356.59 109.475 356.509 109.33 356.451 109.162L354.894 102.973L353.338 110.959C353.279 111.195 353.198 111.434 353.097 111.672C352.994 111.911 352.833 112.094 352.614 112.221L350.115 113.664C349.896 113.79 349.732 113.795 349.622 113.678C349.513 113.562 349.436 113.414 349.392 113.238L345.906 99.623C345.891 99.542 345.884 99.456 345.884 99.366C345.884 99.141 345.936 98.921 346.038 98.703C346.14 98.487 346.264 98.337 346.41 98.252L349.129 96.683C349.349 96.556 349.516 96.55 349.634 96.662C349.75 96.775 349.83 96.909 349.874 97.063L351.496 103.789L353.119 95.189C353.163 94.984 353.243 94.757 353.36 94.51C353.477 94.263 353.645 94.075 353.864 93.948L355.925 92.758Z" fill="#3A3A3A"/>
<path d="M368.75 101.993C368.75 102.241 368.691 102.488 368.574 102.735C368.458 102.983 368.318 103.153 368.158 103.246L365.286 104.904C365.125 104.997 364.986 104.987 364.869 104.875C364.752 104.762 364.694 104.583 364.694 104.335V99.913C364.694 99.666 364.752 99.418 364.869 99.17C364.986 98.923 365.125 98.753 365.286 98.66L368.158 97.002C368.318 96.909 368.458 96.919 368.574 97.031C368.691 97.144 368.75 97.324 368.75 97.571V101.993Z" fill="#3A3A3A"/>
<path d="M207.444 137.153L207.446 137.149L207.368 137.101C207.365 137.099 207.363 137.098 207.36 137.096L187.354 125.219C187.348 125.215 187.342 125.212 187.336 125.208L187.226 125.141L187.224 125.146C178.413 119.834 166.655 120.671 154.009 128.928C128.603 145.516 109.244 185.751 110.769 218.795C111.529 235.265 117.336 246.837 126.114 252.25L126.112 252.253L126.19 252.3C126.193 252.302 126.197 252.304 126.2 252.306L146.21 264.186C146.213 264.187 146.215 264.189 146.218 264.191L146.311 264.247L146.313 264.243C155.127 269.57 166.894 268.738 179.551 260.474C204.956 243.886 224.316 203.651 222.791 170.607C222.029 154.137 216.222 142.566 207.444 137.153Z" fill="#37474F"/>
<path d="M145.566 263.778L126.204 252.305C126.19 252.305 126.19 252.305 126.19 252.305L126.105 252.245C117.331 246.819 111.527 235.248 110.769 218.8C110.089 204.063 113.571 187.905 119.871 173.061L119.998 172.735L139.884 184.937C133.569 199.782 130.101 215.94 130.781 230.677C131.525 246.794 137.102 258.216 145.566 263.778Z" fill="#1D1D1D"/>
<path d="M179.548 260.474C204.953 243.886 224.313 203.651 222.788 170.607C221.264 137.564 199.432 124.224 174.026 140.813C148.62 157.401 129.261 197.636 130.786 230.679C132.312 263.723 154.143 277.062 179.548 260.474Z" fill="#3A3A3A"/>
<path d="M165.21 251.748C161.812 251.748 158.614 250.926 155.739 249.273C147.736 244.669 143.145 234.116 143.145 220.316C143.145 194.929 158.579 165.298 177.548 154.262C186.174 149.243 194.603 148.598 201.28 152.439C209.283 157.041 213.874 167.596 213.874 181.396C213.874 206.782 198.44 236.414 179.472 247.45C174.559 250.308 169.709 251.748 165.21 251.748ZM191.805 153.799C187.976 153.799 183.78 155.063 179.473 157.569C161.551 167.994 146.972 196.142 146.972 220.316C146.972 232.71 150.863 242.055 157.647 245.958C163.089 249.086 170.158 248.445 177.549 244.144C195.47 233.718 210.049 205.57 210.049 181.397C210.049 169.003 206.158 159.658 199.374 155.755C197.102 154.447 194.548 153.799 191.805 153.799Z" fill="#E75F62"/>
<path d="M165.205 188.268C160.999 188.268 157.127 186.958 153.782 184.338L155.552 182.08C161.397 186.66 169.295 186.462 177.789 181.518C186.591 176.397 194.862 166.913 201.077 154.813L203.63 156.124C197.166 168.706 188.502 178.605 179.232 183.999C174.342 186.843 169.592 188.268 165.205 188.268Z" fill="#E75F62"/>
<path d="M155.944 246.897L153.391 245.586C159.853 233.005 168.518 223.106 177.788 217.712C187.369 212.14 196.405 212.021 203.237 217.372L201.467 219.63C195.621 215.052 187.724 215.252 179.231 220.193C170.428 225.313 162.158 234.797 155.944 246.897Z" fill="#E75F62"/>
<path d="M174.807 248.325C173.478 248.325 172.175 247.968 170.933 247.253C164.191 243.375 160.003 229.402 160.003 210.787C160.003 185.124 167.816 160.477 177.789 154.675C180.612 153.033 183.479 152.956 186.089 154.457C192.83 158.335 197.018 172.308 197.018 190.924C197.018 216.586 189.205 241.234 179.233 247.036C177.755 247.895 176.265 248.325 174.807 248.325ZM182.207 156.254C181.252 156.254 180.265 156.554 179.232 157.155C170.364 162.313 162.872 186.874 162.872 210.787C162.872 230.488 167.639 242.049 172.362 244.766C174.076 245.752 175.852 245.683 177.789 244.556C186.657 239.398 194.148 214.837 194.148 190.924C194.148 171.222 189.381 159.661 184.658 156.945C183.858 156.485 183.045 156.254 182.207 156.254Z" fill="#E75F62"/>
<path d="M179.945 155.915H177.076V245.796H179.945V155.915Z" fill="#E75F62"/>
<path d="M211.225 180.158L144.328 219.083L145.771 221.563L212.668 182.639L211.225 180.158Z" fill="#E75F62"/>
<path d="M412.591 137.483C412.258 136.79 411.845 136.353 411.397 136.091L411.405 136.09L408.424 134.368V134.376C407.127 133.631 405.543 134.368 404.704 134.883L402.844 133.809C400.586 132.446 397.449 135.297 396.746 135.982L395.942 135.518C394.88 134.878 393.435 135.283 392.154 135.931V125.095C392.154 123.907 391.746 123.067 391.086 122.654L391.089 122.652L391.058 122.634C391.041 122.624 391.025 122.614 391.008 122.605L388.083 120.914C388.081 120.913 388.079 120.911 388.076 120.91L388.055 120.898L388.054 120.9C387.364 120.515 386.418 120.577 385.374 121.18C383.261 122.4 381.548 125.367 381.548 127.806V160.998C381.396 160.924 381.244 160.853 381.092 160.786C378.477 158.944 375.733 157.848 373.309 158.279C370.996 158.69 368.93 160.66 368.33 161.718C367.064 163.949 369.152 165.348 371.842 168.424C374.507 171.472 376.859 175.143 379.287 177.408C381.715 179.673 383.475 180.262 383.475 180.262V184.604L386.429 186.31L408.909 173.331V168.989C408.909 168.989 411.699 157.868 412.59 153.22C413.482 148.574 414.305 141.047 412.591 137.483Z" fill="#E75F62"/>
<path opacity="0.8" d="M412.591 137.483C412.258 136.79 411.845 136.353 411.397 136.091L411.405 136.09L408.424 134.368V134.376C407.127 133.631 405.543 134.368 404.704 134.883L402.844 133.809C400.586 132.446 397.449 135.297 396.746 135.982L395.942 135.518C394.88 134.878 393.435 135.283 392.154 135.931V125.095C392.154 123.907 391.746 123.067 391.086 122.654L391.089 122.652L391.058 122.634C391.041 122.624 391.025 122.614 391.008 122.605L388.083 120.914C388.081 120.913 388.079 120.911 388.076 120.91L388.055 120.898L388.054 120.9C387.364 120.515 386.418 120.577 385.374 121.18C383.261 122.4 381.548 125.367 381.548 127.806V160.998C381.396 160.924 381.244 160.853 381.092 160.786C378.477 158.944 375.733 157.848 373.309 158.279C370.996 158.69 368.93 160.66 368.33 161.718C367.064 163.949 369.152 165.348 371.842 168.424C374.507 171.472 376.859 175.143 379.287 177.408C381.715 179.673 383.475 180.262 383.475 180.262V184.604L386.429 186.31L408.909 173.331V168.989C408.909 168.989 411.699 157.868 412.59 153.22C413.482 148.574 414.305 141.047 412.591 137.483Z" fill="white"/>
<path opacity="0.2" d="M392.157 135.968V139.644C392.157 139.644 392.157 139.644 392.164 139.637C392.281 139.534 393.549 138.437 395.051 137.662L392.157 135.968ZM405.736 134.37C405.338 134.528 404.982 134.713 404.707 134.884L405.66 135.439C406.188 135.713 406.675 136.207 407.073 136.989C407.073 136.989 407.807 136.399 408.774 136.036L405.736 134.37ZM398.741 134.405C397.801 134.995 397.047 135.687 396.745 135.982L398.693 137.114C398.727 137.135 398.768 137.148 398.803 137.176C399.084 137.32 399.338 137.539 399.557 137.834C399.557 137.834 399.557 137.834 399.564 137.827C399.653 137.738 400.497 136.874 401.635 136.147L398.741 134.405ZM381.548 127.807V161C382.535 161.48 383.53 162.104 384.504 162.824V129.515L381.548 127.807ZM392.143 135.962L392.157 135.968V135.935L392.143 135.962ZM382.24 179.112C379.812 176.849 377.46 173.18 374.799 170.128C372.275 167.241 370.273 165.828 371.096 163.819L368.14 162.111C367.317 164.12 369.313 165.533 371.843 168.427C374.511 171.472 376.856 175.141 379.284 177.411C381.719 179.674 383.474 180.264 383.474 180.264V184.605L386.43 186.313V181.972C386.431 181.972 384.668 181.382 382.24 179.112Z" fill="#E75F62"/>
<path opacity="0.1" d="M392.157 135.968V139.644C392.157 139.644 392.157 139.644 392.164 139.637C392.281 139.534 393.549 138.437 395.051 137.662L392.157 135.968ZM405.736 134.37C405.338 134.528 404.982 134.713 404.707 134.884L405.66 135.439C406.188 135.713 406.675 136.207 407.073 136.989C407.073 136.989 407.807 136.399 408.774 136.036L405.736 134.37ZM398.741 134.405C397.801 134.995 397.047 135.687 396.745 135.982L398.693 137.114C398.727 137.135 398.768 137.148 398.803 137.176C399.084 137.32 399.338 137.539 399.557 137.834C399.557 137.834 399.557 137.834 399.564 137.827C399.653 137.738 400.497 136.874 401.635 136.147L398.741 134.405ZM381.548 127.807V161C382.535 161.48 383.53 162.104 384.504 162.824V129.515L381.548 127.807ZM392.143 135.962L392.157 135.968V135.935L392.143 135.962ZM382.24 179.112C379.812 176.849 377.46 173.18 374.799 170.128C372.275 167.241 370.273 165.828 371.096 163.819L368.14 162.111C367.317 164.12 369.313 165.533 371.843 168.427C374.511 171.472 376.856 175.141 379.284 177.411C381.719 179.674 383.474 180.264 383.474 180.264V184.605L386.43 186.313V181.972C386.431 181.972 384.668 181.382 382.24 179.112Z" fill="black"/>
<path d="M386.43 186.311V181.969C386.43 181.969 384.67 181.38 382.242 179.115C379.814 176.85 377.462 173.179 374.797 170.131C372.108 167.055 370.02 165.656 371.285 163.425C371.885 162.368 373.951 160.398 376.264 159.986C378.829 159.53 381.753 160.782 384.503 162.821V129.512C384.503 127.072 386.216 124.106 388.329 122.886C390.442 121.666 392.155 122.655 392.155 125.095V139.643C392.155 139.643 397.427 134.961 399.557 137.832C399.557 137.832 404.736 132.406 407.074 136.989C407.074 136.989 410.877 133.918 412.591 137.482C414.306 141.046 413.482 148.573 412.591 153.22C411.7 157.868 408.91 168.989 408.91 168.989V173.331L386.43 186.311Z" fill="#E75F62"/>
<path opacity="0.65" d="M386.43 186.311V181.969C386.43 181.969 384.67 181.38 382.242 179.115C379.814 176.85 377.462 173.179 374.797 170.131C372.108 167.055 370.02 165.656 371.285 163.425C371.885 162.368 373.951 160.398 376.264 159.986C378.829 159.53 381.753 160.782 384.503 162.821V129.512C384.503 127.072 386.216 124.106 388.329 122.886C390.442 121.666 392.155 122.655 392.155 125.095V139.643C392.155 139.643 397.427 134.961 399.557 137.832C399.557 137.832 404.736 132.406 407.074 136.989C407.074 136.989 410.877 133.918 412.591 137.482C414.306 141.046 413.482 148.573 412.591 153.22C411.7 157.868 408.91 168.989 408.91 168.989V173.331L386.43 186.311Z" fill="white"/>
<g opacity="0.1">
<path d="M392.155 145.89C392.155 145.89 392.635 139.252 395.074 137.673C395.073 137.673 395.039 137.683 394.987 137.698C393.435 138.508 392.155 139.643 392.155 139.643V139.518C392.128 139.601 392.155 139.643 392.155 139.643V145.89Z" fill="black"/>
<path d="M399.557 137.832V143.905C399.557 143.905 400.23 137.661 401.63 136.152C400.438 136.912 399.562 137.827 399.557 137.832Z" fill="black"/>
<path d="M407.075 136.989V143.084C407.075 143.084 407.446 136.944 408.768 136.038C407.806 136.4 407.079 136.986 407.075 136.989Z" fill="black"/>
</g>
<path opacity="0.15" d="M336.526 311.399C319.255 320.005 311.415 329.048 320.356 335.383C329.296 341.718 353.627 350.297 353.627 350.297L356.817 361.02L392.162 340.614V328.475C392.162 328.475 370.354 313.44 361.838 310.544C353.322 307.647 346.648 306.355 336.526 311.399Z" fill="black"/>
<path d="M385.263 366.131C385.263 366.131 379.925 379.215 379.653 384.376C379.37 389.754 378.07 391.535 378.981 397.385C379.18 398.659 379.849 401.213 380.016 402.247C380.165 403.168 379.819 403.909 378.634 404.154C376.3 404.638 372.424 400.254 370.58 395.484C368.736 390.714 366.122 379.954 365.959 378.665C365.802 377.423 366.216 375.877 366.698 374.9C367.544 373.186 367.77 372.951 367.77 372.951C368.542 370.61 368.913 366.159 369.563 363.08L385.263 366.131Z" fill="#FFA8A7"/>
<path d="M361.396 383.568C361.396 383.568 360.807 384.642 360.771 385.331C360.715 386.404 363.138 389.938 364.088 391.225C365.038 392.512 365.968 394.124 365.838 397.338C365.699 400.773 367.216 404.078 369.433 406.91C371.65 409.742 375.499 412.843 381.164 414.587C386.829 416.33 388.827 413.492 388.827 413.492C388.827 413.492 390.584 410.758 389.528 409.638C388.47 408.518 361.396 383.568 361.396 383.568Z" fill="#1D1D1D"/>
<path d="M367.771 372.952C367.599 372.946 367.294 372.897 366.85 373.432C366.682 373.634 365.648 376.182 364.791 377.52C363.873 378.952 361.684 381.397 361.396 383.569C362.707 387.769 366.647 390.691 367.239 394.656C367.83 398.621 367.897 403.223 373.991 408.076C380.085 412.928 386.35 413.43 388.602 412.145C390.854 410.861 390.648 408.448 387.509 403.853C384.177 398.976 381.933 388.409 381.932 388.405C381.621 386.943 381.46 385.4 381.343 383.911C381.229 382.464 381.65 380.918 381.763 379.463C381.816 378.775 381.843 378.035 381.479 377.448C381.114 376.862 380.439 376.559 379.803 376.289C378.787 375.858 377.76 375.423 376.673 375.228C375.586 375.033 374.419 375.095 373.447 375.619C372.744 375.997 372.169 376.599 371.432 376.905C370.443 377.314 369.226 377.097 368.44 376.37C367.282 375.299 367.453 374.335 367.63 373.62C367.609 373.599 367.771 372.952 367.771 372.952Z" fill="#3A3A3A"/>
<path d="M370.429 404.185C370.429 404.185 372.79 399.384 379.26 399.409C385.73 399.434 387.969 402.726 388.954 404.662C390.126 406.968 391.348 411.147 388.677 412.346C385.792 413.642 382.452 413.241 377.197 410.607C371.943 407.974 370.429 404.185 370.429 404.185Z" fill="#FAFAFA"/>
<path d="M371.608 384.695C371.791 384.782 372.01 384.788 372.198 384.692C373.198 384.183 378.486 383.076 381.566 385.934C381.965 385.614 381.884 385.029 381.373 384.205C377.768 381.916 372.763 382.938 371.556 383.554C371.24 383.715 371.128 384.101 371.305 384.414C371.377 384.542 371.484 384.636 371.608 384.695Z" fill="#FAFAFA"/>
<path d="M382.231 389.705C382.453 389.132 382.175 388.248 381.857 387.927C378.302 385.998 373.651 386.962 372.494 387.551C372.178 387.712 372.067 388.097 372.243 388.411C372.315 388.538 372.421 388.633 372.545 388.692C372.728 388.78 372.947 388.785 373.136 388.689C374.108 388.196 379.124 387.152 382.231 389.705Z" fill="#FAFAFA"/>
<path d="M384.87 398.448C384.898 397.657 384.615 396.872 384.043 396.106C380.452 393.941 375.562 394.941 374.372 395.548C374.056 395.709 373.944 396.095 374.121 396.408C374.193 396.535 374.299 396.63 374.423 396.689C374.606 396.776 374.825 396.782 375.013 396.686C376.069 396.149 381.899 394.95 384.87 398.448Z" fill="#FAFAFA"/>
<path d="M373.484 392.692C373.667 392.779 373.886 392.785 374.074 392.689C375.063 392.185 380.242 391.107 383.336 393.842C383.477 393.242 383.308 392.598 382.796 391.926C379.239 389.996 374.589 390.961 373.433 391.551C373.117 391.712 373.005 392.098 373.182 392.411C373.254 392.538 373.361 392.632 373.484 392.692Z" fill="#FAFAFA"/>
<path d="M391.013 382.199C391.013 382.199 393.659 398.158 396.601 404.35C399.543 410.542 401.055 413.532 405.108 418.217C405.991 419.237 408.001 421.133 408.722 421.958C409.365 422.693 409.469 423.542 408.554 424.416C406.751 426.14 399.11 426.549 394.828 423.338C390.546 420.128 386.646 413.29 384.093 410.706C383.133 409.735 382.23 408.743 381.371 407.689C380.543 406.673 380.77 405.708 380.696 404.571C380.66 404.021 380.74 402.52 380.74 402.52C380.155 399.833 378.569 395.616 377.727 392.997L391.013 382.199Z" fill="#FFA8A7"/>
<path d="M379.231 414.579C379.231 414.579 379.153 415.859 379.427 416.526C379.854 417.566 383.725 419.828 385.199 420.622C386.673 421.415 388.273 422.526 389.586 425.625C390.988 428.937 393.9 431.388 397.264 433.078C400.627 434.767 405.654 435.983 411.794 435.103C417.933 434.222 418.556 430.644 418.556 430.644C418.556 430.644 418.997 427.272 417.497 426.684C415.996 426.095 379.231 414.579 379.231 414.579Z" fill="#1D1D1D"/>
<path d="M380.521 401.686C380.355 401.757 380.045 401.846 379.864 402.551C379.795 402.818 379.955 405.69 379.741 407.339C379.512 409.103 378.533 412.395 379.23 414.579C382.347 417.967 387.381 418.973 389.712 422.461C392.043 425.949 394.162 430.274 402.096 432.144C410.03 434.014 416.182 431.69 417.74 429.468C419.297 427.247 418.024 425.056 413.002 422.11C407.671 418.983 400.827 409.987 400.824 409.983C399.877 408.738 399.035 407.35 398.259 405.993C397.504 404.674 397.213 403.023 396.67 401.596C396.413 400.921 396.108 400.209 395.501 399.817C394.894 399.425 394.119 399.44 393.397 399.469C392.243 399.515 391.077 399.563 389.962 399.864C388.847 400.165 387.77 400.745 387.084 401.675C386.588 402.347 386.313 403.173 385.751 403.792C384.998 404.621 383.749 404.959 382.681 404.622C381.107 404.126 380.838 403.138 380.686 402.381C380.658 402.37 380.521 401.686 380.521 401.686Z" fill="#3A3A3A"/>
<path d="M396.989 430.054C396.989 430.054 397.079 424.457 403.212 421.59C409.346 418.723 412.935 420.838 414.732 422.231C416.871 423.889 419.894 427.298 417.903 429.626C415.752 432.14 412.412 433.254 406.263 433.108C400.113 432.963 396.989 430.054 396.989 430.054Z" fill="#FAFAFA"/>
<path d="M389.398 411.084C389.61 411.085 389.82 410.993 389.955 410.817C390.674 409.888 395.183 406.479 399.375 407.808C399.609 407.327 399.271 406.809 398.42 406.258C393.986 405.702 389.706 408.905 388.84 410.026C388.613 410.32 388.679 410.735 388.987 410.952C389.111 411.042 389.254 411.084 389.398 411.084Z" fill="#FAFAFA"/>
<path d="M401.689 411.08C401.643 410.439 400.985 409.726 400.542 409.564C396.316 409.326 392.346 412.317 391.514 413.391C391.287 413.685 391.353 414.098 391.661 414.317C391.786 414.405 391.929 414.447 392.072 414.448C392.285 414.449 392.494 414.357 392.63 414.182C393.327 413.28 397.608 410.052 401.689 411.08Z" fill="#FAFAFA"/>
<path d="M408.091 418.174C407.764 417.413 407.145 416.796 406.262 416.328C401.897 415.883 397.716 419.014 396.861 420.12C396.634 420.414 396.7 420.829 397.008 421.046C397.133 421.134 397.276 421.176 397.42 421.177C397.632 421.178 397.842 421.086 397.978 420.91C398.735 419.93 403.717 416.191 408.091 418.174Z" fill="#FAFAFA"/>
<path d="M394.746 417.813C394.958 417.814 395.168 417.722 395.303 417.546C396.014 416.628 400.433 413.294 404.582 414.5C404.447 413.869 403.999 413.335 403.215 412.928C398.987 412.69 395.018 415.681 394.187 416.755C393.96 417.049 394.026 417.464 394.334 417.681C394.459 417.77 394.602 417.812 394.746 417.813Z" fill="#FAFAFA"/>
<path d="M355.802 291.319C362.345 296.115 385.132 309.269 394.385 317.834C397.058 320.308 397.938 323.565 397.28 330.664C396.388 340.298 388.817 373.13 388.817 373.13C387.775 374.984 385.94 371.467 385.94 371.467L349.832 325.625L355.802 291.319Z" fill="#E75F62"/>
<path opacity="0.3" d="M355.802 291.319C362.345 296.115 385.132 309.269 394.385 317.834C397.058 320.308 397.938 323.565 397.28 330.664C396.388 340.298 388.817 373.13 388.817 373.13C387.775 374.984 385.94 371.467 385.94 371.467L349.832 325.625L355.802 291.319Z" fill="black"/>
<path opacity="0.3" d="M387.25 362.907C378.895 355.926 351.907 313.344 351.907 313.344C351.907 313.344 351.914 313.337 351.921 313.331C355.596 310.226 357.492 299.46 357.492 299.46C358.949 303.614 357.41 309.878 356.279 312.168C358.404 314.007 370.412 323.882 378.753 330.485C380.845 332.141 382.984 334.186 383.701 337.954C385.419 346.986 387.447 361.08 387.25 362.907Z" fill="black"/>
<path d="M355.802 291.319L309.321 301.609C311.591 310.14 312.238 314.547 314.607 319.04C316.984 323.548 319.616 328.355 331.706 334.308C343.345 340.038 357.563 345.941 360.408 347.294C362.551 348.314 363.573 352.6 364.542 358.157C365.557 363.986 365.649 368.547 371.416 380.779C377.061 392.757 378.215 395.345 378.215 395.345C378.215 395.345 386.95 396.253 392.747 391.152C392.747 391.152 384.837 350.085 383.15 342.692C382.208 338.562 382.189 336.386 377.062 331.848C372.667 327.958 353.036 313.099 353.036 313.099C353.036 313.099 360.832 302.628 355.802 291.319Z" fill="#E75F62"/>
<path opacity="0.3" d="M355.802 291.319L309.321 301.609C311.591 310.14 312.238 314.547 314.607 319.04C316.984 323.548 319.616 328.355 331.706 334.308C343.345 340.038 357.563 345.941 360.408 347.294C362.551 348.314 363.573 352.6 364.542 358.157C365.557 363.986 365.649 368.547 371.416 380.779C377.061 392.757 378.215 395.345 378.215 395.345C378.215 395.345 386.95 396.253 392.747 391.152C392.747 391.152 384.837 350.085 383.15 342.692C382.208 338.562 382.189 336.386 377.062 331.848C372.667 327.958 353.036 313.099 353.036 313.099C353.036 313.099 360.832 302.628 355.802 291.319Z" fill="black"/>
<path d="M409.228 214.105C408.446 214.027 407.641 214.23 406.925 214.568C406.076 214.968 405.325 215.547 404.569 216.104C403.413 216.955 402.227 217.765 401.013 218.53C399.932 219.212 398.794 219.975 397.508 220.187C397.077 220.258 396.159 220.273 396.628 219.62C397.24 218.767 397.927 217.957 398.384 217.013C398.841 216.068 399.046 214.938 398.643 213.97C398.521 213.678 398.332 213.395 398.045 213.262C397.638 213.075 397.431 213.292 397.198 213.558C396.953 213.839 396.659 214.077 396.378 214.326C395.798 214.838 395.218 215.351 394.645 215.872C391.301 218.909 387.235 221.542 385.803 225.931C385.596 226.566 384.649 229.46 384.619 234.278C384.589 239.097 384.304 255.868 384.304 255.868C384.304 255.868 370.984 244.665 365.207 239.838C362.422 237.51 358.529 234.684 354.239 234.277C351.204 233.989 349.432 234.007 349.432 234.007L358.517 256.03C358.517 256.03 375.695 268.81 383.931 273.21C391.364 277.181 394.978 274.321 395.876 272.237C397.365 268.783 398.893 267.164 396.798 247.885C396.648 246.393 396.463 242.125 396.295 240.635C396.079 237.523 396.431 234.361 397.637 233.685C399.855 232.442 402.027 231.087 403.939 229.411C405.198 228.308 406.342 227.062 407.27 225.666C407.659 225.081 408.337 224.231 408.41 223.515C408.484 222.79 408.166 222.022 408.386 221.306C408.536 220.817 408.865 220.419 408.988 219.897C409.239 218.834 409.147 217.615 409.823 216.695C410.195 216.189 410.814 215.733 410.728 215.111C410.66 214.613 410.147 214.299 409.659 214.18C409.517 214.143 409.373 214.119 409.228 214.105Z" fill="#FFA8A7"/>
<path d="M395.64 222.47C395.266 225.069 393.411 228.316 392.167 229.406C392.167 229.406 394.244 228.227 395.119 226.413C396.079 224.427 395.97 223.417 395.64 222.47Z" fill="#F28F8F"/>
<path d="M348.515 233.559C353.152 233.761 356.765 233.864 360.718 236.146C364.671 238.428 382.325 253.206 382.325 253.206C382.325 253.206 382.499 245.683 382.951 241.719C383.264 238.972 383.719 238.108 384.577 238.245C384.577 238.245 386.108 240.593 390.445 240.918C394.783 241.243 396.241 239.443 396.241 239.443C396.241 239.443 397.506 239.145 397.961 240.918C398.416 242.691 399.234 261.909 398.443 267.447C397.651 272.985 395.17 275.558 391.844 276.337C388.518 277.117 380.808 272.455 371.55 266.229C362.291 260.002 352.237 254.198 352.237 254.198L348.515 233.559Z" fill="#E75F62"/>
<path opacity="0.7" d="M348.515 233.559C353.152 233.761 356.765 233.864 360.718 236.146C364.671 238.428 382.325 253.206 382.325 253.206C382.325 253.206 382.499 245.683 382.951 241.719C383.264 238.972 383.719 238.108 384.577 238.245C384.577 238.245 386.108 240.593 390.445 240.918C394.783 241.243 396.241 239.443 396.241 239.443C396.241 239.443 397.506 239.145 397.961 240.918C398.416 242.691 399.234 261.909 398.443 267.447C397.651 272.985 395.17 275.558 391.844 276.337C388.518 277.117 380.808 272.455 371.55 266.229C362.291 260.002 352.237 254.198 352.237 254.198L348.515 233.559Z" fill="white"/>
<path opacity="0.1" d="M382.325 253.206C381.572 258.364 382.706 263.995 382.706 263.995C382.706 263.995 379.32 257.453 380.364 251.464L382.325 253.206Z" fill="black"/>
<path d="M310.398 237.62C309.634 241.671 301.937 280.169 310.691 308.877C326.455 310.736 354.141 303.499 358.292 293.066C358.292 293.066 355.495 283.166 354.282 278.325C354.539 270.382 354.28 255.225 354.119 250.535C353.801 241.241 352.35 234.052 347.739 233.373C347.739 233.373 338.48 233.007 332.877 233.236C328.037 233.434 324.4 233.486 324.4 233.486L310.398 237.62Z" fill="#FAFAFA"/>
<path d="M333.553 298.811C332.535 296.552 313.823 284.999 313.823 284.999C313.823 284.999 314.108 279.648 315.222 269.801C316.337 259.954 316.665 248.153 313.117 242.222L309.538 242.362C307.515 254.306 303.402 284.975 310.69 308.877C319.095 309.868 330.887 308.273 340.696 304.987C338.888 303.773 334.364 300.611 333.553 298.811Z" fill="#F0F0F0"/>
<path d="M322.778 224.45C322.809 222.459 318.991 216.507 317.263 211.801C314.373 203.93 314.12 196.865 321.253 193.797C321.253 193.797 325.713 186.107 336.956 185.724C348.199 185.341 356.841 194.832 353.107 207.52L322.778 224.45Z" fill="#3A3A3A"/>
<path d="M325.557 212.291C324.089 212.29 323.555 210.183 322.547 209.051C321.54 207.92 318.066 206.646 315.829 209.885C313.752 212.893 315.77 217.226 318.038 218.903C320.893 221.015 322.862 218.977 322.862 218.977L322.603 234.867C322.603 234.867 323.109 238.39 329.599 240.435C337.095 242.797 343.196 238.85 338.731 233.905L338.897 229.718C341.026 230.199 343.935 230.458 346.144 230.122C348.644 229.742 350.647 227.859 351.932 224.004C354.44 216.479 353.744 206.443 351.154 197.281C348.681 199.237 337.235 202.905 326.926 199.269C327.294 205.598 326.991 212.291 325.557 212.291Z" fill="#FFA8A7"/>
<path d="M321.483 217.196C321.483 217.71 321.066 218.126 320.553 218.126C320.039 218.126 319.623 217.71 319.623 217.196C319.623 216.682 320.04 216.266 320.553 216.266C321.067 216.266 321.483 216.682 321.483 217.196Z" fill="#1D1D1D"/>
<path d="M338.899 229.719C338.899 229.719 332.643 227.893 330.176 226.162C328.355 224.885 326.732 222.852 326.339 221.785C326.339 221.785 327.276 225.139 328.982 227.078C331.968 230.471 338.817 232.038 338.817 232.038L338.899 229.719Z" fill="#F28F8F"/>
<path d="M338.396 212.205C338.412 213.098 337.729 213.834 336.869 213.848C336.009 213.862 335.298 213.149 335.282 212.255C335.265 211.361 335.949 210.626 336.809 210.612C337.668 210.599 338.379 211.312 338.396 212.205Z" fill="#1D1D1D"/>
<path d="M336.694 206.894L333.328 208.668C332.855 207.702 333.226 206.521 334.155 206.031C335.085 205.542 336.222 205.928 336.694 206.894Z" fill="#1D1D1D"/>
<path d="M337.907 220.39L343.262 222.097C342.734 223.596 341.107 224.429 339.629 223.957C338.149 223.486 337.379 221.889 337.907 220.39Z" fill="#F28F8F"/>
<path d="M351.105 206.827L347.407 205.814C347.65 204.774 348.676 204.158 349.697 204.438C350.718 204.717 351.348 205.787 351.105 206.827Z" fill="#1D1D1D"/>
<path d="M350.148 210.977C350.165 211.87 349.481 212.606 348.621 212.619C347.761 212.632 347.05 211.92 347.034 211.026C347.017 210.133 347.701 209.397 348.561 209.383C349.421 209.37 350.131 210.083 350.148 210.977Z" fill="#1D1D1D"/>
<path d="M351.871 197.282C355.328 194.818 357.251 191.524 356.333 186.988C354.985 188.343 351.204 188.585 347.895 187.007C344.367 185.323 338.77 183.038 330.938 184.554C324.83 185.736 321.253 190.381 321.253 193.797C322.448 196.242 324.092 197.544 326.929 199.27C326.929 199.27 332.786 204.062 341.669 203.513C347.383 203.16 350.348 200.373 350.348 200.373C350.348 200.373 347.155 200.654 345.661 199.662C345.661 199.662 349.287 199.123 351.871 197.282Z" fill="#37474F"/>
<path d="M343.451 218.405L348.22 216.229L342.126 207.826L343.451 218.405Z" fill="#F28F8F"/>
<path opacity="0.15" d="M395.834 319.535C395.428 318.915 394.949 318.355 394.385 317.834C388.827 312.689 378.388 305.89 369.517 300.24L329.161 323.543C328.914 323.686 328.914 324.043 329.161 324.185L358.469 341.109L395.834 319.535Z" fill="black"/>
<path d="M408.07 307.686V308.338C408.07 309.294 407.561 310.179 406.73 310.661L359.808 337.75C359.397 337.991 358.928 338.105 358.473 338.105C358.008 338.105 357.544 337.989 357.124 337.748L331.548 323.03C330.726 322.556 330.211 321.663 330.211 320.707V319.804H330.217V319.813C330.217 319.929 330.271 320.036 330.387 320.108L358.474 336.328L408.07 307.686Z" fill="#37474F"/>
<path d="M358.47 336.323V338.108C358.931 338.108 359.395 337.991 359.809 337.751L406.731 310.662C407.562 310.183 408.074 309.295 408.074 308.337V307.684L358.47 336.323Z" fill="#1D1D1D"/>
<path d="M408.074 307.684L380.253 291.623C379.758 291.338 379.149 291.338 378.654 291.623L330.388 319.493C330.151 319.63 330.151 319.972 330.388 320.109L358.47 336.325L408.074 307.684Z" fill="#3A3A3A"/>
<path d="M358.214 333.962L343.208 325.308L387.086 299.975L402.169 308.585L358.214 333.962Z" fill="#37474F"/>
<path d="M402.169 308.584L401.596 308.914L387.084 300.634L343.783 325.639L343.211 325.309L387.084 299.974L402.169 308.584Z" fill="#1D1D1D"/>
<path d="M350.839 309.887L351.116 310.047L358.47 314.292L371.55 306.741L371.822 306.585L364.19 302.18L350.839 309.887Z" fill="#1D1D1D"/>
<path d="M351.116 310.047L358.47 314.292L371.55 306.741L364.19 302.495L351.116 310.047Z" fill="#37474F"/>
<path d="M365.073 315.143C362.968 313.056 359.916 310.163 357.351 309.313C357.02 309.207 356.522 308.975 355.548 308.752C356.432 308.578 357.321 308.516 358.184 308.225C359.04 307.937 359.857 307.463 360.411 306.749C360.634 306.462 360.791 306.003 360.51 305.773C360.408 305.69 360.276 305.643 360.145 305.639C358.223 305.581 356.708 305.282 354.963 305.156C354.201 305.101 353.344 304.999 352.609 305.199C351.893 305.394 351.179 305.602 350.477 305.845C347.289 306.948 344.382 307.941 339.868 306.889L331.746 302.556C331.746 302.556 330.011 302.122 327.453 306.453C324.895 310.784 326.39 313.162 326.39 313.162L335.513 316.312V316.311C335.558 316.328 335.598 316.344 335.645 316.362C336.649 316.738 337.552 317.522 339.95 318.258C342.793 319.13 346.43 318.098 348.9 317.967C351.37 317.835 355.557 318.977 357.848 319.907C360.139 320.837 362.89 317.308 364.039 317.733C365.188 318.158 367.178 317.229 365.073 315.143Z" fill="#FFA8A7"/>
<path d="M354.484 307.393C352.82 307.224 350.987 307.959 350.987 307.959C350.987 307.959 353.041 308.002 355.548 308.753C356.432 308.579 357.321 308.517 358.184 308.226C358.94 307.971 359.665 307.572 360.205 306.99C358.823 307.929 356.146 307.562 354.484 307.393Z" fill="#F28F8F"/>
<path d="M310.398 237.62C312.709 238.533 315.716 248.167 313.864 257.437L309.562 286.423C309.562 286.423 314.832 289.543 322.227 294.123C327.352 297.297 331.745 300.207 331.747 302.558C328.391 303.764 325.375 309.943 326.391 313.164C324.099 315.88 302.941 304.151 295.543 299.091C292.113 296.745 290.384 295.82 291.704 285.23C293.164 273.509 294.165 260.488 296.449 251.799C298.83 242.728 301.483 239.207 310.398 237.62Z" fill="#E75F62"/>
<path opacity="0.7" d="M310.398 237.62C312.709 238.533 315.716 248.167 313.864 257.437L309.562 286.423C309.562 286.423 314.832 289.543 322.227 294.123C327.352 297.297 331.745 300.207 331.747 302.558C328.391 303.764 325.375 309.943 326.391 313.164C324.099 315.88 302.941 304.151 295.543 299.091C292.113 296.745 290.384 295.82 291.704 285.23C293.164 273.509 294.165 260.488 296.449 251.799C298.83 242.728 301.483 239.207 310.398 237.62Z" fill="white"/>
<path d="M359.226 336.719C360.114 337.062 361.123 336.996 361.964 336.508L408.679 309.537C409.501 309.063 410.065 308.25 410.224 307.316L415.339 276.817C415.367 276.643 415.381 276.469 415.381 276.296C415.381 275.446 415.043 274.633 414.442 274.037L365.895 302.07C365.289 302.422 364.871 303.023 364.754 303.714L359.226 336.719Z" fill="#37474F"/>
<path d="M358.47 336.325L358.79 336.508C358.931 336.588 359.076 336.658 359.226 336.719L364.754 303.712C364.871 303.022 365.289 302.42 365.895 302.068L414.442 274.035C414.254 273.847 414.033 273.683 413.794 273.542L365.148 301.627C364.542 301.979 364.124 302.58 364.007 303.271L358.47 336.325Z" fill="#3A3A3A"/>
<path d="M365.205 302.691L364.452 302.256C364.229 302.553 364.071 302.896 364.007 303.271L358.47 336.325L358.789 336.508C358.93 336.588 359.075 336.658 359.226 336.719L364.754 303.712C364.818 303.335 364.979 302.989 365.205 302.691Z" fill="#1D1D1D"/>
<path d="M385.537 308.565C385.88 306.523 387.988 303.811 390.246 302.507C392.504 301.204 394.057 301.802 393.715 303.844C393.372 305.886 391.264 308.598 389.006 309.902C386.747 311.205 385.194 310.607 385.537 308.565Z" fill="#E75F62"/>
</svg>
