<svg width="250" height="45" viewBox="0 0 250 45" fill="none" xmlns="http://www.w3.org/2000/svg">
<g clip-path="url(#clip0_1_3)">
<path d="M61.3951 14.7902H64.5105C65.2972 14.7902 65.5804 15.0419 65.5804 15.8601V32.507C65.5804 33.2937 65.3287 33.5769 64.5105 33.5769H61.3951C60.6084 33.5769 60.3252 33.3252 60.3252 32.507V15.8601C60.3567 15.0419 60.6084 14.7902 61.3951 14.7902Z" fill="#3A3A3A"/>
<path d="M83.4546 21.3671C83.4546 25.5524 80.8112 27.8811 76.7203 27.8811H73.479V32.3811C73.479 33.1678 73.2273 33.4825 72.3776 33.4825H69.4196C68.5699 33.4825 68.3182 33.2308 68.3182 32.3811V15.8916C68.3182 15.1049 68.5699 14.7902 69.4196 14.7902H76.6888C80.7483 14.7902 83.4546 17.1818 83.4546 21.3671ZM78.042 21.3671C78.042 20.2028 77.2867 19.4161 76.0909 19.4161H73.479V23.2867H76.0909C77.3182 23.2552 78.042 22.5315 78.042 21.3671Z" fill="#3A3A3A"/>
<path d="M124.584 15.8916V18.2832C124.584 19.1329 124.332 19.3846 123.483 19.3846H116.528V21.7133H122.098C122.948 21.7133 123.199 21.965 123.199 22.8147V25.2063C123.199 26.0559 122.948 26.3077 122.098 26.3077H116.528V28.8566H123.734C124.521 28.8566 124.836 29.1084 124.836 29.958V32.3496C124.836 33.1364 124.584 33.451 123.734 33.451H112.437C111.587 33.451 111.336 33.1993 111.336 32.3496V15.8601C111.336 15.0734 111.587 14.7587 112.437 14.7587H123.514C124.332 14.7902 124.584 15.0419 124.584 15.8916Z" fill="#3A3A3A"/>
<path d="M142.458 22.1538V26.1189C142.458 30.6818 139.532 33.4825 134.339 33.4825H127.92C127.07 33.4825 126.818 33.2308 126.818 32.3811V15.8916C126.818 15.1049 127.07 14.7902 127.92 14.7902H134.339C139.563 14.7902 142.458 17.5909 142.458 22.1538ZM134.182 19.3846H132.011V28.8881H134.182C136.29 28.8881 137.266 27.944 137.266 26.0245V22.2168C137.203 20.3601 136.322 19.3846 134.182 19.3846Z" fill="#3A3A3A"/>
<path d="M145.699 14.7902H148.815C149.601 14.7902 149.885 15.0419 149.885 15.8601V32.507C149.885 33.2937 149.633 33.5769 148.815 33.5769H145.699C144.913 33.5769 144.629 33.3252 144.629 32.507V15.8601C144.629 15.0419 144.913 14.7902 145.699 14.7902Z" fill="#3A3A3A"/>
<path d="M190.007 21.1468C190.007 23.7587 188.937 25.6154 187.143 26.6224C187.395 26.9371 187.615 27.3147 187.836 27.7238L190.227 32.2238C190.605 32.9161 190.385 33.4825 189.535 33.4825H186.671C185.287 33.4825 184.657 33.1678 184.248 32.2238L182.549 28.6049C182.14 27.6923 181.636 27.2832 180.598 27.2832H180V32.4126C180 33.1993 179.748 33.514 178.899 33.514H175.941C175.091 33.514 174.839 33.2622 174.839 32.4126V15.8601C174.839 15.0734 175.091 14.7587 175.941 14.7587H183.524C187.49 14.7902 190.007 17.0559 190.007 21.1468ZM182.927 19.3846H180.063V22.8776H182.927C184.028 22.8776 184.689 22.1853 184.689 21.1154C184.626 20.0454 184.028 19.3846 182.927 19.3846Z" fill="#3A3A3A"/>
<path d="M193.311 14.7902H196.427C197.213 14.7902 197.497 15.0419 197.497 15.8601V32.507C197.497 33.2937 197.245 33.5769 196.427 33.5769H193.311C192.524 33.5769 192.241 33.3252 192.241 32.507V15.8601C192.241 15.0419 192.524 14.7902 193.311 14.7902Z" fill="#3A3A3A"/>
<path d="M231.482 15.8916V18.2832C231.482 19.1329 231.231 19.3846 230.381 19.3846H223.427V21.7133H228.996C229.846 21.7133 230.098 21.965 230.098 22.8147V25.2063C230.098 26.0559 229.846 26.3077 228.996 26.3077H223.427V28.8566H230.633C231.42 28.8566 231.734 29.1084 231.734 29.958V32.3496C231.734 33.1364 231.483 33.451 230.633 33.451H219.336C218.486 33.451 218.234 33.1993 218.234 32.3496V15.8601C218.234 15.0734 218.486 14.7587 219.336 14.7587H230.413C231.231 14.7902 231.482 15.0419 231.482 15.8916Z" fill="#3A3A3A"/>
<path d="M248.916 21.1468C248.916 23.7587 247.846 25.6154 246.053 26.6224C246.304 26.9371 246.525 27.3147 246.745 27.7238L249.136 32.2238C249.514 32.9161 249.294 33.4825 248.444 33.4825H245.58C244.196 33.4825 243.566 33.1678 243.157 32.2238L241.458 28.6049C241.049 27.6923 240.545 27.2832 239.507 27.2832H238.909V32.4126C238.909 33.1993 238.657 33.514 237.808 33.514H234.818C233.969 33.514 233.717 33.2622 233.717 32.4126V15.8601C233.717 15.0734 233.969 14.7587 234.818 14.7587H242.339C246.336 14.7902 248.916 17.0559 248.916 21.1468ZM241.773 19.3846H238.909V22.8776H241.773C242.874 22.8776 243.535 22.1853 243.535 21.1154C243.472 20.0454 242.874 19.3846 241.773 19.3846Z" fill="#3A3A3A"/>
<path d="M107.465 14.6643H104.822C103.909 14.6643 103.72 14.8217 103.343 15.514L99 24.042L94.6574 15.514C94.2797 14.8846 94.028 14.7273 93.1154 14.7273H90.6294C89.7797 14.7273 89.528 14.979 89.528 15.8287V32.4755C89.528 33.2622 89.7797 33.5455 90.6294 33.5455H93.3357C94.1853 33.5455 94.4371 33.2937 94.4371 32.4755V30.9336V28.7308V23.8217C94.7518 24.7028 95.1294 25.6154 95.3811 26.1189L96.9231 29.0769C97.2378 29.6748 97.521 29.8322 98.1818 29.8322H99.9441C100.699 29.8322 100.951 29.6119 101.203 29.0769L102.682 26.1189C102.902 25.6469 103.217 24.9231 103.531 24.1678V28.6678V31.3427V32.4441C103.531 33.2308 103.783 33.514 104.633 33.514H107.497C108.346 33.514 108.598 33.2622 108.598 32.4441V15.8601C108.629 14.979 108.315 14.7273 107.465 14.6643Z" fill="#3A3A3A"/>
<path d="M169.332 32.444L163.227 15.6398C162.976 14.9475 162.598 14.7902 161.843 14.7902H158.822C158.035 14.7902 157.72 14.9475 157.437 15.7028L151.427 32.444C151.175 33.1363 151.332 33.514 152.119 33.514H154.888C156.21 33.514 156.524 33.1993 156.808 32.4126L157.406 30.493H163.133L163.731 32.4126C163.951 33.2622 164.329 33.514 165.682 33.514H168.545C169.301 33.4825 169.552 33.1363 169.332 32.444ZM158.79 26.3391L160.364 19.5419L162.094 26.3391H158.79Z" fill="#3A3A3A"/>
<path d="M216.252 14.7902H213.231C211.909 14.7902 211.469 15.0419 211.28 15.8916L209.895 20.8636L208.92 24.6398L207.976 28.2902L207.032 24.6398L206.056 20.8636L204.671 15.8916C204.451 15.0419 204.042 14.7902 202.72 14.7902H199.699C198.944 14.7902 198.692 15.1678 198.944 15.8601L204.766 32.6643C205.018 33.3566 205.395 33.514 206.15 33.514H207.944H209.738C210.493 33.514 210.839 33.3566 211.122 32.6643L216.944 15.8601C217.259 15.1678 217.007 14.7902 216.252 14.7902Z" fill="#3A3A3A"/>
<path d="M24.8285 23.79C29.6432 21.5558 38.36 21.5243 43.9299 19.29C49.4054 17.0558 29.6117 13.8774 23.0033 13.4054C23.0033 13.4054 36.8495 12.9334 46.6991 13.9404C46.3215 13.1851 45.7551 12.6187 44.9369 12.304L16.8355 0.283044C15.0732 -0.4722 13.0593 0.345981 12.3355 2.07675L0.283029 30.1467C-0.472216 31.9089 0.345966 33.9229 2.07674 34.6467L13.3739 39.4614C11.8949 24.5768 8.33897 17.4649 7.17464 15.3879L7.33198 14.9788C14.2236 17.9054 18.2516 31.783 21.6502 42.9858L26.3704 44.9998C23.5068 35.9369 21.1152 25.4893 24.8285 23.79Z" fill="#E75F62"/>
<path d="M36.7552 40.1224L43.9615 23.3182C41.0349 23.9161 38.3916 24.3252 37.0699 24.7343C32.6014 26.2447 33.9545 32.4755 36.7552 40.1224Z" fill="#E75F62"/>
</g>
<defs>
<clipPath id="clip0_1_3">
<rect width="249.294" height="45" fill="white"/>
</clipPath>
</defs>
</svg>
