<svg width="61" height="60" viewBox="0 0 61 60" fill="none" xmlns="http://www.w3.org/2000/svg">
<g clip-path="url(#clip0_11_122)">
<path d="M59.48 41.3V48.8H35.41H25.29H1.32001V41.3H59.48Z" fill="#57606F"/>
<path d="M59.49 1.30005H1.32001V41.3H59.49V1.30005Z" fill="#ECF0F1"/>
<path d="M55.64 32.5H53.11V35H55.64V32.5Z" fill="black"/>
<path d="M55.64 22.5H53.11V25H55.64V22.5Z" fill="black"/>
<path d="M50.58 32.5H48.05V35H50.58V32.5Z" fill="black"/>
<path d="M50.58 22.5H48.05V25H50.58V22.5Z" fill="black"/>
<path d="M48.05 27.5H45.52V30H48.05V27.5Z" fill="black"/>
<path d="M45.52 32.5H42.99V35H45.52V32.5Z" fill="black"/>
<path d="M45.52 22.5H42.99V25H45.52V22.5Z" fill="black"/>
<path d="M42.99 27.5H40.46V30H42.99V27.5Z" fill="black"/>
<path d="M40.46 32.5H37.93V35H40.46V32.5Z" fill="black"/>
<path d="M40.46 22.5H37.93V25H40.46V22.5Z" fill="black"/>
<path d="M37.94 27.5H35.41V30H37.94V27.5Z" fill="black"/>
<path d="M35.41 32.5H32.88V35H35.41V32.5Z" fill="black"/>
<path d="M35.41 22.5H32.88V25H35.41V22.5Z" fill="black"/>
<path d="M32.88 27.5H30.35V30H32.88V27.5Z" fill="black"/>
<path d="M27.82 27.5H25.29V30H27.82V27.5Z" fill="black"/>
<path d="M59.48 50H1.32C0.61 50 0 49.4 0 48.7V1.3C0 0.6 0.61 0 1.32 0H59.49C60.2 0 60.81 0.6 60.81 1.3V48.8C60.71 49.4 60.1 50 59.49 50H59.48ZM2.53 47.5H58.17V2.5H2.53V47.5Z" fill="black"/>
<path d="M59.48 42.4999H1.32C0.61 42.4999 0 41.8999 0 41.1999C0 40.4999 0.61 39.8999 1.32 39.8999H59.49C60.2 39.8999 60.81 40.4999 60.81 41.1999C60.81 41.8999 60.1 42.4999 59.49 42.4999H59.48Z" fill="black"/>
<path d="M40.46 59.9999H20.23C19.52 59.9999 18.92 59.3999 18.92 58.6999C18.92 57.9999 19.53 57.3999 20.23 57.3999H40.46C41.17 57.3999 41.77 57.9999 41.77 58.6999C41.77 59.3999 41.16 59.9999 40.46 59.9999Z" fill="black"/>
<path d="M25.29 59.9999C24.58 59.9999 23.97 59.3999 23.97 58.6999V48.6999C23.97 47.9999 24.58 47.3999 25.29 47.3999C26 47.3999 26.6 47.9999 26.6 48.6999V58.6999C26.6 59.3999 25.99 59.9999 25.29 59.9999Z" fill="black"/>
<path d="M35.41 59.9999C34.7 59.9999 34.1 59.3999 34.1 58.6999V48.6999C34.1 47.9999 34.71 47.3999 35.41 47.3999C36.11 47.3999 36.72 47.9999 36.72 48.6999V58.6999C36.72 59.3999 36.11 59.9999 35.41 59.9999Z" fill="black"/>
<path d="M54.42 7.4999H6.37C5.66 7.4999 5.06 6.8999 5.06 6.1999C5.06 5.4999 5.67 4.8999 6.37 4.8999H54.42C55.13 4.8999 55.73 5.4999 55.73 6.1999C55.63 6.8999 55.02 7.4999 54.42 7.4999Z" fill="black"/>
<path d="M42.39 12.4999H6.37C5.66 12.4999 5.06 11.8999 5.06 11.1999C5.06 10.4999 5.67 9.8999 6.37 9.8999H42.38C43.09 9.8999 43.69 10.4999 43.69 11.1999C43.59 11.8999 43.08 12.4999 42.38 12.4999H42.39Z" fill="black"/>
<path d="M6.37 37.5001C5.66 37.5001 5.06 36.9001 5.06 36.2001V27.4001C5.06 26.7001 5.67 26.1001 6.37 26.1001C7.07 26.1001 7.69 26.7001 7.69 27.4001V36.2001C7.59 36.9001 6.98 37.5001 6.37 37.5001Z" fill="black"/>
<path d="M11.43 37.5C10.72 37.5 10.12 36.9 10.12 36.2V23.8C10.12 23.1 10.73 22.5 11.43 22.5C12.13 22.5 12.74 23.1 12.74 23.8V36.3C12.64 36.9 12.03 37.5 11.43 37.5Z" fill="black"/>
<path d="M16.49 37.5C15.78 37.5 15.17 36.9 15.17 36.2V20C15.17 19.3 15.78 18.7 16.49 18.7C17.2 18.7 17.8 19.3 17.8 20V36.2999C17.7 36.9 17.09 37.5 16.49 37.5Z" fill="black"/>
<path d="M21.55 37.4999C20.84 37.4999 20.24 36.8999 20.24 36.1999V16.1999C20.24 15.4999 20.85 14.8999 21.55 14.8999C22.25 14.8999 22.87 15.4999 22.87 16.1999V36.1999C22.77 36.8999 22.16 37.4999 21.55 37.4999Z" fill="black"/>
</g>
<defs>
<clipPath id="clip0_11_122">
<rect width="60.8" height="60" fill="white"/>
</clipPath>
</defs>
</svg>
