<svg width="61" height="61" viewBox="0 0 61 61" fill="none" xmlns="http://www.w3.org/2000/svg">
<g clip-path="url(#clip0_11_103)">
<path d="M59.48 1.3999H36.72V11.3999H59.48V1.3999Z" fill="#596984"/>
<path d="M36.73 1.3999H1.32001V11.3999H36.73V1.3999Z" fill="#74829C"/>
<path d="M59.48 11.3999V58.8999H1.32001V11.3999H36.72H59.48Z" fill="#ECF0F1"/>
<path d="M53.11 5.1001C53.82 5.1001 54.43 5.7001 54.43 6.4001C54.43 7.1001 53.82 7.7001 53.11 7.7001C52.4 7.7001 51.8 7.1001 51.8 6.4001C51.9 5.7001 52.41 5.1001 53.11 5.1001Z" fill="black"/>
<path d="M48.05 5.1001C48.76 5.1001 49.36 5.7001 49.36 6.4001C49.36 7.1001 48.75 7.7001 48.05 7.7001C47.35 7.7001 46.74 7.1001 46.74 6.4001C46.84 5.7001 47.35 5.1001 48.05 5.1001Z" fill="black"/>
<path d="M42.99 5.1001C43.7 5.1001 44.3 5.7001 44.3 6.4001C44.3 7.1001 43.69 7.7001 42.99 7.7001C42.29 7.7001 41.68 7.1001 41.68 6.4001C41.78 5.7001 42.29 5.1001 42.99 5.1001Z" fill="black"/>
<path d="M59.48 60.1001H1.32C0.61 60.1001 0 59.5001 0 58.8001V1.4001C0 0.700098 0.61 0.100098 1.32 0.100098H59.49C60.2 0.100098 60.81 0.700098 60.81 1.4001V58.9001C60.71 59.5001 60.1 60.1001 59.49 60.1001H59.48ZM2.53 57.6001H58.17V2.6001H2.53V57.6001Z" fill="black"/>
<path d="M59.48 12.6H1.32C0.61 12.6 0 12 0 11.3C0 10.6 0.61 10 1.32 10H59.49C60.2 10 60.81 10.6 60.81 11.3C60.71 12 60.1 12.6 59.49 12.6H59.48Z" fill="black"/>
<path d="M36.72 12.6C36.01 12.6 35.41 12 35.41 11.3V1.3C35.41 0.6 36.02 0 36.72 0C37.42 0 38.04 0.6 38.04 1.3V11.3C37.94 12 37.33 12.6 36.72 12.6Z" fill="black"/>
<path d="M7.59003 25.1C6.88003 25.1 6.28003 24.5 6.28003 23.8V16.3C6.28003 15.6 6.89003 15 7.59003 15H16.49C17.2 15 17.8 15.6 17.8 16.3C17.8 17 17.19 17.6 16.49 17.6H8.90003V23.9C8.90003 24.5 8.29003 25.1 7.58003 25.1H7.59003Z" fill="black"/>
<path d="M51.89 43.9001H8.90002C8.19002 43.9001 7.58002 43.3 7.58002 42.6C7.58002 41.9 8.19002 41.3 8.90002 41.3H51.89C52.6 41.3 53.21 41.9 53.21 42.6C53.21 43.3 52.5 43.9001 51.89 43.9001Z" fill="black"/>
<path d="M51.89 48.9001H8.90002C8.19002 48.9001 7.58002 48.3 7.58002 47.6C7.58002 46.9 8.19002 46.3 8.90002 46.3H51.89C52.6 46.3 53.21 46.9 53.21 47.6C53.11 48.3 52.5 48.9001 51.89 48.9001Z" fill="black"/>
<path d="M51.89 53.9001H8.90002C8.19002 53.9001 7.58002 53.3 7.58002 52.6C7.58002 51.9 8.19002 51.3 8.90002 51.3H51.89C52.6 51.3 53.21 51.9 53.21 52.6C53.11 53.3 52.5 53.9001 51.89 53.9001Z" fill="black"/>
<path d="M20.23 36.4C20.03 36.4 19.72 36.3 19.52 36.2L9.39998 29.9C8.99998 29.7 8.78998 29.3 8.78998 28.8C8.78998 28.3 8.98998 28 9.39998 27.7L19.52 21.4C20.13 21 20.94 21.2 21.24 21.8C21.64 22.4 21.44 23.2 20.84 23.5L12.44 28.7L20.84 33.9C21.45 34.3 21.65 35 21.24 35.6C21.04 36.1 20.63 36.4 20.23 36.4Z" fill="black"/>
<path d="M40.46 36.4C40.06 36.4 39.65 36.1999 39.35 35.7999C38.95 35.1999 39.15 34.3999 39.75 34.0999L48.15 28.8999L39.75 23.6999C39.14 23.3 38.94 22.5999 39.35 21.9999C39.75 21.3999 40.46 21.1999 41.07 21.5999L51.19 27.8999C51.59 28.0999 51.8 28.4999 51.8 28.9999C51.8 29.4999 51.6 29.7999 51.19 30.0999L41.07 36.4C40.97 36.3 40.67 36.4 40.46 36.4Z" fill="black"/>
<path d="M25.29 38.9001C25.09 38.9001 24.78 38.8001 24.58 38.7001C23.97 38.3001 23.87 37.6001 24.18 37.0001L35.51 19.5001C35.91 18.9001 36.62 18.8001 37.23 19.1001C37.84 19.5001 37.94 20.2001 37.63 20.8001L26.4 38.3001C26.1 38.6001 25.69 38.9001 25.29 38.9001Z" fill="black"/>
</g>
<defs>
<clipPath id="clip0_11_103">
<rect width="60.8" height="60.1" fill="white"/>
</clipPath>
</defs>
</svg>
