<svg width="61" height="60" viewBox="0 0 61 60" fill="none" xmlns="http://www.w3.org/2000/svg">
<g clip-path="url(#clip0_11_153)">
<path d="M40.46 53.8C41.88 53.8 42.99 54.9 42.99 56.3C42.99 57 42.69 57.6 42.28 58.1C41.88 58.6 41.17 58.8 40.46 58.8H20.23C18.81 58.8 17.7 57.7 17.7 56.3C17.7 55.6 18 55 18.41 54.5C18.92 54 19.52 53.8 20.23 53.8H40.46Z" fill="#57606F"/>
<path d="M59.48 41.3V48.8H35.41H25.29H1.31V41.3H59.48Z" fill="#57606F"/>
<path d="M59.48 1.30005H1.31V41.3H59.48V1.30005Z" fill="#ECF0F1"/>
<path d="M45.42 11.5C46.73 11.5 47.75 12.5 47.75 13.8C47.75 15.1 46.74 16.1 45.42 16.1C44.1 16.1 43.09 15.1 43.09 13.8C43.09 12.5 44.2 11.5 45.42 11.5Z" fill="#74829C"/>
<path d="M49.37 26.7V31.2999H44.71V26.7H46.84H49.37Z" fill="#74829C"/>
<path d="M33.89 13.9V16H29.34V13.9V13.8V11.5H33.89V13.8V13.9Z" fill="#74829C"/>
<path d="M17.8 11.5C19.11 11.5 20.13 12.5 20.13 13.8C20.13 15.1 19.12 16.1 17.8 16.1C16.48 16.1 15.47 15.1 15.47 13.8C15.47 12.5 16.48 11.5 17.8 11.5Z" fill="#74829C"/>
<path d="M18.51 26.7V31.2999H13.96V26.7H16.39H18.51Z" fill="#74829C"/>
<path d="M59.48 50H1.31C0.6 50 0 49.4 0 48.7V1.3C0 0.6 0.61 0 1.31 0H59.48C60.19 0 60.79 0.6 60.79 1.3V48.8C60.69 49.4 60.08 50 59.48 50ZM2.53 47.5H58.17V2.5H2.53V47.5Z" fill="black"/>
<path d="M59.48 42.4999H1.31C0.6 42.4999 0 41.8999 0 41.1999C0 40.4999 0.61 39.8999 1.31 39.8999H59.48C60.19 39.8999 60.79 40.4999 60.79 41.1999C60.79 41.8999 60.08 42.4999 59.48 42.4999Z" fill="black"/>
<path d="M40.46 59.9999H20.23C18.11 59.9999 16.39 58.2999 16.39 56.1999C16.39 55.1999 16.79 54.2999 17.5 53.4999C18.21 52.7999 19.22 52.3999 20.23 52.3999H40.46C42.58 52.3999 44.3 54.0999 44.3 56.1999C44.3 57.1999 43.9 58.0999 43.19 58.8999C42.38 59.5999 41.47 59.9999 40.46 59.9999ZM20.23 54.9999C19.93 54.9999 19.62 55.0999 19.32 55.3999C19.12 55.5999 18.92 55.9999 18.92 56.2999C18.92 56.9999 19.53 57.5999 20.24 57.5999H40.47C40.77 57.5999 41.08 57.4999 41.38 57.1999C41.58 56.9999 41.78 56.6999 41.78 56.2999C41.78 55.5999 41.17 54.9999 40.47 54.9999H20.24H20.23Z" fill="black"/>
<path d="M25.29 54.9999C24.58 54.9999 23.98 54.3999 23.98 53.6999V48.6999C23.98 47.9999 24.59 47.3999 25.29 47.3999C25.99 47.3999 26.6 47.9999 26.6 48.6999V53.6999C26.6 54.3999 25.99 54.9999 25.29 54.9999Z" fill="black"/>
<path d="M35.41 54.9999C34.7 54.9999 34.1 54.3999 34.1 53.6999V48.6999C34.1 47.9999 34.71 47.3999 35.41 47.3999C36.11 47.3999 36.73 47.9999 36.73 48.6999V53.6999C36.73 54.3999 36.12 54.9999 35.41 54.9999Z" fill="black"/>
<path d="M46.84 27.9C46.23 27.9 45.73 27.5 45.63 26.8C44.72 20.8 39.86 16 33.79 15.1C33.08 15 32.58 14.4 32.78 13.7C32.88 13 33.49 12.5 34.2 12.7C37.74 13.2 40.98 14.8 43.51 17.3C46.04 19.8 47.66 23 48.16 26.5C48.26 27.2 47.76 27.8 47.15 27.9H46.85H46.84Z" fill="black"/>
<path d="M33.89 17.3001H29.34C28.63 17.3001 28.03 16.7001 28.03 16.0001V11.4001C28.03 10.7001 28.64 10.1001 29.34 10.1001H33.99C34.7 10.1001 35.3 10.7001 35.3 11.4001V16.0001C35.2 16.7001 34.59 17.3001 33.88 17.3001H33.89ZM30.55 14.8001H32.67V12.7001H30.55V14.8001Z" fill="black"/>
<path d="M49.37 32.5H44.72C44.01 32.5 43.51 31.9001 43.51 31.2001V26.6C43.51 25.9 44.12 25.3 44.72 25.3H49.37C50.08 25.3 50.69 25.9 50.69 26.6V31.2001C50.59 31.9001 49.98 32.5 49.37 32.5ZM45.93 30H48.05V27.9H45.93V30Z" fill="black"/>
<path d="M18.51 32.5H13.86C13.15 32.5 12.54 31.9001 12.54 31.2001V26.6C12.54 25.9 13.15 25.3 13.86 25.3H18.51C19.22 25.3 19.83 25.9 19.83 26.6V31.2001C19.83 31.9001 19.22 32.5 18.51 32.5ZM15.17 30H17.29V27.9H15.17V30Z" fill="black"/>
<path d="M16.39 27.9001H16.19C15.48 27.8001 14.98 27.2001 15.18 26.5001C15.69 23.0001 17.3 19.8001 19.83 17.3001C22.36 14.8001 25.6 13.2001 29.14 12.7001C29.85 12.6001 30.45 13.1001 30.56 13.7001C30.66 14.4001 30.16 15.0001 29.55 15.1001C23.48 16.0001 18.63 20.8001 17.71 26.8001C17.51 27.5001 17 27.9001 16.39 27.9001Z" fill="black"/>
<path d="M29.34 14.9999H20.13C19.42 14.9999 18.82 14.3999 18.82 13.6999C18.82 12.9999 19.43 12.3999 20.13 12.3999H29.34C30.05 12.3999 30.65 12.9999 30.65 13.6999C30.65 14.3999 30.04 14.9999 29.34 14.9999Z" fill="black"/>
<path d="M43.19 14.9999H33.98C33.27 14.9999 32.67 14.3999 32.67 13.6999C32.67 12.9999 33.28 12.3999 33.98 12.3999H43.19C43.9 12.3999 44.5 12.9999 44.5 13.6999C44.5 14.3999 43.89 14.9999 43.19 14.9999Z" fill="black"/>
<path d="M17.8 17.3C15.88 17.3 14.26 15.7 14.26 13.8C14.26 11.9 15.88 10.3 17.8 10.3C19.72 10.3 21.34 11.9 21.34 13.8C21.34 15.7 19.72 17.3 17.8 17.3ZM17.8 12.7C17.19 12.7 16.79 13.2 16.79 13.7C16.79 14.3 17.3 14.7 17.8 14.7C18.41 14.7 18.81 14.2 18.81 13.7C18.81 13.2 18.3 12.7 17.8 12.7Z" fill="black"/>
<path d="M45.42 17.3C43.5 17.3 41.88 15.7 41.88 13.8C41.88 11.9 43.5 10.3 45.42 10.3C47.34 10.3 48.96 11.9 48.96 13.8C48.96 15.7 47.44 17.3 45.42 17.3ZM45.42 12.7C44.81 12.7 44.41 13.2 44.41 13.7C44.41 14.3 44.92 14.7 45.42 14.7C46.03 14.7 46.43 14.2 46.43 13.7C46.53 13.2 46.03 12.7 45.42 12.7Z" fill="black"/>
</g>
<defs>
<clipPath id="clip0_11_153">
<rect width="60.8" height="60" fill="white"/>
</clipPath>
</defs>
</svg>
