<svg width="500" height="500" viewBox="0 0 500 500" fill="none" xmlns="http://www.w3.org/2000/svg">
<path d="M333.143 357.975V474.203L476.545 474.259C479.098 468.441 479.033 460.138 475.631 454.772C472.23 449.405 466.062 445.901 459.711 445.726C462.265 437.019 460.689 427.195 455.54 419.723C450.391 412.251 441.772 407.281 432.726 406.568C434.278 395.243 429.543 383.258 420.669 376.053C411.795 368.848 399.093 366.675 388.328 370.521C384.864 359.698 375.398 351.015 364.316 348.495C353.236 345.976 340.946 349.713 333.143 357.975Z" fill="#E0E0E0"/>
<path d="M40.737 456.111C36.268 441.484 40.63 424.522 51.6 413.865C62.571 403.208 79.651 399.338 94.143 404.228C93.848 387.943 103.191 371.843 117.477 364.018C131.762 356.193 150.36 356.989 163.924 366.005C171.544 351.445 191.781 345.187 206.289 352.905C220.797 360.622 226.919 380.901 219.104 395.357C230.993 392.416 244.479 397.907 250.933 408.316C257.386 418.725 256.308 433.246 248.387 442.587C272.112 432.134 303.287 453.148 302.499 479.062L14.435 478.229C16.489 474.378 23.593 456.797 40.737 456.111Z" fill="#E0E0E0"/>
<path d="M396.958 216.274H367.997V439.89H396.958V216.274Z" fill="#F5F5F5"/>
<path d="M350.682 77.235C349.006 74.992 345.68 74.871 343.897 77.03C340.796 80.786 336.729 87.338 336.729 95.869C336.729 109.657 336.729 200.434 336.729 200.434H345.422H355.915C355.915 200.434 357.116 109.657 357.116 95.869C357.116 87.491 353.511 81.021 350.682 77.235Z" fill="#E0E0E0"/>
<path d="M356.831 157.474C356.831 157.584 352.467 157.673 347.085 157.673C341.701 157.673 337.338 157.584 337.338 157.474C337.338 157.364 341.701 157.275 347.085 157.275C352.467 157.274 356.831 157.363 356.831 157.474Z" fill="#EBEBEB"/>
<path d="M356.831 169.613C356.831 169.723 352.467 169.812 347.085 169.812C341.701 169.812 337.338 169.723 337.338 169.613C337.338 169.503 341.701 169.414 347.085 169.414C352.467 169.413 356.831 169.503 356.831 169.613Z" fill="#EBEBEB"/>
<path d="M356.831 96.778C356.831 96.888 352.467 96.977 347.085 96.977C341.701 96.977 337.338 96.888 337.338 96.778C337.338 96.668 341.701 96.579 347.085 96.579C352.467 96.579 356.831 96.668 356.831 96.778Z" fill="#EBEBEB"/>
<path d="M356.831 108.917C356.831 109.027 352.467 109.116 347.085 109.116C341.701 109.116 337.338 109.027 337.338 108.917C337.338 108.807 341.701 108.718 347.085 108.718C352.467 108.718 356.831 108.807 356.831 108.917Z" fill="#EBEBEB"/>
<path d="M356.831 121.056C356.831 121.166 352.467 121.255 347.085 121.255C341.701 121.255 337.338 121.166 337.338 121.056C337.338 120.946 341.701 120.857 347.085 120.857C352.467 120.857 356.831 120.946 356.831 121.056Z" fill="#EBEBEB"/>
<path d="M356.831 133.195C356.831 133.305 352.467 133.394 347.085 133.394C341.701 133.394 337.338 133.305 337.338 133.195C337.338 133.085 341.701 132.996 347.085 132.996C352.467 132.996 356.831 133.085 356.831 133.195Z" fill="#EBEBEB"/>
<path d="M356.831 145.335C356.831 145.445 352.467 145.534 347.085 145.534C341.701 145.534 337.338 145.445 337.338 145.335C337.338 145.225 341.701 145.136 347.085 145.136C352.467 145.135 356.831 145.225 356.831 145.335Z" fill="#EBEBEB"/>
<path d="M421.091 77.681C419.415 75.438 416.089 75.316 414.306 77.476C411.205 81.232 407.138 87.784 407.138 96.315C407.138 110.103 407.138 200.88 407.138 200.88H415.831H426.324C426.324 200.88 427.525 110.103 427.525 96.315C427.524 87.937 423.919 81.468 421.091 77.681Z" fill="#E0E0E0"/>
<path d="M427.204 97.225C427.204 97.335 422.84 97.424 417.458 97.424C412.074 97.424 407.711 97.335 407.711 97.225C407.711 97.115 412.074 97.026 417.458 97.026C422.84 97.025 427.204 97.115 427.204 97.225Z" fill="#EBEBEB"/>
<path d="M427.204 109.364C427.204 109.474 422.84 109.563 417.458 109.563C412.074 109.563 407.711 109.474 407.711 109.364C407.711 109.254 412.074 109.165 417.458 109.165C422.84 109.164 427.204 109.254 427.204 109.364Z" fill="#EBEBEB"/>
<path d="M427.204 121.503C427.204 121.613 422.84 121.702 417.458 121.702C412.074 121.702 407.711 121.613 407.711 121.503C407.711 121.393 412.074 121.304 417.458 121.304C422.84 121.303 427.204 121.393 427.204 121.503Z" fill="#EBEBEB"/>
<path d="M427.204 133.642C427.204 133.752 422.84 133.841 417.458 133.841C412.074 133.841 407.711 133.752 407.711 133.642C407.711 133.532 412.074 133.443 417.458 133.443C422.84 133.443 427.204 133.532 427.204 133.642Z" fill="#EBEBEB"/>
<path d="M427.204 145.781C427.204 145.891 422.84 145.98 417.458 145.98C412.074 145.98 407.711 145.891 407.711 145.781C407.711 145.671 412.074 145.582 417.458 145.582C422.84 145.582 427.204 145.671 427.204 145.781Z" fill="#EBEBEB"/>
<path d="M427.204 157.92C427.204 158.03 422.84 158.119 417.458 158.119C412.074 158.119 407.711 158.03 407.711 157.92C407.711 157.81 412.074 157.721 417.458 157.721C422.84 157.721 427.204 157.81 427.204 157.92Z" fill="#EBEBEB"/>
<path d="M427.204 170.059C427.204 170.169 422.84 170.258 417.458 170.258C412.074 170.258 407.711 170.169 407.711 170.059C407.711 169.949 412.074 169.86 417.458 169.86C422.84 169.86 427.204 169.949 427.204 170.059Z" fill="#EBEBEB"/>
<path d="M389.365 42.5C385.195 39.353 379.307 39.904 375.231 43.29C363.097 53.371 357.115 68.463 357.115 80.409C357.115 99.715 357.115 215.492 357.115 215.492H378.777H404.924C404.924 215.492 407.916 99.715 407.916 80.409C407.917 68.678 400.003 50.527 389.365 42.5Z" fill="#F5F5F5"/>
<path d="M389.365 42.5C389.365 42.5 389.606 42.682 390.066 43.055C390.514 43.44 391.242 43.947 392.054 44.775C393.758 46.338 396.083 48.887 398.523 52.579C399.709 54.443 401.007 56.541 402.181 58.973C403.385 61.387 404.559 64.087 405.544 67.092C406.535 70.09 407.4 73.383 407.811 76.962C407.856 77.41 407.926 77.859 407.951 78.315C407.97 78.772 407.989 79.232 408.008 79.695C408.068 80.623 408.017 81.557 408.025 82.507C408.006 84.406 407.987 86.356 407.967 88.355C407.482 120.337 406.392 164.949 405.121 215.497L405.116 215.689H404.924C394.946 215.69 384.479 215.691 373.827 215.691C368.102 215.691 362.431 215.691 357.116 215.69H356.917V215.491C356.924 188.461 356.931 162.889 356.937 139.735C356.944 128.159 356.95 117.187 356.956 106.939C356.96 101.816 356.964 96.873 356.968 92.127C356.97 89.754 356.972 87.43 356.974 85.157C356.991 82.882 356.938 80.666 357.04 78.486C357.278 74.135 358.204 70.063 359.432 66.355C360.673 62.645 362.271 59.302 364.028 56.345C367.572 50.433 371.706 46.078 375.442 43.035C377.348 41.521 379.447 40.787 381.276 40.498C383.122 40.241 384.718 40.428 385.937 40.772C387.164 41.116 388.007 41.612 388.568 41.932C389.1 42.302 389.365 42.5 389.365 42.5C389.365 42.5 389.084 42.323 388.546 41.965C387.981 41.657 387.137 41.175 385.915 40.846C384.702 40.516 383.119 40.344 381.292 40.61C379.482 40.909 377.409 41.646 375.533 43.152C371.828 46.2 367.723 50.557 364.211 56.455C362.469 59.405 360.887 62.738 359.662 66.434C358.449 70.127 357.537 74.181 357.309 78.501C357.31 113.216 357.312 161.436 357.313 215.492L357.115 215.293C362.431 215.293 368.102 215.293 373.826 215.292C384.478 215.293 394.945 215.293 404.923 215.294L404.726 215.486C406.011 164.939 407.149 120.328 407.705 88.35C407.73 86.352 407.753 84.402 407.777 82.504C407.771 81.556 407.825 80.616 407.767 79.699C407.749 79.239 407.731 78.783 407.714 78.33C407.69 77.877 407.621 77.431 407.578 76.986C407.179 73.428 406.327 70.145 405.349 67.154C404.377 64.157 403.216 61.46 402.025 59.048C400.864 56.618 399.579 54.52 398.405 52.654C395.99 48.959 393.689 46.402 392.005 44.825C391.203 43.99 390.484 43.475 390.044 43.081C389.591 42.702 389.365 42.5 389.365 42.5Z" fill="#E0E0E0"/>
<path d="M379.742 44.277C379.742 44.277 361.344 59.059 361.186 78.872V131.683H369.073L368.59 85.677C368.59 85.677 367.585 76.936 372.337 61.575C375.335 51.882 379.742 44.277 379.742 44.277Z" fill="white"/>
<path d="M406.992 85.676C406.992 85.786 396.024 85.875 382.496 85.875C368.964 85.875 357.998 85.786 357.998 85.676C357.998 85.566 368.964 85.477 382.496 85.477C396.024 85.477 406.992 85.567 406.992 85.676Z" fill="#E0E0E0"/>
<path d="M406.992 104.055C406.992 104.165 396.024 104.254 382.496 104.254C368.964 104.254 357.998 104.165 357.998 104.055C357.998 103.945 368.964 103.856 382.496 103.856C396.024 103.856 406.992 103.946 406.992 104.055Z" fill="#E0E0E0"/>
<path d="M406.992 122.435C406.992 122.545 396.024 122.634 382.496 122.634C368.964 122.634 357.998 122.545 357.998 122.435C357.998 122.325 368.964 122.236 382.496 122.236C396.024 122.235 406.992 122.324 406.992 122.435Z" fill="#E0E0E0"/>
<path d="M406.992 140.813C406.992 140.923 396.024 141.012 382.496 141.012C368.964 141.012 357.998 140.923 357.998 140.813C357.998 140.703 368.964 140.614 382.496 140.614C396.024 140.614 406.992 140.703 406.992 140.813Z" fill="#E0E0E0"/>
<path d="M351.22 214.158H338.672V222.301H351.22V214.158Z" fill="#E0E0E0"/>
<path d="M335.085 226.75C335.085 225.472 335.411 224.332 336.841 222.929L338.671 221.166L351.219 221.317L352.327 222.301C353.336 223.095 354.321 224.628 354.321 225.867V226.046L335.085 226.75Z" fill="#E0E0E0"/>
<path d="M354.9 228.264H334.754C334.229 228.264 333.803 227.838 333.803 227.313V226.997C333.803 226.472 334.229 226.046 334.754 226.046H354.9C355.425 226.046 355.851 226.472 355.851 226.997V227.313C355.851 227.839 355.426 228.264 354.9 228.264Z" fill="#E0E0E0"/>
<path d="M323.131 212.525V188.923L355.033 157.626L368.628 115.041V218.853L323.131 212.525Z" fill="#F5F5F5"/>
<path d="M323.131 204.731L368.622 210.778V218.853L323.131 212.525V204.731Z" fill="#EBEBEB"/>
<path d="M323.131 212.525C323.131 212.525 323.416 212.553 323.954 212.622C324.501 212.694 325.295 212.799 326.333 212.935C328.426 213.217 331.491 213.63 335.429 214.161C343.305 215.238 354.665 216.791 368.648 218.702L368.476 218.851C368.463 196.199 368.446 166.213 368.428 133.421C368.429 127.178 368.429 121.036 368.43 115.039L368.815 115.099C363.931 130.372 359.336 144.74 355.199 157.677L355.186 157.719L355.155 157.749C342.377 170.25 331.447 180.944 323.21 189.003L323.244 188.922C323.218 196.365 323.197 202.251 323.182 206.289C323.17 208.304 323.161 209.855 323.154 210.915C323.149 211.435 323.145 211.832 323.142 212.111C323.139 212.382 323.131 212.525 323.131 212.525C323.131 212.525 323.123 212.396 323.119 212.133C323.116 211.859 323.112 211.467 323.107 210.955C323.101 209.9 323.091 208.357 323.079 206.352C323.065 202.3 323.044 196.392 323.017 188.923V188.875L323.051 188.841C331.266 180.76 342.167 170.036 354.91 157.5L354.866 157.572C358.99 144.631 363.57 130.258 368.439 114.98L368.824 113.771V115.04C368.825 121.037 368.825 127.179 368.826 133.422C368.808 166.214 368.791 196.199 368.778 218.852V219.026L368.606 219.002C354.597 217.02 343.216 215.41 335.325 214.294C331.404 213.732 328.353 213.294 326.27 212.996C325.245 212.846 324.461 212.731 323.921 212.652C323.393 212.573 323.131 212.525 323.131 212.525Z" fill="#E0E0E0"/>
<path d="M424.124 214.158H411.576V222.301H424.124V214.158Z" fill="#E0E0E0"/>
<path d="M407.99 226.75C407.99 225.472 408.316 224.332 409.746 222.929L411.576 221.166L424.124 221.317L425.232 222.301C426.241 223.095 427.226 224.628 427.226 225.867V226.046L407.99 226.75Z" fill="#E0E0E0"/>
<path d="M427.805 228.264H407.659C407.134 228.264 406.708 227.838 406.708 227.313V226.997C406.708 226.472 407.134 226.046 407.659 226.046H427.805C428.33 226.046 428.756 226.472 428.756 226.997V227.313C428.756 227.839 428.33 228.264 427.805 228.264Z" fill="#E0E0E0"/>
<path d="M412.802 203.305C413.391 203.305 413.868 202.828 413.868 202.239C413.868 201.65 413.391 201.173 412.802 201.173C412.213 201.173 411.736 201.65 411.736 202.239C411.736 202.828 412.213 203.305 412.802 203.305Z" fill="#EBEBEB"/>
<path d="M397.137 102.608C397.064 96.118 393.488 90.377 389.875 84.769C388.353 82.407 386.885 80.983 385.687 80.126C384.007 78.924 381.688 78.927 380.02 80.145C378.844 81.004 377.401 82.424 375.89 84.769C372.277 90.376 368.701 96.117 368.628 102.608C368.542 110.206 368.628 218.853 368.628 218.853H382.515H383.25H397.137C397.137 218.853 397.223 110.206 397.137 102.608Z" fill="#F5F5F5"/>
<path d="M390.856 86.563C389.122 83.71 387.449 81.991 386.084 80.956C384.17 79.504 381.527 79.508 379.627 80.979C378.287 82.016 376.643 83.731 374.921 86.563C372.542 90.475 370.608 94.322 369.258 98.586L396.482 98.497C395.264 94.41 393.205 90.427 390.856 86.563Z" fill="#EBEBEB"/>
<path d="M396.484 97.884C396.484 97.994 390.39 98.103 382.873 98.128C375.354 98.153 369.26 98.083 369.26 97.973C369.26 97.863 375.353 97.754 382.872 97.729C390.388 97.705 396.483 97.774 396.484 97.884Z" fill="#E0E0E0"/>
<path d="M372.978 95.518C372.978 95.803 372.747 96.033 372.463 96.033C372.179 96.033 371.948 95.802 371.948 95.518C371.948 95.234 372.179 95.003 372.463 95.003C372.748 95.003 372.978 95.233 372.978 95.518Z" fill="#E0E0E0"/>
<path d="M377.899 95.518C377.899 95.803 377.668 96.033 377.384 96.033C377.099 96.033 376.869 95.802 376.869 95.518C376.869 95.234 377.1 95.003 377.384 95.003C377.668 95.003 377.899 95.233 377.899 95.518Z" fill="#E0E0E0"/>
<path d="M382.819 95.518C382.819 95.803 382.588 96.033 382.304 96.033C382.019 96.033 381.789 95.802 381.789 95.518C381.789 95.234 382.02 95.003 382.304 95.003C382.588 95.003 382.819 95.233 382.819 95.518Z" fill="#E0E0E0"/>
<path d="M387.739 95.518C387.739 95.803 387.508 96.033 387.224 96.033C386.939 96.033 386.709 95.802 386.709 95.518C386.709 95.234 386.94 95.003 387.224 95.003C387.508 95.003 387.739 95.233 387.739 95.518Z" fill="#E0E0E0"/>
<path d="M392.659 95.518C392.659 95.803 392.428 96.033 392.144 96.033C391.859 96.033 391.629 95.802 391.629 95.518C391.629 95.234 391.86 95.003 392.144 95.003C392.429 95.003 392.659 95.233 392.659 95.518Z" fill="#E0E0E0"/>
<path d="M397.137 102.608C397.137 102.608 397.148 102.8 397.154 103.176C397.158 103.561 397.163 104.118 397.171 104.849C397.178 106.331 397.189 108.508 397.203 111.328C397.216 116.988 397.235 125.22 397.259 135.548C397.277 156.224 397.301 185.281 397.33 218.853V219.045H397.138C387.97 219.047 378.429 219.049 368.629 219.052H368.431V218.854C368.431 214.218 368.43 209.287 368.43 204.303C368.436 182.302 368.441 161.344 368.446 142.282C368.453 132.751 368.459 123.695 368.464 115.218C368.468 110.98 368.472 106.888 368.475 102.953C368.452 98.965 369.779 95.274 371.401 92.068C372.218 90.455 373.114 88.935 374.018 87.476C374.941 86.029 375.793 84.594 376.773 83.283C377.759 81.984 378.855 80.809 380.135 79.928C381.449 79.056 383.113 78.911 384.492 79.394C385.191 79.623 385.797 80.043 386.328 80.485C386.867 80.926 387.359 81.403 387.81 81.897C388.714 82.885 389.464 83.936 390.119 84.975C391.444 87.039 392.625 88.947 393.585 90.723C395.541 94.259 396.503 97.292 396.852 99.387C396.945 99.911 397.015 100.373 397.046 100.776C397.09 101.177 397.121 101.514 397.122 101.787C397.138 102.329 397.137 102.608 397.137 102.608C397.137 102.608 397.111 102.33 397.08 101.788C397.073 101.516 397.035 101.181 396.985 100.781C396.948 100.38 396.871 99.92 396.772 99.4C396.399 97.318 395.419 94.31 393.448 90.796C392.481 89.031 391.292 87.133 389.958 85.076C389.301 84.044 388.554 83.008 387.657 82.035C387.209 81.549 386.723 81.081 386.191 80.65C385.661 80.213 385.088 79.82 384.419 79.603C383.101 79.146 381.511 79.292 380.267 80.125C379.028 80.984 377.943 82.149 376.975 83.434C376.014 84.727 375.161 86.171 374.245 87.616C373.347 89.073 372.459 90.59 371.652 92.194C370.048 95.386 368.751 99.027 368.782 102.956C368.786 106.89 368.79 110.983 368.794 115.221C368.8 123.697 368.806 132.754 368.812 142.284C368.817 161.346 368.822 182.303 368.828 204.303C368.828 209.287 368.827 214.218 368.827 218.854L368.629 218.656C378.429 218.658 387.97 218.661 397.138 218.663L396.946 218.855C396.975 185.284 396.999 156.227 397.016 135.552C397.04 125.224 397.059 116.992 397.072 111.331C397.086 108.511 397.096 106.334 397.104 104.851C397.111 104.12 397.117 103.563 397.121 103.178C397.126 102.8 397.137 102.608 397.137 102.608Z" fill="#E0E0E0"/>
<path d="M382.516 109.107C378.459 109.107 375.171 112.396 375.171 116.452H389.862C389.861 112.396 386.573 109.107 382.516 109.107Z" fill="#E0E0E0"/>
<path d="M367.495 226.615C367.495 224.518 368.512 222.536 370.255 221.236L373.449 218.853H393.653L396.451 221.054C398.107 222.357 399.064 224.286 399.064 226.321V226.615H367.495Z" fill="#E0E0E0"/>
<path d="M400.013 230.254H366.952C366.09 230.254 365.391 229.555 365.391 228.693V228.175C365.391 227.313 366.09 226.614 366.952 226.614H400.013C400.875 226.614 401.574 227.313 401.574 228.175V228.693C401.573 229.556 400.875 230.254 400.013 230.254Z" fill="#E0E0E0"/>
<path d="M383.126 220.933H364.803V202.779C364.803 197.866 368.786 193.883 373.699 193.883H374.231C379.144 193.883 383.127 197.866 383.127 202.779V220.933H383.126Z" fill="#EBEBEB"/>
<path d="M383.126 220.933C383.121 220.928 383.116 220.851 383.111 220.704C383.107 220.536 383.102 220.324 383.096 220.061C383.088 219.473 383.077 218.657 383.064 217.62C383.046 215.49 383.021 212.459 382.989 208.727C382.978 206.856 382.965 204.81 382.952 202.616C382.932 200.45 382.005 198.128 380.217 196.461C379.332 195.627 378.247 194.958 377.043 194.547C375.836 194.119 374.528 194.013 373.189 194.104C370.543 194.22 367.897 195.712 366.385 198.084C365.817 198.968 365.403 199.944 365.196 200.955C364.975 201.965 365.002 202.992 364.999 204.031C364.997 206.094 364.994 208.107 364.992 210.059C364.983 213.96 364.975 217.615 364.967 220.934L364.802 220.769C370.287 220.804 374.841 220.834 378.058 220.855C379.642 220.873 380.895 220.887 381.784 220.897C382.197 220.905 382.524 220.911 382.774 220.916C383 220.921 383.12 220.927 383.126 220.933C383.132 220.939 383.025 220.945 382.81 220.951C382.568 220.956 382.251 220.962 381.851 220.97C380.971 220.98 379.73 220.994 378.162 221.013C374.92 221.034 370.33 221.063 364.803 221.099L364.638 221.1V220.934C364.63 217.615 364.622 213.96 364.613 210.059C364.611 208.107 364.609 206.094 364.606 204.031C364.607 203.011 364.577 201.933 364.808 200.872C365.025 199.814 365.457 198.793 366.051 197.868C367.631 195.387 370.403 193.831 373.168 193.714C374.523 193.623 375.917 193.735 377.168 194.187C378.425 194.621 379.553 195.322 380.471 196.195C382.327 197.94 383.277 200.363 383.284 202.611C383.277 204.833 383.27 206.904 383.264 208.798C383.233 212.54 383.207 215.579 383.189 217.715C383.175 218.735 383.164 219.538 383.157 220.117C383.151 220.37 383.146 220.572 383.142 220.734C383.135 220.87 383.131 220.938 383.126 220.933Z" fill="#E0E0E0"/>
<path d="M442.672 212.525V188.923L410.77 157.626L397.175 115.041V218.853L442.672 212.525Z" fill="#F5F5F5"/>
<path d="M397.137 218.853L397.175 211.792L442.672 206.032V212.525L397.137 218.853Z" fill="#EBEBEB"/>
<path d="M442.672 212.525C442.672 212.525 442.41 212.573 441.882 212.652C441.342 212.731 440.558 212.846 439.533 212.996C437.45 213.295 434.398 213.732 430.478 214.294C422.587 215.41 411.206 217.02 397.196 219.002L397.024 219.026V218.852C397.011 196.2 396.994 166.214 396.976 133.422C396.977 127.179 396.977 121.037 396.978 115.04V113.771L397.363 114.98C402.232 130.258 406.812 144.631 410.936 157.572L410.892 157.5C423.635 170.036 434.537 180.76 442.751 188.841L442.785 188.875V188.923C442.759 196.392 442.738 202.299 442.724 206.352C442.712 208.357 442.702 209.901 442.696 210.955C442.691 211.467 442.686 211.858 442.684 212.133C442.68 212.396 442.672 212.525 442.672 212.525C442.672 212.525 442.664 212.382 442.66 212.113C442.657 211.834 442.653 211.437 442.648 210.917C442.642 209.857 442.632 208.306 442.62 206.291C442.606 202.253 442.585 196.367 442.559 188.924L442.593 189.005C434.356 180.946 423.426 170.252 410.648 157.751L410.617 157.721L410.604 157.679C406.467 144.742 401.872 130.374 396.988 115.101L397.373 115.041C397.374 121.038 397.374 127.18 397.375 133.423C397.356 166.215 397.34 196.2 397.327 218.853L397.155 218.704C411.138 216.792 422.497 215.239 430.374 214.163C434.313 213.632 437.378 213.219 439.47 212.936C440.508 212.799 441.302 212.695 441.85 212.623C442.387 212.553 442.672 212.525 442.672 212.525Z" fill="#E0E0E0"/>
<path d="M401.573 220.933H383.25V202.779C383.25 197.866 387.233 193.883 392.146 193.883H392.678C397.591 193.883 401.574 197.866 401.574 202.779V220.933H401.573Z" fill="#EBEBEB"/>
<path d="M401.573 220.933C401.568 220.928 401.563 220.851 401.559 220.704C401.555 220.536 401.55 220.324 401.544 220.061C401.536 219.473 401.525 218.657 401.512 217.62C401.494 215.49 401.469 212.459 401.437 208.727C401.425 206.856 401.413 204.81 401.4 202.616C401.38 200.45 400.453 198.128 398.665 196.461C397.78 195.627 396.696 194.958 395.491 194.547C394.284 194.119 392.976 194.013 391.637 194.104C388.991 194.22 386.345 195.712 384.833 198.084C384.266 198.968 383.852 199.944 383.644 200.955C383.423 201.965 383.449 202.992 383.447 204.031C383.445 206.094 383.443 208.107 383.44 210.059C383.431 213.96 383.423 217.615 383.415 220.934L383.25 220.769C388.735 220.804 393.289 220.834 396.506 220.855C398.09 220.873 399.343 220.887 400.232 220.897C400.645 220.905 400.972 220.911 401.222 220.916C401.448 220.921 401.567 220.927 401.573 220.933C401.579 220.939 401.471 220.945 401.257 220.951C401.015 220.956 400.698 220.962 400.298 220.97C399.418 220.98 398.177 220.994 396.609 221.013C393.367 221.034 388.777 221.063 383.25 221.099L383.085 221.1V220.934C383.077 217.615 383.069 213.96 383.06 210.059C383.058 208.107 383.056 206.094 383.053 204.031C383.054 203.011 383.023 201.933 383.255 200.872C383.472 199.814 383.904 198.793 384.498 197.868C386.078 195.387 388.85 193.831 391.615 193.714C392.97 193.623 394.364 193.735 395.615 194.187C396.872 194.621 398 195.322 398.918 196.195C400.774 197.94 401.724 200.363 401.731 202.611C401.724 204.833 401.717 206.904 401.711 208.798C401.68 212.54 401.654 215.579 401.636 217.715C401.622 218.735 401.611 219.538 401.604 220.117C401.598 220.37 401.593 220.572 401.589 220.734C401.583 220.87 401.578 220.938 401.573 220.933Z" fill="#E0E0E0"/>
<path d="M396.87 138.504C396.87 138.614 390.607 138.703 382.883 138.703C375.156 138.703 368.895 138.614 368.895 138.504C368.895 138.394 375.157 138.305 382.883 138.305C390.607 138.305 396.87 138.394 396.87 138.504Z" fill="#E0E0E0"/>
<path d="M396.87 168.625C396.87 168.735 390.607 168.824 382.883 168.824C375.156 168.824 368.895 168.735 368.895 168.625C368.895 168.515 375.157 168.426 382.883 168.426C390.607 168.426 396.87 168.515 396.87 168.625Z" fill="#E0E0E0"/>
<g opacity="0.3">
<path d="M383.48 109.172L377.384 116.452H381.576L386.44 110.245C386.44 110.245 384.645 109.232 383.48 109.172Z" fill="white"/>
</g>
<path d="M464.452 458.36C466.473 448.269 463.451 437.295 456.55 429.66C449.649 422.025 439.034 417.916 428.79 418.912C429.108 411.038 425.093 403.124 418.551 398.731C412.009 394.338 403.164 393.616 395.996 396.89C392.466 381.286 373.877 372.395 358.244 375.793C342.611 379.19 330.434 392.015 323.382 406.375C309.299 403.18 293.84 406.724 282.554 415.733C271.268 424.743 264.388 439.032 264.384 453.473C246.84 449.746 227.354 459.356 219.631 475.544L480.982 477.851C483.465 468.199 474.38 457.488 464.452 458.36Z" fill="#F5F5F5"/>
<path d="M174.714 231.116C176.803 229.854 179.026 228.897 181.319 228.245L182.68 221.707L193.726 221.513L195.316 227.998C197.631 228.568 199.887 229.447 202.018 230.635L207.601 226.975L215.549 234.649L212.089 240.356C213.352 242.445 214.308 244.669 214.959 246.963L221.496 248.324L221.69 259.37L215.205 260.96C214.635 263.274 213.756 265.53 212.568 267.662L216.227 273.245L208.554 281.193L202.847 277.732C200.758 278.994 198.534 279.951 196.241 280.602L194.88 287.14L183.834 287.334L182.244 280.848C179.93 280.277 177.674 279.399 175.542 278.211L169.959 281.871L162.011 274.197L165.471 268.49C164.209 266.401 163.251 264.178 162.6 261.884L156.063 260.523L155.869 249.477L162.355 247.887C162.925 245.573 163.804 243.317 164.992 241.185L161.333 235.602L169.006 227.654L174.714 231.116ZM180.602 245.831C176.056 250.54 176.187 258.043 180.897 262.589C185.606 267.135 193.108 267.003 197.654 262.294C202.2 257.585 202.068 250.082 197.359 245.536C192.651 240.99 185.148 241.122 180.602 245.831Z" fill="#EBEBEB"/>
<path d="M326.121 289.987C327.536 289.132 329.043 288.483 330.597 288.042L331.519 283.612L339.004 283.481L340.081 287.876C341.65 288.262 343.178 288.858 344.623 289.663L348.406 287.183L353.792 292.383L351.447 296.25C352.303 297.666 352.951 299.173 353.392 300.727L357.822 301.649L357.954 309.134L353.559 310.211C353.172 311.779 352.577 313.308 351.772 314.752L354.251 318.535L349.052 323.921L345.185 321.576C343.769 322.431 342.263 323.08 340.708 323.521L339.786 327.951L332.301 328.082L331.224 323.687C329.656 323.3 328.127 322.705 326.683 321.9L322.9 324.38L317.514 319.18L319.859 315.313C319.004 313.898 318.355 312.391 317.914 310.837L313.484 309.915L313.353 302.43L317.748 301.352C318.135 299.784 318.73 298.255 319.535 296.811L317.056 293.028L322.255 287.642L326.121 289.987ZM330.111 299.958C327.03 303.149 327.12 308.233 330.311 311.314C333.502 314.395 338.586 314.305 341.666 311.114C344.746 307.923 344.657 302.839 341.466 299.758C338.275 296.678 333.191 296.767 330.111 299.958Z" fill="#E0E0E0"/>
<path d="M256.936 224.843C258.351 223.988 259.858 223.339 261.412 222.898L262.334 218.468L269.819 218.337L270.896 222.732C272.464 223.119 273.993 223.714 275.438 224.519L279.221 222.039L284.607 227.239L282.262 231.106C283.118 232.522 283.766 234.029 284.207 235.583L288.637 236.505L288.769 243.99L284.374 245.067C283.988 246.635 283.392 248.164 282.587 249.608L285.066 253.391L279.867 258.777L276 256.431C274.584 257.286 273.078 257.935 271.523 258.376L270.601 262.806L263.116 262.937L262.039 258.542C260.471 258.155 258.942 257.56 257.498 256.755L253.715 259.235L248.329 254.035L250.674 250.168C249.819 248.753 249.17 247.246 248.729 245.692L244.299 244.77L244.168 237.285L248.563 236.207C248.95 234.639 249.545 233.11 250.35 231.666L247.871 227.883L253.07 222.497L256.936 224.843ZM260.927 234.814C257.846 238.005 257.935 243.089 261.127 246.17C264.318 249.251 269.402 249.161 272.482 245.97C275.562 242.779 275.473 237.695 272.282 234.615C269.091 231.534 264.007 231.623 260.927 234.814Z" fill="#E0E0E0"/>
<path d="M79.325 199.062C80.163 196.319 79.345 193.139 77.288 191.14C75.231 189.142 72.028 188.416 69.311 189.333C69.366 186.279 67.614 183.26 64.936 181.793C62.257 180.326 58.77 180.475 56.227 182.166C54.798 179.436 51.004 178.263 48.283 179.71C45.563 181.157 44.415 184.959 45.88 187.67C43.651 187.119 41.122 188.148 39.912 190.1C38.702 192.052 38.904 194.775 40.389 196.526C35.94 194.566 30.095 198.506 30.243 203.365L84.257 203.209C83.872 202.488 82.54 199.191 79.325 199.062Z" fill="#EBEBEB"/>
<path d="M205.84 124.613C206.678 121.87 205.86 118.69 203.803 116.692C201.746 114.694 198.543 113.968 195.826 114.885C195.881 111.831 194.129 108.812 191.451 107.345C188.772 105.878 185.285 106.027 182.742 107.718C181.313 104.988 177.519 103.815 174.798 105.262C172.078 106.709 170.93 110.511 172.395 113.222C170.166 112.671 167.637 113.7 166.427 115.652C165.217 117.604 165.419 120.327 166.904 122.078C162.455 120.118 156.61 124.058 156.758 128.917L210.772 128.761C210.387 128.039 209.055 124.742 205.84 124.613Z" fill="#EBEBEB"/>
<path d="M100.209 56.485C101.047 53.742 100.229 50.562 98.172 48.564C96.115 46.566 92.912 45.84 90.195 46.757C90.25 43.703 88.498 40.685 85.82 39.217C83.142 37.75 79.654 37.899 77.111 39.59C75.682 36.86 71.888 35.687 69.167 37.134C66.447 38.581 65.299 42.384 66.764 45.094C64.535 44.543 62.006 45.572 60.796 47.524C59.586 49.476 59.788 52.199 61.273 53.95C56.824 51.99 50.979 55.93 51.127 60.789L105.141 60.633C104.755 59.91 103.423 56.613 100.209 56.485Z" fill="#F5F5F5"/>
<path d="M460.661 270.774C461.499 268.031 460.681 264.851 458.624 262.852C456.567 260.854 453.364 260.128 450.647 261.045C450.702 257.991 448.95 254.972 446.272 253.505C443.593 252.038 440.106 252.187 437.563 253.878C436.134 251.148 432.34 249.974 429.619 251.422C426.899 252.869 425.751 256.672 427.216 259.382C424.987 258.831 422.458 259.86 421.248 261.812C420.038 263.764 420.24 266.487 421.725 268.238C417.276 266.278 411.431 270.218 411.579 275.077L465.593 274.921C465.208 274.199 463.876 270.903 460.661 270.774Z" fill="#F5F5F5"/>
<path d="M467.575 477.73C467.575 477.874 369.26 477.99 248.011 477.99C126.72 477.99 28.426 477.873 28.426 477.73C28.426 477.587 126.72 477.47 248.011 477.47C369.26 477.469 467.575 477.586 467.575 477.73Z" fill="#3A3A3A"/>
<path d="M51.956 461.771C48.746 451.264 51.879 439.08 59.759 431.424C67.64 423.769 79.909 420.989 90.319 424.502C90.107 412.804 96.818 401.238 107.08 395.617C117.342 389.996 130.701 390.568 140.445 397.044C145.918 386.585 160.456 382.09 170.877 387.634C181.299 393.178 185.696 407.745 180.082 418.129C188.622 416.017 198.31 419.961 202.946 427.438C207.581 434.915 206.807 445.346 201.117 452.056C218.16 444.547 240.554 459.643 239.988 478.257L33.06 477.658C34.538 474.892 39.641 462.264 51.956 461.771Z" fill="white"/>
<path d="M51.956 461.771C51.956 461.771 51.413 461.842 50.3 461.97C49.191 462.11 47.565 462.477 45.561 463.352C43.563 464.235 41.284 465.82 39.128 468.231C36.919 470.609 35 473.866 33.159 477.71L33.063 477.549C70.146 477.63 147.455 477.798 239.991 478L239.733 478.25C239.805 475.061 239.231 471.821 237.994 468.796C236.77 465.77 234.955 462.948 232.704 460.495C228.216 455.587 222.052 451.999 215.327 450.782C210.574 449.919 205.586 450.363 201.225 452.295L200.195 452.751L200.922 451.889C206.712 445.021 207.246 434.484 202.487 427.217C197.714 419.929 188.271 416.368 180.146 418.375L179.594 418.511L179.863 418.009C182.812 412.518 182.904 405.897 180.945 400.245C179.012 394.569 174.913 389.664 169.593 387.305C164.283 384.917 158.175 385.038 152.938 386.897C147.679 388.744 143.142 392.41 140.646 397.148L140.53 397.368L140.322 397.231C134.756 393.566 128.223 391.9 121.983 391.986C115.727 392.063 109.723 393.947 104.897 397.194C100.057 400.44 96.364 404.896 93.96 409.682C91.558 414.484 90.435 419.627 90.489 424.498L90.492 424.736L90.267 424.66C85.379 423.02 80.356 422.851 75.824 423.594C73.547 423.953 71.398 424.614 69.39 425.404C67.376 426.191 65.52 427.182 63.85 428.312C60.46 430.519 57.899 433.352 55.966 436.182C54.072 439.054 52.835 441.969 52.048 444.662C50.478 450.083 50.68 454.529 51.054 457.411C51.27 458.858 51.486 459.952 51.691 460.682C51.872 461.412 51.956 461.771 51.956 461.771C51.916 461.632 51.832 461.337 51.643 460.676C51.422 459.971 51.193 458.876 50.96 457.425C50.555 454.538 50.32 450.073 51.872 444.612C52.65 441.899 53.881 438.96 55.778 436.058C57.714 433.2 60.288 430.332 63.702 428.093C65.384 426.947 67.253 425.941 69.283 425.141C71.308 424.337 73.475 423.665 75.773 423.296C80.347 422.534 85.422 422.691 90.374 424.34L90.152 424.503C90.086 419.576 91.211 414.375 93.63 409.515C96.051 404.672 99.776 400.158 104.675 396.861C109.562 393.562 115.643 391.645 121.977 391.559C128.295 391.465 134.916 393.141 140.571 396.856L140.247 396.939C142.798 392.085 147.426 388.344 152.782 386.457C158.116 384.559 164.344 384.422 169.79 386.865C175.249 389.281 179.437 394.297 181.412 400.083C183.412 405.845 183.33 412.607 180.306 418.248L180.023 417.883C188.37 415.827 198.003 419.454 202.916 426.934C207.8 434.408 207.259 445.158 201.316 452.223L201.013 451.817C205.476 449.839 210.576 449.387 215.417 450.268C222.268 451.509 228.522 455.153 233.086 460.144C235.374 462.639 237.224 465.512 238.472 468.601C239.734 471.688 240.322 475.002 240.246 478.264L240.24 478.515L239.987 478.514C147.452 478.18 70.143 477.901 33.06 477.767L32.886 477.766L32.963 477.606C34.813 473.779 36.767 470.494 39.001 468.117C41.184 465.701 43.492 464.119 45.511 463.247C47.531 462.384 49.187 462.03 50.277 461.915C51.318 461.826 51.777 461.786 51.956 461.771Z" fill="#3A3A3A"/>
<path d="M445.197 457.662C438.653 453.637 429.752 453.845 423.403 458.172C422.5 447.786 415.568 438.143 406.012 433.978C396.455 429.812 384.673 431.298 376.45 437.705C377.281 427.024 371.264 416.118 361.785 411.127C352.306 406.135 339.909 407.344 331.572 414.073V477.731L454.574 477.343C455.57 469.724 451.741 461.686 445.197 457.662Z" fill="white"/>
<path d="M445.197 457.662C445.197 457.662 445.642 457.925 446.478 458.487C447.28 459.092 448.473 460.016 449.76 461.499C451.036 462.979 452.427 465.01 453.464 467.679C454.478 470.337 455.154 473.665 454.699 477.358L454.685 477.468L454.573 477.469C429.259 477.575 384.539 477.763 331.572 477.986L331.315 477.987V477.73C331.314 466.9 331.312 455.647 331.311 444.142C331.312 433.882 331.313 423.823 331.315 414.072V413.949L331.411 413.872C336.007 410.188 341.711 408.213 347.339 407.884C352.974 407.545 358.611 408.862 363.238 411.685C367.874 414.5 371.451 418.657 373.733 423.241C376.024 427.832 377.034 432.896 376.671 437.721L376.314 437.529C378.94 435.517 381.849 434.017 384.832 433.006C387.824 432.01 390.892 431.523 393.879 431.456C399.866 431.3 405.519 433.006 409.943 435.889C414.389 438.758 417.714 442.579 419.892 446.519C420.989 448.489 421.819 450.488 422.429 452.446C423.01 454.414 423.346 456.335 423.529 458.161L423.333 458.068C426.463 455.965 429.772 455.085 432.609 454.794C435.468 454.534 437.901 454.86 439.784 455.338C441.675 455.821 443.018 456.47 443.907 456.904C444.77 457.391 445.197 457.662 445.197 457.662C445.197 457.662 445.081 457.61 444.86 457.492C444.629 457.368 444.304 457.193 443.876 456.962C442.98 456.549 441.636 455.924 439.752 455.464C437.876 455.01 435.459 454.708 432.628 454.985C429.819 455.293 426.551 456.185 423.475 458.275L423.301 458.393L423.279 458.182C423.087 456.374 422.745 454.473 422.161 452.527C421.548 450.591 420.718 448.616 419.624 446.67C417.453 442.779 414.149 439.011 409.75 436.192C405.374 433.36 399.797 431.694 393.888 431.861C390.941 431.935 387.915 432.422 384.967 433.41C382.028 434.413 379.166 435.896 376.586 437.88L376.192 438.183L376.228 437.688C376.576 432.947 375.575 427.967 373.314 423.451C371.062 418.942 367.536 414.858 362.984 412.102C358.444 409.338 352.907 408.048 347.367 408.386C341.835 408.714 336.233 410.661 331.732 414.272L331.827 414.072C331.828 423.823 331.829 433.882 331.831 444.142C331.83 455.647 331.828 466.9 331.826 477.73L331.569 477.474C384.537 477.362 429.257 477.268 454.571 477.215L454.446 477.326C454.913 473.687 454.267 470.39 453.28 467.75C452.271 465.099 450.909 463.072 449.658 461.588C448.395 460.101 447.223 459.164 446.437 458.543C446.033 458.26 445.725 458.044 445.506 457.891C445.298 457.744 445.197 457.662 445.197 457.662Z" fill="#3A3A3A"/>
<path d="M445.079 313.256C443.206 311.074 440.542 309.666 437.67 309.526C434.353 309.365 430.968 310.376 428.383 312.47C424.327 315.757 422.473 321.529 423.856 326.564C417.575 324.283 409.879 328.065 407.526 334.32C405.173 340.575 408.218 348.266 414.049 351.531C419.88 354.796 427.771 353.54 432.567 348.886C436.045 355.564 445.314 358.447 451.967 354.921C458.62 351.394 461.435 342.104 457.86 335.477C464.283 334.639 469.757 329.001 470.405 322.555C471.053 316.11 466.811 309.495 460.684 307.395C454.557 305.295 448.521 307.769 445.079 313.256Z" fill="white"/>
<path d="M445.079 313.256C445.073 313.252 445.118 313.174 445.212 313.022C445.321 312.853 445.461 312.634 445.642 312.353C446.048 311.784 446.669 310.938 447.671 310.02C448.661 309.1 450.033 308.089 451.864 307.358C452.787 307.02 453.809 306.73 454.931 306.597C456.052 306.478 457.257 306.49 458.506 306.685C460.99 307.097 463.661 308.27 465.868 310.371C468.061 312.454 469.844 315.392 470.471 318.847C471.13 322.293 470.284 326.211 468.026 329.406C466.892 330.995 465.438 332.416 463.726 333.539C462.01 334.652 460.012 335.424 457.893 335.729L458.085 335.354C461.103 340.939 459.769 348.91 454.445 353.56C451.783 355.869 448.086 356.957 444.476 356.652C440.868 356.369 437.268 354.83 434.629 352.157C433.678 351.237 432.951 350.126 432.316 349.015L432.762 349.087C428.515 353.142 422.231 354.573 416.915 353.008C414.24 352.271 411.881 350.668 410.146 348.642C409.287 347.618 408.563 346.502 407.983 345.327C407.428 344.14 407.017 342.904 406.751 341.648C406.509 340.387 406.435 339.112 406.504 337.857C406.6 336.602 406.88 335.383 407.29 334.225C408.19 331.929 409.728 329.99 411.579 328.594C413.407 327.157 415.555 326.291 417.688 325.873C419.838 325.506 422.008 325.677 423.927 326.362L423.649 326.619C422.946 324.033 423.115 321.4 423.807 319.111C424.503 316.815 425.705 314.818 427.206 313.322C428.686 311.798 430.452 310.803 432.153 310.198C433.865 309.597 435.53 309.378 437.016 309.389C440.035 309.392 442.178 310.638 443.386 311.581C444.617 312.559 445.079 313.256 445.079 313.256C445.07 313.264 444.928 313.115 444.649 312.831C444.364 312.553 443.935 312.143 443.312 311.682C442.092 310.78 439.971 309.595 437.017 309.629C435.556 309.636 433.923 309.869 432.253 310.473C430.592 311.082 428.88 312.067 427.451 313.561C426.001 315.028 424.843 316.983 424.179 319.221C423.519 321.454 423.371 324.012 424.063 326.506L424.172 326.899L423.785 326.763C421.937 326.115 419.848 325.959 417.773 326.321C415.715 326.735 413.637 327.58 411.877 328.976C410.092 330.331 408.621 332.205 407.766 334.403C407.378 335.516 407.111 336.686 407.021 337.893C406.958 339.1 407.032 340.329 407.268 341.546C407.528 342.757 407.927 343.95 408.465 345.096C409.028 346.23 409.729 347.306 410.559 348.291C412.238 350.241 414.493 351.77 417.072 352.478C422.191 353.985 428.291 352.588 432.373 348.682L432.634 348.432L432.819 348.754C433.428 349.814 434.12 350.878 435.034 351.761C437.564 354.327 441.044 355.819 444.522 356.093C448.006 356.387 451.536 355.349 454.09 353.141C456.646 350.937 458.255 347.852 458.875 344.706C459.508 341.546 459.04 338.279 457.637 335.597L457.468 335.273L457.829 335.222C459.865 334.933 461.796 334.196 463.461 333.124C465.121 332.042 466.536 330.67 467.642 329.132C469.842 326.037 470.674 322.266 470.054 318.919C469.463 315.562 467.742 312.683 465.615 310.638C463.474 308.574 460.885 307.413 458.457 306.987C457.238 306.786 456.061 306.763 454.963 306.868C453.865 306.987 452.861 307.259 451.951 307.58C450.145 308.275 448.779 309.249 447.783 310.14C445.782 311.949 445.149 313.316 445.079 313.256Z" fill="#3A3A3A"/>
<path d="M125.289 137.955C126.643 133.524 125.322 128.385 121.998 125.156C118.675 121.927 113.5 120.755 109.109 122.236C109.198 117.302 106.368 112.425 102.04 110.054C97.712 107.683 92.078 107.924 87.968 110.656C85.66 106.245 79.529 104.349 75.133 106.687C70.738 109.025 68.883 115.169 71.251 119.548C67.649 118.657 63.564 120.32 61.608 123.474C59.653 126.627 59.98 131.027 62.379 133.857C55.191 130.69 45.747 137.057 45.986 144.908L133.257 144.655C132.635 143.489 130.483 138.163 125.289 137.955Z" fill="white"/>
<path d="M125.289 137.955C125.289 137.955 125.543 137.967 126.002 138C126.456 138.042 127.163 138.187 128.02 138.548C128.877 138.913 129.859 139.579 130.788 140.599C131.737 141.601 132.571 142.994 133.354 144.604L133.432 144.764L133.258 144.765C117.565 144.837 84.988 144.987 45.988 145.166L45.728 145.167L45.73 144.916C45.742 143.521 45.95 142.104 46.495 140.781C47.061 139.48 47.801 138.225 48.795 137.172C50.745 135.05 53.402 133.491 56.329 132.967C58.392 132.589 60.573 132.776 62.486 133.62L62.183 134.026C59.633 130.989 59.402 126.394 61.499 123.182C63.612 119.971 67.729 118.423 71.314 119.304L71.031 119.669C68.461 114.76 70.831 108.321 75.538 106.237C80.27 104.176 85.989 106.391 88.17 110.552L87.846 110.469C92.711 107.298 98.989 107.645 103.121 110.484C107.315 113.325 109.368 118.076 109.279 122.239L109.057 122.076C113.315 120.694 117.554 121.764 120.379 123.687C123.28 125.635 124.742 128.428 125.376 130.703C126.025 133.017 125.916 134.906 125.737 136.125C125.634 136.738 125.533 137.2 125.436 137.49C125.344 137.789 125.289 137.955 125.289 137.955C125.289 137.955 125.316 137.81 125.388 137.498C125.47 137.183 125.557 136.722 125.643 136.113C125.792 134.899 125.868 133.03 125.2 130.755C124.547 128.517 123.083 125.791 120.231 123.908C117.453 122.044 113.293 121.03 109.163 122.396L108.938 122.47L108.94 122.233C108.959 120.195 108.486 118.043 107.478 116.034C106.469 114.032 104.921 112.17 102.897 110.815C98.89 108.077 92.778 107.766 88.093 110.843L87.884 110.98L87.769 110.76C85.711 106.822 80.192 104.706 75.733 106.676C71.295 108.625 69.031 114.821 71.473 119.428L71.738 119.929L71.19 119.793C67.827 118.961 63.9 120.444 61.928 123.462C59.957 126.467 60.18 130.849 62.578 133.688L63.304 134.548L62.274 134.094C60.463 133.295 58.393 133.116 56.418 133.478C53.617 133.978 51.05 135.482 49.177 137.52C48.22 138.531 47.514 139.733 46.973 140.973C46.453 142.233 46.258 143.577 46.243 144.899L45.985 144.649C84.986 144.602 117.563 144.563 133.256 144.545L133.16 144.706C132.387 143.08 131.587 141.714 130.663 140.711C129.762 139.695 128.809 139.026 127.972 138.651C126.29 137.917 125.246 138.015 125.289 137.955Z" fill="#3A3A3A"/>
<path d="M454.865 187.855C456.03 184.04 454.893 179.617 452.032 176.837C449.171 174.057 444.716 173.048 440.937 174.324C441.014 170.077 438.577 165.878 434.852 163.837C431.126 161.796 426.276 162.004 422.738 164.355C420.751 160.558 415.473 158.926 411.689 160.938C407.905 162.951 406.309 168.239 408.347 172.01C405.246 171.243 401.729 172.675 400.046 175.39C398.363 178.105 398.644 181.892 400.71 184.328C394.522 181.602 386.392 187.083 386.598 193.841L461.726 193.624C461.189 192.619 459.336 188.034 454.865 187.855Z" fill="white"/>
<path d="M454.865 187.855C454.865 187.855 455.084 187.865 455.479 187.894C455.87 187.93 456.479 188.055 457.216 188.365C457.954 188.679 458.799 189.253 459.599 190.131C460.416 190.994 461.134 192.193 461.808 193.578L461.875 193.716L461.725 193.717C448.216 193.779 420.172 193.908 386.598 194.062L386.374 194.063L386.376 193.847C386.386 192.646 386.565 191.426 387.034 190.287C387.521 189.167 388.158 188.087 389.014 187.18C390.693 185.353 392.98 184.011 395.499 183.56C397.275 183.235 399.153 183.395 400.799 184.122L400.538 184.472C398.343 181.857 398.144 177.902 399.949 175.137C401.768 172.373 405.312 171.04 408.398 171.799L408.155 172.113C405.942 167.887 407.983 162.344 412.035 160.55C416.108 158.776 421.032 160.682 422.909 164.265L422.63 164.194C426.818 161.464 432.223 161.763 435.78 164.207C439.39 166.653 441.158 170.743 441.081 174.327L440.89 174.187C444.556 172.997 448.205 173.918 450.637 175.574C453.134 177.251 454.393 179.655 454.939 181.613C455.498 183.605 455.404 185.231 455.249 186.281C455.16 186.808 455.074 187.206 454.99 187.456C454.912 187.713 454.865 187.855 454.865 187.855C454.865 187.855 454.888 187.73 454.95 187.462C455.02 187.191 455.096 186.794 455.17 186.269C455.298 185.224 455.364 183.615 454.789 181.656C454.227 179.73 452.966 177.382 450.511 175.762C448.119 174.158 444.539 173.285 440.983 174.461L440.79 174.525L440.792 174.321C440.808 172.566 440.401 170.714 439.533 168.984C438.665 167.261 437.332 165.657 435.589 164.491C432.14 162.134 426.878 161.866 422.845 164.515L422.665 164.633L422.566 164.443C420.794 161.053 416.043 159.231 412.205 160.927C408.385 162.605 406.436 167.939 408.538 171.905L408.766 172.336L408.294 172.219C405.399 171.503 402.019 172.779 400.32 175.377C398.624 177.964 398.816 181.736 400.88 184.181L401.505 184.921L400.619 184.53C399.06 183.842 397.278 183.688 395.578 183.999C393.167 184.429 390.957 185.724 389.345 187.479C388.521 188.35 387.914 189.384 387.448 190.451C387 191.536 386.833 192.693 386.82 193.831L386.598 193.616C420.172 193.576 448.217 193.542 461.726 193.526L461.643 193.664C460.977 192.264 460.289 191.088 459.493 190.225C458.717 189.351 457.897 188.775 457.176 188.451C455.727 187.823 454.828 187.907 454.865 187.855Z" fill="#3A3A3A"/>
<path d="M304.316 54.397C303.472 51.633 304.296 48.429 306.368 46.416C308.44 44.402 311.667 43.672 314.405 44.595C314.349 41.518 316.114 38.477 318.813 36.998C321.512 35.52 325.025 35.67 327.588 37.373C329.027 34.622 332.851 33.44 335.592 34.898C338.333 36.356 339.489 40.187 338.013 42.918C340.259 42.362 342.807 43.4 344.026 45.366C345.245 47.333 345.041 50.076 343.545 51.841C348.027 49.866 353.917 53.836 353.768 58.732L299.345 58.574C299.735 57.848 301.077 54.527 304.316 54.397Z" fill="white"/>
<path d="M304.316 54.397C304.353 54.438 303.689 54.391 302.651 54.851C301.594 55.306 300.349 56.573 299.443 58.627L299.347 58.466C309.093 58.416 329.429 58.418 353.77 58.475L353.512 58.725C353.623 55.406 350.679 52.309 347.246 51.702C346.031 51.48 344.761 51.59 343.651 52.079L342.62 52.534L343.348 51.673C344.814 49.94 344.952 47.247 343.747 45.412C342.543 43.566 340.13 42.654 338.075 43.163L337.526 43.299L337.793 42.798C339.292 39.982 337.9 36.164 335.183 34.974C332.454 33.763 329.05 35.064 327.79 37.477L327.675 37.698L327.466 37.56C324.578 35.659 320.798 35.846 318.323 37.534C315.8 39.222 314.538 42.085 314.576 44.591L314.58 44.829L314.354 44.754C311.803 43.905 309.224 44.527 307.5 45.678C305.731 46.84 304.817 48.527 304.407 49.916C303.987 51.327 304.029 52.49 304.115 53.246C304.214 54.001 304.341 54.417 304.316 54.397C304.314 54.372 304.149 54.031 304.02 53.259C303.902 52.498 303.828 51.316 304.23 49.866C304.622 48.44 305.533 46.686 307.352 45.459C309.123 44.248 311.781 43.57 314.461 44.435L314.239 44.598C314.179 41.981 315.464 38.995 318.101 37.204C320.702 35.414 324.648 35.191 327.715 37.186L327.391 37.269C328.774 34.632 332.378 33.232 335.381 34.534C338.367 35.86 339.865 39.92 338.238 43.038L337.955 42.673C340.232 42.114 342.836 43.092 344.179 45.131C345.51 47.173 345.365 50.079 343.746 52.01L343.443 51.604C344.655 51.069 346.036 50.951 347.339 51.19C349.188 51.521 350.862 52.504 352.092 53.843C352.719 54.508 353.187 55.3 353.545 56.123C353.889 56.96 354.022 57.857 354.028 58.741L354.03 58.992L353.77 58.991C329.43 58.907 309.094 58.791 299.348 58.685L299.179 58.683L299.252 58.524C300.187 56.478 301.509 55.172 302.606 54.747C303.143 54.525 303.59 54.436 303.87 54.415C304.151 54.399 304.316 54.397 304.316 54.397Z" fill="#3A3A3A"/>
<path d="M194.352 81.14L189.288 82.894C187.246 86.392 184.137 89.332 180.121 91.166C170.648 95.493 159.225 91.829 154.016 82.812C147.997 72.392 152.214 59.039 163.245 54.009C172.609 49.739 183.883 53.258 189.169 62.088C191.793 66.47 192.574 71.394 191.786 76.01L191.791 75.999L194.352 81.14Z" fill="white"/>
<path d="M194.352 81.14C194.352 81.14 194.284 81.022 194.167 80.799C194.045 80.563 193.875 80.236 193.657 79.813C193.21 78.939 192.562 77.671 191.725 76.034L191.86 76.032C191.86 76.032 191.857 76.039 191.855 76.042C191.838 76.08 191.793 76.096 191.756 76.079C191.725 76.065 191.708 76.03 191.714 75.998C192.115 73.515 192.222 70.067 190.948 66.257C190.321 64.36 189.335 62.409 187.973 60.543C186.596 58.69 184.796 56.962 182.617 55.57C180.433 54.189 177.866 53.164 175.083 52.687C172.307 52.215 169.299 52.256 166.382 53.085C163.466 53.886 160.641 55.387 158.242 57.497C155.827 59.594 153.936 62.385 152.77 65.5C152.138 67.064 151.821 68.716 151.586 70.348C151.529 71.17 151.46 71.992 151.466 72.808L151.524 74.029L151.556 74.636L151.648 75.236C152.07 78.441 153.277 81.438 154.976 83.975C156.667 86.529 158.96 88.524 161.402 89.973C163.856 91.42 166.503 92.296 169.081 92.649C171.664 92.993 174.17 92.827 176.428 92.294C176.986 92.134 177.534 91.976 178.073 91.821C178.608 91.654 179.111 91.422 179.617 91.231C180.624 90.833 181.544 90.329 182.398 89.81C185.826 87.7 187.953 84.995 189.226 82.858C189.235 82.843 189.25 82.831 189.265 82.826C190.884 82.285 192.143 81.863 193.015 81.572C193.438 81.433 193.766 81.325 194.003 81.247C194.227 81.174 194.352 81.14 194.352 81.14C194.352 81.14 194.252 81.184 194.038 81.263C193.807 81.347 193.488 81.464 193.078 81.614C192.203 81.928 190.938 82.381 189.313 82.963L189.352 82.931C188.099 85.099 185.977 87.852 182.523 90.01C181.662 90.541 180.735 91.056 179.718 91.466C179.206 91.662 178.698 91.9 178.157 92.072C177.611 92.232 177.056 92.394 176.492 92.56C174.206 93.112 171.663 93.292 169.041 92.952C166.423 92.603 163.732 91.723 161.234 90.259C158.748 88.794 156.412 86.769 154.685 84.173C152.952 81.595 151.72 78.546 151.287 75.283L151.194 74.672L151.161 74.054C151.141 73.641 151.121 73.227 151.101 72.811C151.094 71.981 151.164 71.144 151.222 70.307C151.46 68.645 151.784 66.964 152.426 65.371C153.613 62.199 155.541 59.358 158.001 57.225C160.445 55.078 163.321 53.555 166.291 52.745C169.262 51.907 172.321 51.871 175.141 52.359C177.968 52.852 180.572 53.902 182.783 55.311C184.99 56.732 186.809 58.494 188.195 60.379C189.567 62.278 190.553 64.258 191.175 66.183C192.439 70.047 192.298 73.528 191.862 76.024L191.72 75.98C191.722 75.976 191.725 75.969 191.725 75.969C191.742 75.932 191.786 75.915 191.824 75.932C191.84 75.939 191.853 75.953 191.86 75.967C192.672 77.639 193.3 78.934 193.734 79.827C193.936 80.249 194.093 80.576 194.205 80.812C194.308 81.032 194.352 81.14 194.352 81.14Z" fill="#3A3A3A"/>
<path d="M162.763 73.391L165.319 70.654L170.576 75.017L180.266 65.037L182.813 67.599L170.372 80.133L162.763 73.391Z" fill="#E75F62"/>
<path d="M335.652 242.25H197.966V477.798H335.652V242.25Z" fill="#3A3A3A"/>
<path d="M183.323 178.15C183.251 177.899 191.348 167.25 191.348 167.25L184.211 159.785L176.181 166.086L183.323 178.15Z" fill="#FFBF9D"/>
<path d="M313.551 123.93L315.423 130.451C315.423 130.451 319.429 136.386 320.841 137.098C321.211 137.284 321.567 137.563 321.91 137.689C323.177 138.153 324.851 137.703 324.507 136.213C324.507 136.213 325.823 136.409 326.46 135.159C327.031 134.04 325.789 132.678 325.789 132.678C325.789 132.678 327.229 133.045 327.881 132.065C328.42 131.255 327.654 130.194 327.654 130.194C327.654 130.194 328.301 129.087 327.977 128.481C327.653 127.875 326.395 126.636 326.395 126.636C326.395 126.636 325.005 123.436 323.79 121.657C322.638 119.971 320.742 118.6 320.742 118.6L313.551 123.93Z" fill="#FFBF9D"/>
<path d="M327.806 130.327C327.854 130.232 327.216 129.837 326.571 129.199C325.918 128.568 325.508 127.94 325.415 127.99C325.328 128.029 325.616 128.781 326.316 129.461C327.01 130.144 327.769 130.415 327.806 130.327Z" fill="#FF9A6C"/>
<path d="M326.049 132.874C326.094 132.778 325.471 132.416 324.829 131.828C324.181 131.246 323.76 130.662 323.669 130.716C323.583 130.759 323.887 131.472 324.584 132.099C325.276 132.731 326.015 132.964 326.049 132.874Z" fill="#FF9A6C"/>
<path d="M320.839 132.58C320.74 132.608 321.167 133.757 322.243 134.74C323.299 135.723 324.339 136.245 324.384 136.171C324.449 136.077 323.507 135.419 322.494 134.475C321.468 133.537 320.932 132.537 320.839 132.58Z" fill="#FF9A6C"/>
<path d="M65.906 299.894C65.814 300.086 64.647 302.295 64.966 303.095C65.286 303.896 66.285 304.021 66.285 304.021C66.285 304.021 66.399 305.136 67.074 305.694C67.749 306.253 68.869 306.208 68.869 306.208L69.409 306.845C70.199 307.778 70.955 307.585 70.955 307.585C70.955 307.585 71.913 307.177 72.778 307.448C73.643 307.719 75.435 305.622 76.377 304.649C77.375 303.619 78.597 302.394 77.952 300.356C77.087 297.623 75.956 294.078 75.956 294.078L77.777 288.91L68.863 289.208L68.469 291.462C68.469 291.462 67.244 292.053 66.385 294.586C65.526 297.121 65.906 299.894 65.906 299.894Z" fill="#CAA294"/>
<path d="M75.438 294.266C75.438 294.266 77.977 300.165 77.953 300.357C77.929 300.549 75.444 305.74 74.253 306.528C73.062 307.315 71.499 308.197 71.499 308.197C71.499 308.197 70.163 307.557 71.306 305.593C72.45 303.629 73.785 301.676 73.785 301.676L72.939 299.641C72.939 299.641 68.574 297.422 69.773 293.056" fill="#CAA294"/>
<path d="M69.773 293.054C69.76 293.05 69.708 293.239 69.621 293.601C69.566 293.78 69.546 294.009 69.526 294.279C69.485 294.549 69.517 294.861 69.539 295.211C69.625 295.905 69.889 296.743 70.445 297.557C71.007 298.363 71.814 299.149 72.88 299.754L72.819 299.688C73.085 300.336 73.364 301.018 73.655 301.727L73.669 301.594C73.05 302.501 72.413 303.475 71.775 304.512C71.467 305.037 71.113 305.542 70.863 306.16C70.751 306.469 70.67 306.805 70.697 307.158C70.72 307.509 70.872 307.864 71.136 308.116C71.226 308.203 71.316 308.272 71.432 308.334L71.504 308.372L71.575 308.329C72.082 308.022 72.582 307.718 73.075 307.419C73.321 307.269 73.566 307.121 73.808 306.973C74.049 306.812 74.294 306.712 74.526 306.495C74.96 306.09 75.255 305.626 75.556 305.177C75.852 304.726 76.112 304.269 76.366 303.824C76.864 302.928 77.306 302.063 77.696 301.241C77.791 301.033 77.884 300.83 77.975 300.629L78.041 300.47C78.052 300.436 78.065 300.402 78.072 300.367C78.067 300.327 78.06 300.287 78.05 300.247C78.011 300.125 77.976 300.034 77.937 299.932C77.777 299.543 77.624 299.168 77.477 298.81C76.876 297.39 76.371 296.252 76.017 295.468C75.848 295.102 75.71 294.805 75.601 294.569C75.502 294.365 75.446 294.26 75.436 294.264C75.426 294.268 75.464 294.381 75.544 294.593C75.639 294.835 75.759 295.14 75.907 295.514C76.246 296.349 76.709 297.493 77.276 298.892C77.416 299.251 77.562 299.625 77.715 300.015L77.814 300.301L77.82 300.32L77.825 300.329L77.828 300.334C77.84 300.337 77.795 300.333 77.89 300.346C77.81 300.341 77.831 300.347 77.826 300.351L77.82 300.364L77.81 300.39L77.749 300.531C77.656 300.727 77.562 300.927 77.466 301.131C77.068 301.942 76.62 302.8 76.119 303.685C75.863 304.124 75.603 304.576 75.309 305.017C75.016 305.452 74.71 305.916 74.326 306.269C74.153 306.439 73.872 306.567 73.643 306.717C73.402 306.863 73.158 307.01 72.913 307.158C72.423 307.455 71.925 307.756 71.422 308.06L71.565 308.055C71.504 308.022 71.417 307.96 71.351 307.894C70.915 307.489 70.936 306.817 71.151 306.268C71.371 305.714 71.728 305.19 72.032 304.67C72.663 303.637 73.293 302.659 73.9 301.754L73.943 301.69L73.914 301.621C73.616 300.915 73.33 300.235 73.058 299.59L73.04 299.548L72.996 299.524C71.978 298.962 71.169 298.202 70.616 297.437C70.065 296.661 69.792 295.863 69.686 295.192C69.529 293.832 69.84 293.061 69.773 293.054Z" fill="#9A7E77"/>
<path d="M96.2323 308.788L44.7676 307.774L44.0511 344.134L95.5159 345.148L96.2323 308.788Z" fill="#3A3A3A"/>
<path d="M90.279 308.853C90.293 308.864 90.181 309.037 89.956 309.356C89.694 309.719 89.362 310.177 88.954 310.741C88.069 311.931 86.834 313.693 85.096 315.716C83.355 317.733 81.032 319.945 78.071 321.888C75.116 323.785 71.42 325.445 67.278 325.595C63.122 325.757 59.324 324.137 56.441 322.129C53.517 320.108 51.373 317.705 49.717 315.63C48.068 313.537 46.886 311.737 46.08 310.491C45.711 309.9 45.411 309.42 45.174 309.041C44.973 308.705 44.875 308.524 44.89 308.514C44.905 308.504 45.033 308.666 45.261 308.983C45.519 309.348 45.846 309.81 46.248 310.378C47.104 311.588 48.331 313.351 50.004 315.399C51.684 317.43 53.832 319.775 56.712 321.733C59.557 323.683 63.247 325.232 67.26 325.075C71.268 324.931 74.89 323.33 77.811 321.484C80.737 319.595 83.063 317.436 84.819 315.472C86.576 313.499 87.857 311.77 88.792 310.617C89.232 310.077 89.589 309.638 89.872 309.291C90.125 308.994 90.264 308.842 90.279 308.853Z" fill="#3A3A3A"/>
<path d="M57.249 311.259C57.242 311.003 59.096 302.57 62.84 299.188C64.897 297.33 69.268 295.664 73.785 301.675L72.21 303.896C72.21 303.896 67.465 297.369 64.745 300.625C63.282 302.377 60.646 306.418 60.47 310.534L57.249 311.259Z" fill="#3A3A3A"/>
<path d="M72.152 303.974C72.443 303.672 72.683 303.322 72.862 302.943C73.043 302.558 73.154 302.088 72.939 301.721C72.762 301.419 72.39 301.265 72.041 301.288C71.692 301.311 71.367 301.489 71.106 301.722C70.845 301.955 70.639 302.242 70.436 302.527" fill="#CAA294"/>
<path d="M70.434 302.527C70.383 302.488 70.485 302.183 70.814 301.748C70.983 301.536 71.233 301.291 71.6 301.14C71.959 300.986 72.487 300.973 72.892 301.286C73.331 301.611 73.362 302.199 73.252 302.547C73.149 302.923 72.971 303.196 72.815 303.414C72.489 303.848 72.197 304.023 72.151 303.974C72.096 303.921 72.284 303.662 72.501 303.221C72.606 303 72.732 302.729 72.784 302.442C72.839 302.151 72.793 301.861 72.573 301.699C72.081 301.327 71.414 301.686 71.08 302.002C70.721 302.328 70.496 302.575 70.434 302.527Z" fill="#9A7E77"/>
<path d="M68.597 300.142C68.922 299.657 69.482 299.262 70.123 299.196C70.765 299.13 71.458 299.46 71.619 299.995C71.755 300.449 71.511 300.924 71.259 301.347C70.549 302.538 69.73 303.682 68.812 304.764" fill="#CAA294"/>
<path d="M68.813 304.763C68.687 304.669 70.024 303.029 71.242 300.835C71.531 300.292 71.411 299.833 70.97 299.598C70.555 299.356 70.078 299.364 69.715 299.479C68.969 299.723 68.662 300.199 68.597 300.141C68.545 300.13 68.734 299.532 69.587 299.134C70.001 298.95 70.622 298.876 71.201 299.178C71.483 299.323 71.779 299.586 71.879 299.979C71.98 300.367 71.86 300.751 71.713 301.06C70.425 303.378 68.908 304.846 68.813 304.763Z" fill="#9A7E77"/>
<path d="M66.072 299.793C66.247 299.352 66.63 298.841 67.018 298.568C67.406 298.295 67.915 298.175 68.369 298.313C68.823 298.451 69.195 298.871 69.215 299.345C69.232 299.755 69.005 300.13 68.781 300.474C68.082 301.544 67.307 302.875 66.499 303.865" fill="#CAA294"/>
<path d="M66.5 303.866C66.443 303.818 66.741 303.365 67.188 302.614C67.453 302.169 67.714 301.731 67.977 301.291C68.248 300.794 68.686 300.235 68.899 299.711C69.113 299.193 68.736 298.68 68.286 298.541C67.825 298.396 67.334 298.567 67.023 298.799C66.37 299.307 66.143 299.833 66.072 299.795C66.014 299.783 66.106 299.181 66.789 298.514C67.138 298.196 67.734 297.908 68.419 298.08C68.758 298.171 69.073 298.393 69.279 298.72C69.495 299.043 69.531 299.516 69.391 299.88C69.261 300.248 69.051 300.53 68.884 300.788C68.715 301.044 68.549 301.296 68.383 301.548C68.061 302.033 67.762 302.467 67.494 302.821C66.96 303.53 66.553 303.911 66.5 303.866Z" fill="#9A7E77"/>
<path d="M70.497 325.592C70.497 326.967 69.382 328.082 68.007 328.082C66.632 328.082 65.517 326.967 65.517 325.592C65.517 324.217 66.632 323.102 68.007 323.102C69.382 323.102 70.497 324.217 70.497 325.592Z" fill="#3A3A3A"/>
<path d="M111.985 218.512C111.985 218.512 103.028 221.36 99.955 224.328C92.009 232.002 80.195 244.248 76.829 249.607C74.725 252.955 67.634 289.576 67.634 289.576L83.481 290.335L91.356 253.392L104.845 239.9L111.985 218.512Z" fill="#E0E0E0"/>
<path d="M182.728 307.14L192.517 315.936L194.058 316.876C194.058 316.876 204.716 301.954 207.92 302.553L199.63 335.586L196.976 334.823L179.194 323.196L182.728 307.14Z" fill="#3A3A3A"/>
<path d="M190.096 327.309C190.11 327.992 190.718 328.614 191.401 328.628C192.084 328.642 192.722 328.029 192.72 327.346C192.718 326.663 192.011 325.893 191.33 325.956C190.65 326.019 189.94 326.779 190.106 327.442" fill="#E0E0E0"/>
<path d="M199.813 335.62L197.159 334.857L206.1 303.471C206.1 303.471 207.109 302.161 208.103 302.587L199.813 335.62Z" fill="#3A3A3A"/>
<path d="M194.058 316.877C194.218 316.923 194.089 317.748 194.408 318.671C194.704 319.603 195.3 320.188 195.198 320.32C195.129 320.461 194.226 319.978 193.858 318.853C193.481 317.731 193.918 316.804 194.058 316.877Z" fill="#3A3A3A"/>
<path d="M196.36 313.772C196.526 313.774 196.624 314.542 197.169 315.261C197.692 315.996 198.396 316.319 198.348 316.478C198.335 316.636 197.363 316.51 196.702 315.604C196.035 314.702 196.205 313.737 196.36 313.772Z" fill="#3A3A3A"/>
<path d="M201.001 312.845C200.999 313 200.136 313.022 199.357 312.386C198.573 311.755 198.415 310.907 198.567 310.873C198.722 310.815 199.074 311.424 199.721 311.936C200.356 312.463 201.025 312.68 201.001 312.845Z" fill="#3A3A3A"/>
<path d="M190.092 316.19C190.222 316.294 189.814 316.979 189.647 317.906C189.461 318.83 189.589 319.616 189.43 319.666C189.29 319.73 188.867 318.887 189.079 317.798C189.281 316.707 189.984 316.079 190.092 316.19Z" fill="#3A3A3A"/>
<path d="M141.514 175.967C142.576 175.01 144.275 174.846 145.501 175.582C147.506 174.937 149.903 175.889 150.921 177.733C152.347 177.479 153.888 178.024 154.837 179.117C155.787 180.21 156.111 181.812 155.66 183.188C157.097 183.481 158.276 184.761 158.451 186.217C158.626 187.673 157.783 189.196 156.456 189.82C157.752 190.853 158.089 192.903 157.192 194.296C156.295 195.69 154.289 196.231 152.812 195.478L140.716 179.892C140.111 178.596 140.452 176.924 141.514 175.967Z" fill="#3A3A3A"/>
<path d="M153.105 195.452C155.16 188.261 151.348 180.698 144.346 178.072L143.65 177.811C135.983 175.435 129.682 180.619 127.519 188.349L119.171 215.229L124.972 229.952L134.481 225.251L137.219 218.565C137.219 218.565 144.852 220.149 147.646 212.971C148.996 209.504 151.194 202.14 153.105 195.452Z" fill="#CAA294"/>
<path d="M137.206 219.214C137.206 219.214 132.574 217.769 128.871 212.909C128.871 212.909 129.128 218.941 136.491 220.985L137.206 219.214Z" fill="#9A7E77"/>
<path d="M148.511 201.989C148.327 202.54 147.707 202.838 147.128 202.656C146.55 202.474 146.23 201.88 146.415 201.329C146.6 200.778 147.219 200.479 147.797 200.661C148.376 200.843 148.695 201.438 148.511 201.989Z" fill="#3A3A3A"/>
<path d="M150.175 199.438C149.997 199.524 149.434 198.654 148.324 198.242C147.222 197.814 146.195 198.079 146.126 197.898C146.089 197.816 146.311 197.622 146.761 197.497C147.206 197.371 147.894 197.344 148.583 197.606C149.272 197.869 149.757 198.341 149.993 198.726C150.236 199.115 150.26 199.401 150.175 199.438Z" fill="#3A3A3A"/>
<path d="M138.835 198.901C138.65 199.452 138.031 199.75 137.452 199.567C136.874 199.385 136.554 198.792 136.739 198.24C136.924 197.689 137.543 197.391 138.121 197.573C138.7 197.755 139.02 198.35 138.835 198.901Z" fill="#3A3A3A"/>
<path d="M139.631 195.307C139.453 195.393 138.888 194.523 137.78 194.111C136.678 193.683 135.651 193.948 135.582 193.767C135.546 193.685 135.765 193.491 136.218 193.366C136.663 193.24 137.351 193.213 138.04 193.475C138.729 193.738 139.214 194.21 139.451 194.595C139.691 194.984 139.716 195.27 139.631 195.307Z" fill="#3A3A3A"/>
<path d="M136.148 205.61C136.344 205.584 136.607 206.587 137.53 207.327C138.442 208.079 139.5 208.15 139.509 208.344C139.518 208.433 139.248 208.549 138.78 208.525C138.318 208.505 137.657 208.314 137.084 207.849C136.513 207.383 136.2 206.783 136.097 206.343C135.989 205.898 136.055 205.618 136.148 205.61Z" fill="#3A3A3A"/>
<path d="M140.201 204.889C140.22 204.824 140.953 204.963 142.123 205.239C142.417 205.316 142.706 205.36 142.826 205.185C142.969 205.006 142.965 204.656 142.952 204.275C142.943 203.491 142.934 202.668 142.923 201.806C142.912 198.302 143.017 195.464 143.158 195.465C143.299 195.466 143.423 198.307 143.434 201.81C143.43 202.671 143.427 203.493 143.423 204.278C143.409 204.64 143.457 205.074 143.153 205.444C142.997 205.627 142.732 205.703 142.533 205.683C142.331 205.67 142.171 205.614 142.027 205.57C140.88 205.209 140.181 204.953 140.201 204.889Z" fill="#3A3A3A"/>
<path d="M140.816 190.559C140.687 190.871 139.658 190.634 138.421 190.701C137.183 190.739 136.163 191.064 136.024 190.763C135.963 190.619 136.16 190.332 136.584 190.054C137.005 189.777 137.66 189.533 138.402 189.501C139.144 189.47 139.806 189.657 140.235 189.899C140.667 190.139 140.873 190.41 140.816 190.559Z" fill="#3A3A3A"/>
<path d="M151.064 196.304C150.79 196.506 150.082 196.014 149.143 195.734C148.213 195.421 147.352 195.413 147.245 195.09C147.202 194.936 147.401 194.712 147.82 194.567C148.233 194.421 148.865 194.385 149.508 194.588C150.15 194.793 150.645 195.186 150.898 195.545C151.154 195.906 151.188 196.203 151.064 196.304Z" fill="#3A3A3A"/>
<path d="M153.652 192.527C153.652 192.527 153.444 187.298 151.662 185.427C149.504 183.162 147.284 185.63 145.035 183.986C142.786 182.341 140.729 180.173 137.433 181.152C133.826 182.224 134.583 184.209 133.209 187.343C127.639 200.051 123.894 202.831 125.512 196.468C125.689 195.771 124.031 194.542 124.817 191.61C125.836 187.809 127.365 183.303 129.16 181.007C130.673 179.072 132.492 178.026 135.362 177.196C139.892 175.886 144.777 177.654 147.955 179.225C151.132 180.796 156.074 186.985 153.652 192.527Z" fill="#3A3A3A"/>
<path d="M126.045 196.444C126.417 195.314 125.788 194.076 124.639 193.765C123.246 193.388 121.463 193.591 120.51 196.403C118.818 201.392 124.176 202.061 124.233 201.921C124.272 201.827 125.356 198.538 126.045 196.444Z" fill="#CAA294"/>
<path d="M123.784 199.677C123.767 199.654 123.676 199.708 123.507 199.726C123.342 199.743 123.08 199.705 122.853 199.519C122.391 199.147 122.231 198.16 122.512 197.252C122.653 196.794 122.895 196.394 123.177 196.09C123.453 195.777 123.775 195.602 124.057 195.645C124.342 195.673 124.476 195.896 124.489 196.057C124.509 196.219 124.443 196.308 124.467 196.326C124.477 196.343 124.602 196.278 124.632 196.059C124.645 195.953 124.626 195.815 124.542 195.68C124.455 195.542 124.296 195.433 124.104 195.39C123.71 195.286 123.244 195.523 122.934 195.856C122.602 196.183 122.32 196.63 122.161 197.144C121.852 198.16 122.048 199.276 122.698 199.728C123.018 199.939 123.346 199.932 123.538 199.866C123.734 199.794 123.798 199.691 123.784 199.677Z" fill="#9A7E77"/>
<path d="M129.725 186.929C130.201 187.606 130.709 188.311 131.452 188.676C132.195 189.042 133.243 188.93 133.66 188.214C133.847 187.893 133.913 187.463 134.238 187.283C134.626 187.068 135.085 187.353 135.482 187.552C136.858 188.242 138.706 187.778 139.594 186.521C139.754 187.205 140.616 187.502 141.303 187.353C141.99 187.204 142.565 186.754 143.184 186.42C143.803 186.087 144.577 185.871 145.194 186.208C145.539 186.397 145.799 186.742 146.178 186.846C146.847 187.032 147.448 186.392 147.787 185.786C148.126 185.18 148.484 184.459 149.163 184.315C149.792 184.182 150.381 184.616 150.944 184.927C151.507 185.238 152.329 185.387 152.7 184.862C152.895 184.586 152.884 184.215 152.815 183.885C152.501 182.389 151.028 181.224 149.499 181.262C149.628 179.452 148.58 177.613 146.957 176.801C145.334 175.989 143.234 176.253 141.862 177.441C141.175 176.105 139.809 175.14 138.32 174.938C136.831 174.736 135.258 175.303 134.24 176.408C133.159 175.643 131.618 175.594 130.491 176.289C129.364 176.984 128.716 178.383 128.914 179.693C127.838 179.867 126.749 180.463 126.348 181.476C125.947 182.49 126.56 183.879 127.645 183.98C126.949 184.625 126.868 185.825 127.472 186.558C128.075 187.291 129.268 187.442 130.035 186.883" fill="#3A3A3A"/>
<path d="M127.287 183.835C127.275 183.815 127.041 184.215 127.239 184.898C127.341 185.225 127.579 185.615 128.006 185.858C128.422 186.099 129.007 186.194 129.565 185.977L129.368 185.868C129.453 186.384 129.612 186.937 129.891 187.467C130.071 187.805 130.295 188.12 130.58 188.362C130.855 188.612 131.219 188.763 131.538 188.827C132.189 188.992 132.86 188.861 133.267 188.545C133.681 188.241 133.904 187.898 134.051 187.669C134.196 187.435 134.254 187.295 134.239 187.285C134.219 187.272 134.127 187.392 133.955 187.6C133.783 187.804 133.537 188.115 133.148 188.367C132.416 188.899 130.758 188.689 130.159 187.325C129.9 186.833 129.742 186.308 129.653 185.821L129.621 185.643L129.456 185.711C128.999 185.9 128.491 185.838 128.125 185.644C127.752 185.451 127.525 185.128 127.409 184.839C127.181 184.24 127.335 183.838 127.287 183.835Z" fill="#3A3A3A"/>
<path d="M140.826 176.069C140.817 176.085 140.942 176.152 141.127 176.328C141.307 176.503 141.555 176.807 141.649 177.266L141.673 177.382L141.775 177.316C142.468 176.871 143.538 176.366 144.883 176.28C145.55 176.241 146.279 176.316 146.984 176.582C147.687 176.842 148.347 177.32 148.848 177.962C149.238 178.46 149.509 179.03 149.649 179.607C149.78 180.186 149.773 180.771 149.634 181.297L149.591 181.459L149.756 181.474C150.574 181.548 151.274 181.975 151.711 182.492C152.157 183.012 152.337 183.617 152.381 184.113C152.453 185.129 152.087 185.677 152.141 185.689C152.151 185.695 152.244 185.572 152.352 185.308C152.456 185.046 152.573 184.634 152.551 184.102C152.53 183.577 152.36 182.918 151.891 182.342C151.432 181.771 150.684 181.29 149.781 181.196L149.903 181.373C150.063 180.804 150.076 180.166 149.939 179.541C149.793 178.919 149.504 178.308 149.087 177.776C148.553 177.092 147.841 176.58 147.087 176.308C146.334 176.031 145.563 175.963 144.866 176.016C143.461 176.131 142.371 176.689 141.684 177.181L141.81 177.231C141.681 176.731 141.392 176.425 141.185 176.263C140.97 176.099 140.83 176.059 140.826 176.069Z" fill="#3A3A3A"/>
<path d="M120.602 406.552L121.746 424.365C121.746 424.365 135.9 439.861 134.796 443.106L101.665 429.516L102.858 426.869L106.089 419.795L103.102 406.985L120.602 406.552Z" fill="#3A3A3A"/>
<path d="M109.624 421.656C108.911 421.569 108.172 422.108 108.055 422.816C107.897 423.769 108.932 424.808 109.968 424.222C110.825 423.737 111.015 422.524 110.248 421.906C110.023 421.725 109.756 421.619 109.484 421.647" fill="#E0E0E0"/>
<path d="M101.665 429.515L102.858 426.868L134.177 440.888C134.177 440.888 135.389 442.135 134.796 443.105L101.665 429.515Z" fill="#3A3A3A"/>
<path d="M123.255 426.355C123.183 426.515 122.344 426.256 121.335 426.45C120.32 426.617 119.623 427.15 119.5 427.025C119.364 426.933 120.002 426.064 121.228 425.851C122.452 425.626 123.351 426.221 123.255 426.355Z" fill="#3A3A3A"/>
<path d="M125.75 429.102C125.723 429.274 124.909 429.262 124.079 429.721C123.235 430.156 122.793 430.838 122.635 430.765C122.473 430.728 122.749 429.735 123.792 429.184C124.83 428.623 125.81 428.946 125.75 429.102Z" fill="#3A3A3A"/>
<path d="M125.619 434.067C125.458 434.041 125.564 433.14 126.343 432.425C127.117 431.704 128.023 431.667 128.036 431.83C128.073 432 127.387 432.274 126.756 432.872C126.112 433.454 125.786 434.117 125.619 434.067Z" fill="#3A3A3A"/>
<path d="M121.597 421.779C121.528 421.94 120.719 421.719 119.733 421.812C118.744 421.884 117.984 422.235 117.889 422.088C117.785 421.964 118.519 421.298 119.682 421.206C120.845 421.103 121.679 421.639 121.597 421.779Z" fill="#3A3A3A"/>
<path d="M79.139 280.478C79.139 280.478 75.777 285.79 74.901 291.394C74.426 294.433 73.599 300.356 75.818 306.854C77.134 310.708 95.418 360.32 95.418 360.32L97.509 386.374L103.83 419.062L123.627 418.09C123.627 418.09 121.801 366.613 121.006 359.055C120.149 350.903 109.07 300.758 109.07 300.758L116.299 282.706L82.667 271.487L79.139 280.478Z" fill="#3A3A3A"/>
<path d="M134.553 441.371C134.493 441.502 127.349 438.361 118.598 434.357C109.844 430.351 102.798 426.999 102.858 426.868C102.918 426.737 110.061 429.877 118.815 433.883C127.565 437.887 134.613 441.24 134.553 441.371Z" fill="#3A3A3A"/>
<path d="M123.629 418.132C123.636 418.276 119.209 418.6 113.743 418.857C108.275 419.114 103.838 419.206 103.832 419.062C103.825 418.919 108.251 418.594 113.719 418.337C119.184 418.08 123.622 417.988 123.629 418.132Z" fill="#3A3A3A"/>
<path d="M138.557 220.991L137.437 218.464C130.017 215.369 124.602 212.279 120.082 212.357L116.589 215.773C112.543 218.311 104.607 222.211 102.47 225.203L92.667 244.144L79.132 275.893C77.882 277.834 75.211 280.704 78.179 283.559L105.188 286.584L114.791 286.748C116.751 286.493 121.902 287.939 122.516 284.763C123.603 279.144 141.394 241.371 142.669 236.43L142.111 228.301L138.557 220.991Z" fill="#E0E0E0"/>
<path d="M141.891 236.311C139.881 241.636 138.458 249.881 130.956 254.829C126.81 257.564 120.712 259.21 115.977 260.711C110.37 262.489 102.906 264.759 102.906 264.759L98.171 273.441L106.6 274.539C106.6 274.539 116.517 271.378 120.431 269.752C128.853 266.252 125.963 267.39 128.87 265.429C133.038 262.827 138.73 255.171 142.913 235.803" fill="#E75F62"/>
<path d="M122.018 222.083C122.01 222.159 121.008 222.102 119.395 222.027C117.782 221.961 115.553 221.883 113.1 222.015C110.645 222.13 108.442 222.451 106.87 222.791C105.297 223.128 104.348 223.447 104.316 223.361C104.304 223.327 104.53 223.217 104.952 223.045C105.37 222.86 105.998 222.66 106.782 222.433C108.354 221.996 110.587 221.611 113.072 221.495C115.555 221.362 117.805 221.499 119.42 221.66C121.038 221.829 122.025 222.015 122.018 222.083Z" fill="#3A3A3A"/>
<path d="M136.018 217.959C136.001 218.032 134.896 217.836 133.117 217.51C131.337 217.185 128.88 216.738 126.148 216.402C123.415 216.069 120.925 215.956 119.124 215.995C117.322 216.025 116.209 216.152 116.197 216.068C116.192 216.033 116.465 215.965 116.966 215.873C117.466 215.776 118.199 215.688 119.108 215.627C120.926 215.493 123.453 215.549 126.21 215.885C128.966 216.224 131.427 216.731 133.192 217.15C134.958 217.569 136.033 217.892 136.018 217.959Z" fill="#3A3A3A"/>
<path d="M102.47 225.202C102.486 225.21 102.394 225.421 102.206 225.814C101.989 226.253 101.708 226.819 101.36 227.522C100.604 229.064 99.557 231.199 98.276 233.813C95.701 239.14 92.277 246.561 88.43 254.733C86.501 258.818 84.633 262.696 82.868 266.192C81.985 267.939 81.137 269.596 80.309 271.129C79.498 272.672 78.682 274.072 78.082 275.41C77.478 276.745 77.088 278.023 76.96 279.173C76.833 280.324 76.938 281.333 77.15 282.119C77.582 283.707 78.304 284.367 78.241 284.401C78.241 284.401 78.055 284.258 77.796 283.901C77.541 283.546 77.192 282.982 76.954 282.174C76.705 281.373 76.566 280.335 76.669 279.144C76.773 277.951 77.15 276.631 77.743 275.262C78.333 273.888 79.134 272.473 79.925 270.927C80.734 269.389 81.566 267.728 82.436 265.977C84.174 262.474 86.028 258.593 87.956 254.51C91.801 246.342 95.281 238.94 97.942 233.65C99.271 231.004 100.384 228.882 101.177 227.428C101.561 226.744 101.871 226.192 102.11 225.765C102.332 225.387 102.454 225.193 102.47 225.202Z" fill="#3A3A3A"/>
<path d="M94.881 317.941C96.28 318.378 143.277 300.138 143.277 300.138L183.129 330.439L186.039 331.612L192.533 313.581C192.533 313.581 164.636 285.949 155.181 276.997C152.677 274.626 147.847 272.209 143.58 272.824C133.67 274.252 96.033 286.859 96.033 286.859L94.881 317.941Z" fill="#3A3A3A"/>
<path opacity="0.3" d="M97.189 313.771C97.189 313.771 101.955 317.129 107.759 316.873L112.477 316.386L111.558 312.137C111.558 312.137 100.325 314.279 97.189 313.771Z" fill="black"/>
<path d="M119.148 309.624C119.161 309.658 118.835 309.814 118.235 310.069C117.636 310.326 116.757 310.669 115.66 311.064C113.466 311.847 110.385 312.839 106.871 313.487C103.359 314.146 100.092 314.244 97.761 313.994C97.177 313.952 96.653 313.866 96.195 313.788C95.735 313.721 95.343 313.642 95.026 313.555C94.391 313.398 94.045 313.295 94.053 313.26C94.073 313.166 95.481 313.49 97.789 313.626C100.096 313.779 103.302 313.625 106.777 312.974C110.251 312.333 113.326 311.404 115.542 310.714C117.757 310.015 119.12 309.551 119.148 309.624Z" fill="#3A3A3A"/>
<path d="M144.03 293.314C144.177 293.354 143.856 294.845 143.769 296.705C143.669 298.564 143.838 300.08 143.688 300.105C143.556 300.135 143.146 298.608 143.249 296.679C143.341 294.75 143.902 293.271 144.03 293.314Z" fill="#3A3A3A"/>
<path d="M171.202 181.593L164.949 191.268L177.253 196.281L182.455 182.472L174.751 179.632L171.202 181.593Z" fill="#CAA294"/>
<path d="M165.938 173.355C165.938 173.355 165.441 172.565 165.725 171.55C166.009 170.535 167.342 169.534 167.342 169.534C167.342 169.534 167.839 172.566 167.757 172.614C167.675 172.663 165.938 173.355 165.938 173.355Z" fill="#CAA294"/>
<path d="M171.568 183.577L167.08 176.249L167.345 170.237C167.345 170.237 167.111 165.743 169.27 164.996C169.27 164.996 170.571 164.308 171.39 165.197C171.39 165.197 171.626 164.067 173.333 164.137L174.522 164.794C174.522 164.794 175.312 163.754 176.144 163.764C176.976 163.774 177.927 164.687 177.927 164.687C177.927 164.687 178.362 163.812 179.657 164.188C180.953 164.564 182.336 166.977 182.701 167.809C183.066 168.641 184.328 175.399 184.201 177.123C184.073 178.847 182.188 183.14 182.188 183.14L171.568 183.577Z" fill="#CAA294"/>
<path d="M167.734 170.708C167.734 170.708 165.586 172.715 165.133 173.301C164.68 173.886 164.406 175.425 164.073 176.095C163.74 176.765 162.776 177.57 163.582 178.126C164.389 178.683 165.474 178.298 166.059 177.674C166.645 177.051 168.579 172.976 168.579 172.976L167.734 170.708Z" fill="#FFBF9D"/>
<path d="M164.992 177.623C164.992 177.623 164.111 178.882 164.478 180.403C164.845 181.924 166.464 181.816 166.464 181.816C166.464 181.816 166.435 183.954 168.628 183.68C168.628 183.68 168.03 184.34 169.139 184.785L172.299 180.722C172.299 180.722 172.738 180.356 172.724 179.053C172.715 178.178 172.301 176.759 171.115 177.125C171.115 177.125 170.96 175.591 169.876 175.234C168.792 174.877 168.485 175.635 168.485 175.635C168.485 175.635 168.23 175.063 167.365 175.145C166.501 175.226 164.992 177.623 164.992 177.623Z" fill="#FFBF9D"/>
<path d="M121.923 237.192C118.751 233.574 118.098 227.783 121.826 223.696C122.414 223.052 123.107 222.478 123.925 222.023C129.161 219.109 154.696 209.845 154.696 209.845L167.767 184.785L181.582 187.957C181.582 187.957 171.299 219.602 163.653 224.284C154.87 229.662 139.628 237.961 134.085 239.707" fill="#E0E0E0"/>
<path d="M134.085 239.707C134.082 239.699 134.2 239.649 134.431 239.56C134.66 239.466 135.011 239.352 135.457 239.164C136.352 238.795 137.667 238.235 139.33 237.434C142.664 235.847 147.427 233.381 153.245 230.124C156.153 228.493 159.33 226.673 162.697 224.624C163.564 224.127 164.349 223.578 165.057 222.856C165.757 222.135 166.402 221.332 167.007 220.479C168.224 218.776 169.306 216.894 170.345 214.928C172.415 210.986 174.299 206.68 176.121 202.146C177.935 197.609 179.692 192.836 181.336 187.878L181.524 188.21C178.611 187.542 175.528 186.834 172.404 186.118C170.827 185.756 169.261 185.396 167.708 185.039L167.997 184.906C163.365 193.771 158.953 202.214 154.908 209.956L154.865 210.039L154.777 210.071C147.784 212.612 141.337 215.02 135.618 217.241C132.759 218.352 130.083 219.423 127.63 220.474C126.402 220.997 125.233 221.525 124.152 222.088C123.078 222.645 122.196 223.422 121.523 224.292C120.115 226 119.521 227.978 119.408 229.688C119.321 231.413 119.657 232.883 120.08 234.001C120.973 236.244 121.988 237.156 121.923 237.194C121.918 237.198 121.862 237.139 121.757 237.019C121.653 236.897 121.494 236.719 121.298 236.472C120.933 235.962 120.393 235.188 119.937 234.057C119.486 232.932 119.119 231.442 119.184 229.676C119.237 228.796 119.404 227.857 119.733 226.901C120.069 225.947 120.599 224.999 121.297 224.111C121.978 223.212 122.893 222.391 123.999 221.807C125.094 221.226 126.264 220.688 127.491 220.155C129.945 219.084 132.616 217.996 135.472 216.869C141.184 214.616 147.624 212.183 154.614 209.621L154.484 209.735C158.518 201.987 162.917 193.538 167.536 184.666L167.629 184.488L167.825 184.533C169.377 184.889 170.944 185.249 172.521 185.611C175.645 186.329 178.727 187.037 181.64 187.706L181.918 187.77L181.829 188.038C180.175 193.012 178.411 197.785 176.584 202.332C174.749 206.873 172.849 211.187 170.754 215.145C169.702 217.12 168.606 219.012 167.364 220.735C166.746 221.598 166.085 222.415 165.359 223.156C164.633 223.895 163.759 224.497 162.91 224.976C159.527 227.013 156.336 228.816 153.414 230.429C147.567 233.649 142.775 236.071 139.41 237.607C137.731 238.383 136.4 238.916 135.492 239.257C135.039 239.431 134.682 239.53 134.447 239.609C134.21 239.681 134.087 239.715 134.085 239.707Z" fill="#3A3A3A"/>
<path d="M238.538 141.756C236.321 143.073 206.799 164.368 204.265 171.612C201.731 178.856 211.189 231.297 211.189 231.297L232.222 230.275L226.63 180.431L268.641 155.556L271.475 129.573L238.538 141.756Z" fill="#3A3A3A"/>
<path d="M263.39 152.601L286.992 177.976C286.992 177.976 290.227 189.523 293.009 197.074C295.832 204.736 300.434 217.2 300.434 217.2L305.516 233.916L321.938 230.291C321.938 230.291 315.811 203.538 314.228 193.227C312.645 182.916 308.887 171.612 308.887 171.612L295.832 138.59L281.608 120.023L263.39 152.601Z" fill="#3A3A3A"/>
<path opacity="0.3" d="M225.973 150.959C225.973 150.959 244.399 158.027 250.513 156.762C256.626 155.496 266.809 140.449 266.809 140.449L281.783 155.637L299.995 149.119L298.532 143.262C298.532 143.262 272.467 136.533 272.421 136.452C272.375 136.371 262.984 136.452 262.984 136.452L247.203 147.34L230.122 147.565L225.973 150.959Z" fill="black"/>
<path d="M315.404 217.404L320.836 234.584L329.05 246.933C329.642 247.823 329.356 249.028 328.428 249.558C327.908 249.855 327.282 249.884 326.739 249.631C323.285 248.024 310.878 242.098 310.28 240.77C309.652 239.375 303.348 223.029 303.348 223.029L315.404 217.404Z" fill="#3A3A3A"/>
<path d="M328.429 249.558L309.888 239.62L310.135 240.343C310.348 240.968 310.774 241.498 311.341 241.835C312.858 242.737 317.102 245.138 326.689 249.65C327.246 249.912 327.902 249.878 328.429 249.558Z" fill="#E0E0E0"/>
<path d="M321.987 243.439C322.1 243.453 322.179 242.429 323.029 241.602C323.854 240.75 324.878 240.669 324.864 240.556C324.865 240.509 324.603 240.45 324.185 240.53C323.77 240.607 323.212 240.86 322.749 241.322C322.288 241.786 322.036 242.344 321.96 242.76C321.881 243.179 321.94 243.44 321.987 243.439Z" fill="white"/>
<path d="M323.981 245.308C324.087 245.354 324.445 244.613 325.241 244.059C326.024 243.487 326.841 243.391 326.833 243.276C326.852 243.172 325.908 243.091 325.011 243.737C324.108 244.373 323.877 245.292 323.981 245.308Z" fill="white"/>
<path d="M318.727 241.285C318.835 241.339 319.379 240.196 320.541 239.226C321.688 238.238 322.904 237.887 322.869 237.773C322.866 237.672 321.518 237.868 320.285 238.925C319.042 239.968 318.628 241.265 318.727 241.285Z" fill="white"/>
<path d="M316.639 236.201C316.719 236.288 317.527 235.572 318.737 235.11C319.942 234.63 321.02 234.61 321.02 234.492C321.038 234.392 319.888 234.23 318.593 234.742C317.294 235.241 316.558 236.14 316.639 236.201Z" fill="white"/>
<path d="M221.257 176.975C221.269 176.843 222.838 177.011 224.449 178.025C226.069 179.027 226.909 180.362 226.795 180.431C226.675 180.529 225.701 179.408 224.173 178.467C222.657 177.509 221.222 177.126 221.257 176.975Z" fill="#3A3A3A"/>
<path d="M305.037 180.69C305.077 180.736 304.706 181.157 303.952 181.653C303.203 182.149 302.046 182.678 300.682 182.917C299.317 183.151 298.049 183.042 297.177 182.826C296.301 182.612 295.81 182.34 295.832 182.283C295.871 182.124 297.979 182.879 300.593 182.403C303.215 181.974 304.947 180.554 305.037 180.69Z" fill="#3A3A3A"/>
<path d="M215.258 217.478L215.957 233.397C215.957 233.397 200.011 239.454 199.854 242.408L230.768 242.161L229.582 219.449L215.258 217.478Z" fill="#3A3A3A"/>
<path d="M230.769 242.161L230.664 239.657L201.063 240.831C201.063 240.831 199.692 241.441 199.855 242.409L230.769 242.161Z" fill="#E0E0E0"/>
<path d="M215.455 233.243C215.461 233.394 216.217 233.456 216.963 233.936C217.722 234.396 218.11 235.047 218.249 234.986C218.388 234.956 218.156 234.055 217.241 233.491C216.333 232.918 215.421 233.105 215.455 233.243Z" fill="white"/>
<path d="M212.223 234.61C212.19 234.756 212.845 235.008 213.363 235.642C213.899 236.261 214.034 236.951 214.185 236.943C214.327 236.966 214.424 236.081 213.766 235.304C213.114 234.523 212.225 234.466 212.223 234.61Z" fill="white"/>
<path d="M210.413 238.506C210.551 238.537 210.754 237.781 210.36 236.958C209.971 236.131 209.257 235.811 209.194 235.937C209.11 236.062 209.571 236.502 209.885 237.183C210.215 237.856 210.263 238.492 210.413 238.506Z" fill="white"/>
<path d="M213.773 99.856L233.578 127.428L241.627 133.263L239.263 139.447L228.065 149.392C228.065 149.392 246.609 157.079 253.426 152.645C260.244 148.211 266.751 137.443 266.751 137.443L283.473 153.374L304.475 145.006C304.475 145.006 295.291 126.683 282.586 116.232L274.95 93.055L261.015 71.618L244 77.156L219.816 94.002L213.773 99.856Z" fill="#E75F62"/>
<path d="M229.551 89.511C230.69 89.511 243.435 96.972 243.435 96.972L246.207 81.012L244.14 77.241L248.272 78.743L254.923 85.156L271.474 111.256C270.286 117.898 266.216 127.762 266.1 131.314C266.1 131.314 248.51 129.812 244.472 121.261C240.434 112.71 231.836 97.272 231.836 97.272L229.551 89.511Z" fill="white"/>
<path d="M247.084 106.771C247.084 108.196 251.738 128.129 255.621 129.208C259.504 130.287 265.554 131.314 265.554 131.314V121.736L249.934 103.446L249.466 98.553L243.74 97.894L242.333 105.029L247.084 106.771Z" fill="#E75F62"/>
<path d="M218.696 96.159C218.696 96.159 214.848 99.54 213.773 99.856C212.699 100.172 208.601 111.257 208.601 111.257L198.11 137.307L179.658 161.935L190.045 171.612C190.045 171.612 213.322 148.13 214.961 141.816L226.415 118.11L218.696 96.159Z" fill="#E75F62"/>
<path d="M266.809 136.452C266.751 136.392 267.717 135.4 269.144 133.683C270.581 131.973 272.452 129.518 274.445 126.747C276.39 124.024 278.149 121.563 279.532 119.627C280.193 118.722 280.74 117.998 281.132 117.508C281.524 117.018 281.754 116.757 281.783 116.778C281.843 116.822 281.077 117.976 279.834 119.838C278.587 121.698 276.864 124.27 274.868 127.051C272.87 129.829 270.94 132.265 269.423 133.924C268.673 134.761 268.027 135.404 267.566 135.83C267.101 136.256 266.834 136.478 266.809 136.452Z" fill="#3A3A3A"/>
<path d="M254.691 132.768C254.679 132.836 253.554 132.704 251.753 132.38C249.953 132.056 247.48 131.526 244.782 130.807C242.084 130.086 239.675 129.313 237.953 128.696C236.23 128.08 235.19 127.633 235.213 127.568C235.238 127.497 236.321 127.821 238.068 128.346C239.815 128.872 242.229 129.586 244.916 130.304C247.603 131.02 250.052 131.605 251.828 132.019C253.604 132.435 254.705 132.694 254.691 132.768Z" fill="#3A3A3A"/>
<path d="M218.112 107.661C218.14 107.639 218.383 107.894 218.799 108.374C219.215 108.855 219.803 109.561 220.522 110.441C221.959 112.201 223.916 114.655 226.052 117.384C228.189 120.115 230.1 122.604 231.462 124.422C232.143 125.331 232.687 126.071 233.053 126.59C233.419 127.109 233.608 127.405 233.579 127.427C233.55 127.448 233.306 127.192 232.89 126.711C232.474 126.23 231.885 125.523 231.167 124.643C229.73 122.883 227.775 120.431 225.64 117.703C223.506 114.975 221.597 112.488 220.235 110.671C219.554 109.762 219.01 109.021 218.643 108.502C218.274 107.982 218.084 107.684 218.112 107.661Z" fill="#3A3A3A"/>
<path d="M252.965 83.59C253.037 83.593 253.05 84.935 253.013 87.103C252.976 89.271 252.89 92.264 252.762 95.569C252.714 96.716 252.668 97.823 252.625 98.859L252.614 99.127L252.38 99.1C249.872 98.808 247.707 98.536 246.172 98.323C244.638 98.109 243.734 97.954 243.741 97.895C243.748 97.836 244.663 97.882 246.197 98.008C247.731 98.134 249.882 98.339 252.37 98.6L252.125 98.841C252.162 97.805 252.201 96.698 252.242 95.551C252.37 92.246 252.515 89.255 252.646 87.091C252.776 84.924 252.893 83.587 252.965 83.59Z" fill="#3A3A3A"/>
<path d="M233.256 100.187C233.295 100.127 234.214 100.647 235.668 101.538C237.122 102.428 239.11 103.689 241.289 105.107C241.627 105.328 241.96 105.546 242.277 105.753L241.889 105.893C242.493 103.689 242.847 101.639 243.167 100.203C243.472 98.758 243.676 97.883 243.742 97.894C243.807 97.905 243.722 98.8 243.508 100.264C243.275 101.729 242.993 103.758 242.384 106.046L242.295 106.38L241.996 106.186C241.679 105.98 241.345 105.764 241.006 105.544C238.827 104.125 236.87 102.816 235.468 101.847C234.064 100.877 233.217 100.247 233.256 100.187Z" fill="#3A3A3A"/>
<path d="M260.944 71.618C260.944 71.618 265.555 70.067 267.993 71.175C272.704 73.317 303.214 89.737 304.477 90.616C305.74 91.495 322.302 118.196 322.302 118.196L310.948 125.231L294.769 103.009L265.267 91.925C265.267 91.925 260.799 86.164 260.082 81.311C259.364 76.458 260.944 71.618 260.944 71.618Z" fill="#E75F62"/>
<path d="M274.951 93.054C275.024 93.035 275.43 94.275 276.142 96.262C276.909 98.386 277.875 101.063 278.943 104.024C281.155 110.077 282.834 115.049 282.587 115.123C282.546 115.127 282.455 114.822 282.237 114.272C281.983 113.608 281.686 112.832 281.343 111.938C280.588 109.965 279.552 107.235 278.453 104.201C277.355 101.168 276.411 98.402 275.792 96.378C275.478 95.367 275.252 94.54 275.112 93.964C274.975 93.387 274.916 93.064 274.951 93.054Z" fill="#3A3A3A"/>
<path d="M269.102 86.509C269.056 86.554 268.459 86.045 267.627 85.092C266.795 84.141 265.752 82.724 264.835 81.021C263.921 79.315 263.316 77.662 262.983 76.444C262.648 75.224 262.554 74.446 262.617 74.432C262.776 74.389 263.48 77.431 265.293 80.775C267.078 84.133 269.225 86.4 269.102 86.509Z" fill="#3A3A3A"/>
<path d="M264.38 135.138C264.388 135.204 263.365 135.41 261.688 135.59C260.012 135.771 257.68 135.901 255.105 135.828C252.53 135.751 250.209 135.485 248.546 135.207C246.882 134.93 245.873 134.664 245.885 134.599C245.899 134.523 246.93 134.66 248.596 134.842C250.262 135.026 252.567 135.231 255.12 135.307C257.673 135.38 259.985 135.309 261.659 135.223C263.333 135.138 264.371 135.061 264.38 135.138Z" fill="#3A3A3A"/>
<path d="M247.203 78.354C247.203 78.34 247.35 78.346 247.634 78.37C247.915 78.408 248.347 78.403 248.882 78.528C249.953 78.777 251.491 79.302 253.258 80.31C256.786 82.33 261.243 86.032 265.739 91.073L265.886 91.238L265.728 91.4C265.048 92.095 264.316 92.843 263.569 93.606L263.391 93.182C264.228 93.18 265.133 93.179 266.051 93.177H266.226L266.289 93.34C267.185 95.663 268.121 98.09 269.081 100.579C270.16 103.39 271.207 106.12 272.194 108.692L272.214 108.744L272.21 108.798C271.938 112.838 270.611 116.397 269.477 119.527C268.304 122.658 267.311 125.442 266.78 127.842C266.229 130.235 266.118 132.205 266.166 133.547C266.213 134.892 266.356 135.618 266.311 135.625C266.296 135.628 266.253 135.449 266.185 135.101C266.112 134.754 266.039 134.234 265.991 133.556C265.888 132.203 265.949 130.202 266.463 127.773C266.955 125.34 267.923 122.515 269.065 119.378C270.171 116.242 271.455 112.709 271.705 108.768L271.721 108.873C270.73 106.303 269.677 103.574 268.594 100.766C267.638 98.275 266.706 95.847 265.814 93.523L266.051 93.686C265.133 93.684 264.228 93.682 263.391 93.681L262.795 93.68L263.213 93.257C263.964 92.498 264.7 91.753 265.383 91.062L265.372 91.388C260.944 86.365 256.552 82.63 253.11 80.566C251.384 79.534 249.89 78.976 248.846 78.683C247.79 78.452 247.199 78.396 247.203 78.354Z" fill="#3A3A3A"/>
<path d="M227.675 118.738C227.683 118.882 224.674 119.159 220.957 119.358C217.238 119.557 214.218 119.602 214.211 119.458C214.203 119.314 217.211 119.037 220.93 118.838C224.647 118.639 227.667 118.594 227.675 118.738Z" fill="#3A3A3A"/>
<path d="M250.938 128.977C250.935 128.993 250.787 128.97 250.506 128.912C250.229 128.841 249.802 128.789 249.284 128.607C248.224 128.315 246.733 127.697 245.019 126.669C243.304 125.64 241.423 124.138 239.472 122.297C237.527 120.447 235.516 118.255 233.389 115.921L233.227 115.744L233.393 115.571C234.225 114.705 234.938 113.619 235.869 112.64L236.184 113.047C235.926 113.187 235.648 113.337 235.369 113.489C234.317 114.058 233.28 114.618 232.297 115.15L232.019 115.3L231.925 115.002C229.931 108.659 228.819 102.864 228.257 98.688C227.973 96.599 227.808 94.914 227.723 93.752C227.676 93.171 227.657 92.72 227.644 92.415C227.632 92.11 227.634 91.95 227.651 91.948C227.667 91.947 227.698 92.104 227.741 92.406C227.787 92.763 227.843 93.201 227.911 93.732C228.054 94.886 228.271 96.561 228.6 98.636C229.251 102.785 230.419 108.538 232.419 114.845L232.047 114.697C233.03 114.164 234.066 113.602 235.117 113.032C235.396 112.881 235.674 112.73 235.932 112.591L237.389 111.802L236.247 112.998C235.359 113.927 234.641 115.016 233.765 115.924L233.769 115.574C235.889 117.917 237.876 120.114 239.784 121.971C241.698 123.818 243.53 125.33 245.197 126.382C248.535 128.519 250.985 128.855 250.938 128.977Z" fill="#3A3A3A"/>
<path d="M265.7 131.314C265.691 131.38 264.599 131.31 262.847 131.069C261.099 130.816 258.679 130.4 256.088 129.597C253.492 128.807 251.259 127.741 249.742 126.821C248.219 125.905 247.376 125.199 247.41 125.151C247.458 125.081 248.373 125.678 249.922 126.5C251.468 127.327 253.681 128.32 256.241 129.099C261.369 130.634 265.733 131.121 265.7 131.314Z" fill="#3A3A3A"/>
<g opacity="0.3">
<path d="M268.09 135.316C271.465 134.342 274.506 132.242 276.612 129.429C278.718 126.617 279.878 123.109 279.864 119.596" fill="black"/>
</g>
<g opacity="0.3">
<path d="M256.044 82.112C260.406 84.365 264.249 87.613 267.198 91.538C266.847 91.704 266.564 92.008 266.423 92.369C266.905 92.506 267.387 92.643 267.869 92.781C268.917 97.081 269.965 101.38 271.013 105.68C269.338 101.461 267.663 97.242 265.987 93.023C265.188 93.105 264.389 93.187 263.589 93.269C264.34 92.612 265.09 91.955 265.841 91.299C263.109 88.946 260.625 86.306 258.442 83.436" fill="black"/>
</g>
<path opacity="0.3" d="M235.935 101.931L243.741 109.11L244.952 99.297L254.311 99.874L252.965 87.834L252.407 98.003L243.741 97.527L242.136 105.969" fill="black"/>
<path opacity="0.3" d="M275.824 95.891L273.163 87.834L278.769 96.998L275.824 95.891Z" fill="black"/>
<path d="M299.805 94.688C299.865 94.829 298.61 95.318 297.763 96.64C296.882 97.94 296.927 99.286 296.774 99.287C296.711 99.294 296.601 98.961 296.628 98.401C296.652 97.846 296.855 97.073 297.328 96.353C297.803 95.636 298.433 95.144 298.934 94.903C299.437 94.658 299.787 94.628 299.805 94.688Z" fill="#3A3A3A"/>
<path d="M216.549 48.695C215.33 48 213.667 48.199 212.646 49.161C210.588 48.963 208.49 50.378 207.901 52.36C206.481 52.416 205.118 53.261 204.437 54.508C203.756 55.755 203.781 57.359 204.501 58.584C203.185 59.166 202.323 60.64 202.46 62.073C202.598 63.506 203.725 64.788 205.129 65.109C204.103 66.371 204.21 68.407 205.362 69.555C206.514 70.703 208.551 70.801 209.809 69.77L218.137 52.291C218.445 50.922 217.768 49.39 216.549 48.695Z" fill="#3A3A3A"/>
<path d="M209.656 70.423C206.177 63.96 208.246 55.91 214.409 51.923L215.021 51.527C221.873 47.642 229.001 51.29 232.696 58.248L244.139 77.242L246.222 80.906L243.891 96.61L231.572 91.918L229.732 89.252C229.732 89.252 222.746 92.371 218.562 86.076C216.543 83.034 212.892 76.434 209.656 70.423Z" fill="#FFBF9D"/>
<path d="M229.747 89.255C229.747 89.255 233.885 86.898 236.416 81.463C236.416 81.463 237.434 87.3 230.804 90.804L229.747 89.255Z" fill="#FF9A6C"/>
<path d="M215.298 75.111C215.59 75.601 216.247 75.756 216.763 75.46C217.279 75.164 217.461 74.528 217.169 74.039C216.876 73.549 216.22 73.393 215.704 73.689C215.187 73.984 215.005 74.621 215.298 75.111Z" fill="#3A3A3A"/>
<path d="M213.167 73.014C213.356 73.06 213.713 72.107 214.69 71.479C215.657 70.837 216.697 70.876 216.726 70.688C216.744 70.601 216.491 70.462 216.033 70.437C215.58 70.41 214.915 70.528 214.309 70.924C213.704 71.32 213.338 71.874 213.192 72.293C213.04 72.717 213.077 72.997 213.167 73.014Z" fill="#3A3A3A"/>
<path d="M223.926 70.121C224.218 70.61 224.874 70.766 225.391 70.47C225.907 70.174 226.089 69.538 225.797 69.048C225.505 68.559 224.848 68.402 224.332 68.698C223.815 68.995 223.633 69.632 223.926 70.121Z" fill="#3A3A3A"/>
<path d="M222.409 66.842C222.598 66.887 222.957 65.935 223.933 65.307C224.9 64.666 225.94 64.704 225.969 64.516C225.987 64.429 225.735 64.289 225.276 64.265C224.823 64.237 224.158 64.356 223.552 64.752C222.947 65.148 222.58 65.703 222.435 66.122C222.284 66.545 222.32 66.825 222.409 66.842Z" fill="#3A3A3A"/>
<path d="M223.873 76.148C223.842 76.089 223.168 76.377 222.104 76.887C221.838 77.023 221.571 77.126 221.419 76.983C221.244 76.841 221.175 76.505 221.108 76.137C220.952 75.383 220.789 74.593 220.618 73.764C219.894 70.402 219.198 67.704 219.063 67.734C218.928 67.765 219.405 70.514 220.129 73.875C220.313 74.7 220.488 75.487 220.658 76.239C220.747 76.583 220.792 77.009 221.161 77.3C221.348 77.443 221.619 77.46 221.806 77.399C221.997 77.344 222.139 77.257 222.267 77.184C223.289 76.598 223.905 76.206 223.873 76.148Z" fill="#3A3A3A"/>
<path d="M220.595 64.065C220.875 64.243 221.568 63.473 222.599 62.829C223.616 62.162 224.618 61.848 224.56 61.528C224.528 61.378 224.208 61.258 223.71 61.274C223.215 61.288 222.552 61.462 221.938 61.854C221.325 62.248 220.898 62.771 220.69 63.206C220.478 63.644 220.465 63.977 220.595 64.065Z" fill="#3A3A3A"/>
<path d="M211.658 70.196C211.963 70.332 212.538 69.713 213.38 69.247C214.206 68.752 215.03 68.563 215.065 68.232C215.074 68.075 214.836 67.903 214.404 67.851C213.978 67.797 213.364 67.895 212.791 68.225C212.218 68.556 211.826 69.037 211.659 69.434C211.488 69.833 211.518 70.125 211.658 70.196Z" fill="#3A3A3A"/>
<path d="M208.384 67.118C208.384 67.118 207.487 62.061 208.803 59.894C210.397 57.27 213.043 59.171 214.854 57.123C216.665 55.075 218.183 52.565 221.548 52.812C225.231 53.083 224.922 55.145 226.896 57.862C234.901 68.878 239.074 70.758 236.188 64.996C235.872 64.365 237.204 62.839 235.836 60.193C234.062 56.762 231.651 52.763 229.449 50.938C227.593 49.4 225.629 48.778 222.704 48.585C218.086 48.279 213.774 50.998 211.056 53.171C208.34 55.342 204.9 62.312 208.384 67.118Z" fill="#3A3A3A"/>
<path d="M235.673 65.084C235.079 64.079 235.423 62.759 236.459 62.221C237.715 61.568 239.467 61.388 240.971 63.884C243.639 68.312 238.643 70.078 238.559 69.955C238.502 69.872 236.773 66.947 235.673 65.084Z" fill="#FFBF9D"/>
<path d="M238.519 67.709C238.53 67.683 238.629 67.717 238.795 67.698C238.957 67.68 239.2 67.588 239.379 67.362C239.743 66.909 239.69 65.928 239.23 65.117C238.999 64.707 238.683 64.374 238.348 64.143C238.018 63.9 237.672 63.8 237.411 63.9C237.144 63.987 237.062 64.228 237.083 64.386C237.098 64.546 237.18 64.617 237.161 64.639C237.155 64.658 237.021 64.622 236.947 64.418C236.912 64.319 236.901 64.183 236.954 64.036C237.008 63.885 237.138 63.747 237.313 63.666C237.669 63.484 238.165 63.613 238.532 63.867C238.919 64.111 239.283 64.48 239.543 64.94C240.052 65.85 240.099 66.96 239.57 67.53C239.307 67.799 238.991 67.862 238.794 67.838C238.591 67.811 238.508 67.726 238.519 67.709Z" fill="#FF9A6C"/>
<path d="M230.15 56.733C229.835 57.482 229.497 58.264 228.861 58.77C228.226 59.277 227.197 59.389 226.647 58.79C226.4 58.521 226.247 58.123 225.898 58.018C225.481 57.893 225.1 58.263 224.762 58.537C223.587 59.487 221.718 59.43 220.603 58.411C220.593 59.101 219.828 59.566 219.138 59.567C218.448 59.568 217.802 59.257 217.139 59.067C216.476 58.877 215.688 58.833 215.168 59.285C214.877 59.538 214.7 59.923 214.359 60.103C213.756 60.421 213.047 59.934 212.595 59.424C212.143 58.914 211.649 58.298 210.968 58.303C210.337 58.307 209.863 58.847 209.389 59.264C208.915 59.681 208.158 59.996 207.692 59.57C207.447 59.346 207.38 58.989 207.377 58.657C207.364 57.156 208.532 55.731 210.006 55.447C209.503 53.739 210.122 51.756 211.508 50.637C212.893 49.518 214.962 49.33 216.527 50.182C216.906 48.757 218.012 47.546 219.398 47.04C220.783 46.534 222.41 46.748 223.618 47.594C224.494 46.634 225.961 46.264 227.188 46.694C228.415 47.124 229.329 48.329 229.414 49.626C230.482 49.567 231.651 49.91 232.248 50.798C232.845 51.686 232.549 53.146 231.53 53.471C232.333 53.944 232.662 55.077 232.237 55.906C231.812 56.735 230.7 57.13 229.848 56.755" fill="#3A3A3A"/>
<path d="M227.291 76.14C227.352 76.037 227.426 75.925 227.542 75.899C227.647 75.876 227.752 75.931 227.841 75.989C228.574 76.467 229.029 77.344 228.997 78.218C228.997 78.227 228.996 78.236 228.996 78.244C228.936 79.521 227.464 80.226 226.367 79.569L225.546 79.077C225.946 78.406 226.891 76.812 227.291 76.14Z" fill="#FF9A6C"/>
<path d="M226.841 79.766C226.813 79.801 227.422 80.015 228.263 79.582C228.463 79.479 228.686 79.283 228.821 79.054C228.969 78.833 229.107 78.546 229.125 78.221C229.149 77.582 228.891 76.936 228.494 76.369C228.391 76.225 228.299 76.097 228.168 75.96C228.039 75.837 227.874 75.694 227.622 75.702C227.362 75.718 227.217 75.931 227.144 76.06C227.071 76.192 226.998 76.322 226.927 76.451C226.669 76.929 226.425 77.38 226.196 77.804C225.788 78.579 225.557 79.07 225.597 79.093C225.638 79.116 225.943 78.667 226.404 77.923C226.653 77.511 226.918 77.072 227.198 76.606C227.346 76.377 227.5 76.012 227.64 76.034C227.808 76.021 228.037 76.306 228.214 76.564C228.583 77.084 228.816 77.68 228.81 78.205C228.804 78.462 228.706 78.694 228.58 78.905C228.459 79.126 228.316 79.26 228.137 79.376C227.418 79.817 226.835 79.714 226.841 79.766Z" fill="#3A3A3A"/>
<path d="M231.839 53.255C231.847 53.234 232.155 53.568 232.108 54.264C232.079 54.599 231.932 55.022 231.574 55.345C231.226 55.663 230.684 55.877 230.104 55.786L230.27 55.64C230.297 56.152 230.26 56.716 230.104 57.282C230.002 57.644 229.854 57.993 229.631 58.285C229.42 58.583 229.103 58.803 228.81 58.931C228.221 59.226 227.55 59.241 227.093 59.023C226.633 58.818 226.347 58.537 226.158 58.347C225.97 58.154 225.885 58.031 225.898 58.018C225.914 58.002 226.028 58.097 226.236 58.261C226.443 58.421 226.745 58.667 227.171 58.827C227.985 59.183 229.53 58.634 229.818 57.201C229.963 56.676 230.005 56.138 229.988 55.653L229.982 55.476L230.154 55.507C230.632 55.593 231.106 55.426 231.416 55.164C231.733 54.901 231.883 54.543 231.934 54.242C232.025 53.621 231.794 53.269 231.839 53.255Z" fill="#3A3A3A"/>
<path d="M217.23 48.649C217.242 48.663 217.136 48.753 216.996 48.96C216.86 49.165 216.687 49.509 216.693 49.969L216.695 50.085L216.583 50.043C215.826 49.761 214.693 49.502 213.386 49.702C212.739 49.805 212.055 50.029 211.435 50.432C210.815 50.829 210.283 51.426 209.937 52.146C209.667 52.705 209.527 53.308 209.514 53.891C209.51 54.474 209.639 55.033 209.883 55.508L209.958 55.654L209.803 55.703C209.035 55.946 208.453 56.502 208.142 57.089C207.824 57.681 207.777 58.299 207.839 58.784C207.983 59.774 208.448 60.222 208.4 60.244C208.391 60.252 208.277 60.153 208.118 59.923C207.963 59.693 207.765 59.323 207.675 58.808C207.585 58.301 207.61 57.633 207.938 56.982C208.259 56.338 208.875 55.721 209.721 55.44L209.641 55.635C209.368 55.123 209.222 54.514 209.223 53.886C209.233 53.259 209.382 52.613 209.67 52.015C210.038 51.247 210.613 50.607 211.28 50.188C211.944 49.765 212.669 49.538 213.348 49.443C214.719 49.259 215.881 49.565 216.643 49.892L216.533 49.967C216.552 49.46 216.765 49.107 216.929 48.908C217.098 48.708 217.223 48.64 217.23 48.649Z" fill="#3A3A3A"/>
</svg>
