<svg width="750" height="500" viewBox="0 0 750 500" fill="none" xmlns="http://www.w3.org/2000/svg">
<path d="M366.596 163.49C365.8 163.49 364.998 163.36 364.226 163.092L351.982 158.849C349.538 158.002 347.716 155.898 347.227 153.357L344.779 140.632C344.291 138.092 345.202 135.462 347.157 133.768L356.954 125.285C358.909 123.591 361.642 123.066 364.087 123.913L376.331 128.156C378.775 129.003 380.598 131.107 381.086 133.648L383.534 146.373C384.022 148.913 383.111 151.542 381.156 153.236L371.358 161.719C370.021 162.878 368.319 163.49 366.596 163.49ZM355.003 151.43L366.443 155.394L375.597 147.468L373.31 135.578L361.869 131.613L352.715 139.539L355.003 151.43Z" fill="#F5F5F5"/>
<path d="M509.438 126.536C508.642 126.536 507.841 126.406 507.069 126.138L500.871 123.991C498.426 123.143 496.604 121.038 496.116 118.498L494.878 112.059C494.389 109.52 495.299 106.891 497.255 105.196L502.216 100.901C504.172 99.207 506.905 98.682 509.349 99.53L515.545 101.678C517.99 102.525 519.813 104.63 520.301 107.171L521.539 113.61C522.026 116.151 521.116 118.779 519.163 120.473L514.202 124.768C512.864 125.924 511.162 126.536 509.438 126.536ZM503.892 116.571L509.287 118.44L513.603 114.703L512.524 109.097L507.129 107.227L502.813 110.964L503.892 116.571Z" fill="#F5F5F5"/>
<path d="M680.682 220.769C679.1 220.769 677.575 220.052 676.57 218.799L673.079 214.443C671.907 212.981 671.6 210.987 672.28 209.24L674.307 204.038C674.986 202.292 676.56 201.03 678.412 200.745L683.932 199.899C685.779 199.614 687.662 200.347 688.836 201.809L692.327 206.165C693.5 207.627 693.806 209.621 693.126 211.368L691.099 216.57C690.419 218.316 688.846 219.578 686.993 219.862L681.474 220.708C681.211 220.75 680.946 220.769 680.682 220.769ZM684.728 203.839C684.664 203.839 684.601 203.844 684.538 203.854L679.018 204.7C678.574 204.768 678.197 205.071 678.034 205.49L676.007 210.692C675.844 211.111 675.917 211.59 676.199 211.941L679.69 216.297C679.971 216.648 680.432 216.824 680.867 216.755L686.386 215.909C686.83 215.841 687.207 215.538 687.37 215.119L689.397 209.917C689.56 209.498 689.487 209.019 689.205 208.669V208.668L685.714 204.313C685.474 204.012 685.108 203.839 684.728 203.839Z" fill="#E0E0E0"/>
<path d="M57.699 264.231C55.666 264.231 53.706 263.309 52.414 261.697L44.209 251.464C42.703 249.584 42.31 247.022 43.184 244.778L47.945 232.554C48.82 230.309 50.841 228.689 53.222 228.324L66.188 226.335C68.573 225.97 70.984 226.911 72.491 228.791L80.696 239.025C82.203 240.904 82.596 243.466 81.722 245.71L76.96 257.935C76.086 260.18 74.064 261.801 71.682 262.167L58.716 264.155C58.378 264.205 58.038 264.231 57.699 264.231ZM49.757 247.191L57.792 257.213L70.489 255.267L75.151 243.297L67.116 233.274L54.42 235.221L49.757 247.191Z" fill="#E0E0E0"/>
<path d="M90.882 174.596H83.15C81.275 174.596 79.528 173.588 78.591 171.964L74.725 165.267C73.787 163.643 73.787 161.627 74.725 160.003L78.591 153.306C79.528 151.682 81.275 150.674 83.15 150.674H90.882C92.756 150.674 94.503 151.682 95.441 153.305L99.308 160.002C100.246 161.626 100.246 163.642 99.308 165.266L95.441 171.963C94.503 173.588 92.756 174.596 90.882 174.596ZM83.149 154.676C82.699 154.676 82.279 154.918 82.054 155.308L78.188 162.005C77.963 162.395 77.963 162.879 78.188 163.269L82.054 169.966C82.279 170.356 82.699 170.598 83.149 170.598H90.881C91.331 170.598 91.751 170.356 91.976 169.966L95.842 163.269C96.067 162.879 96.067 162.395 95.842 162.005L91.976 155.308C91.751 154.918 91.331 154.676 90.881 154.676H83.149Z" fill="#EBEBEB"/>
<path d="M222.779 98.952L207.703 89.464L189.19 58.223L163.44 42.456L158.455 47.854L161.074 51.369L169.198 62.272L201.473 105.592L214.634 112.833L222.779 98.952Z" fill="#EBEBEB"/>
<path d="M203.834 121.413L199.515 107.026L152.091 52.849L145.768 56.59L155.78 85.076L183.31 112.116L189.48 129.004L203.834 121.413Z" fill="#EBEBEB"/>
<path d="M229.518 101.632C229.518 101.632 283.072 131.022 293.86 140.944C304.648 150.866 329.855 192.173 327.295 197.449C324.735 202.725 322.777 203.404 316.966 198.329C311.156 193.254 292.383 164.908 287.335 160.328C282.287 155.748 219.56 118.947 219.56 118.947L229.518 101.632Z" fill="#E0E0E0"/>
<path d="M193.215 114.22C202.581 114.22 210.174 106.627 210.174 97.261C210.174 87.8948 202.581 80.302 193.215 80.302C183.849 80.302 176.256 87.8948 176.256 97.261C176.256 106.627 183.849 114.22 193.215 114.22Z" fill="#EBEBEB"/>
<path d="M188.948 113.675C188.962 113.586 190.406 114.08 193.09 114.102C194.428 114.134 196.073 113.922 197.892 113.394C199.707 112.857 201.698 111.924 203.566 110.439C205.419 108.956 207.19 106.942 208.354 104.39C209.496 101.852 210.189 98.834 209.844 95.7C209.718 94.135 209.323 92.555 208.701 91.036C208.42 90.261 208.004 89.54 207.617 88.797C207.156 88.097 206.715 87.373 206.153 86.726C204.024 84.049 200.913 82.044 197.416 81.1C193.901 80.22 190.207 80.456 187.043 81.757C186.237 82.048 185.499 82.466 184.756 82.853C184.056 83.313 183.341 83.741 182.718 84.281C181.435 85.305 180.321 86.493 179.448 87.799C177.62 90.368 176.756 93.342 176.518 96.116C176.292 98.912 176.858 101.534 177.755 103.731C178.664 105.938 179.948 107.722 181.272 109.075C182.605 110.422 183.937 111.408 185.122 112.032C187.478 113.319 188.979 113.59 188.948 113.675C188.946 113.684 188.855 113.664 188.679 113.618C188.475 113.561 188.218 113.489 187.9 113.4C187.555 113.31 187.134 113.179 186.658 112.966C186.176 112.769 185.612 112.554 185.026 112.209C183.813 111.605 182.442 110.63 181.066 109.279C179.699 107.922 178.367 106.119 177.416 103.873C176.477 101.637 175.876 98.955 176.088 96.085C176.312 93.239 177.185 90.179 179.053 87.526C179.946 86.179 181.088 84.951 182.406 83.893C183.046 83.336 183.78 82.892 184.501 82.417C185.266 82.016 186.026 81.584 186.855 81.282C190.113 79.935 193.926 79.686 197.549 80.594C201.154 81.565 204.362 83.64 206.551 86.402C207.128 87.069 207.582 87.816 208.054 88.539C208.452 89.305 208.877 90.049 209.165 90.848C209.8 92.414 210.2 94.042 210.324 95.653C210.664 98.88 209.937 101.976 208.747 104.571C207.535 107.181 205.704 109.231 203.795 110.726C201.871 112.225 199.829 113.151 197.975 113.671C196.116 114.181 194.444 114.365 193.09 114.302C192.411 114.318 191.814 114.231 191.296 114.168C190.776 114.123 190.345 114.032 189.999 113.943C189.677 113.866 189.419 113.804 189.212 113.754C189.035 113.711 188.946 113.683 188.948 113.675Z" fill="#E0E0E0"/>
<path d="M190.805 106.529C185.686 105.198 182.616 99.97 183.946 94.852C185.277 89.733 190.505 86.663 195.623 87.993C200.742 89.323 203.813 94.552 202.482 99.67C201.152 104.788 195.924 107.859 190.805 106.529Z" fill="#E0E0E0"/>
<path d="M190.805 106.529C190.817 106.464 191.636 106.728 193.144 106.726C194.624 106.721 196.9 106.316 199.01 104.638C200.044 103.804 201.031 102.674 201.678 101.245C202.313 99.824 202.697 98.137 202.501 96.388C202.429 95.514 202.207 94.632 201.859 93.785C201.524 92.932 201.045 92.113 200.435 91.381C199.246 89.888 197.51 88.771 195.559 88.244C193.598 87.753 191.538 87.884 189.771 88.609C188.881 88.95 188.064 89.433 187.356 90.015C186.639 90.586 186.016 91.248 185.528 91.976C184.505 93.409 184.018 95.069 183.881 96.619C183.751 98.182 184.062 99.649 184.56 100.881C185.586 103.374 187.376 104.835 188.667 105.56C189.984 106.298 190.827 106.466 190.805 106.529C190.805 106.529 189.945 106.436 188.569 105.74C187.222 105.055 185.332 103.597 184.22 101.025C183.681 99.754 183.333 98.227 183.45 96.59C183.574 94.967 184.068 93.221 185.132 91.705C185.641 90.936 186.292 90.234 187.043 89.629C187.786 89.013 188.645 88.5 189.582 88.136C191.442 87.366 193.621 87.222 195.69 87.741C197.749 88.295 199.582 89.482 200.83 91.06C201.471 91.834 201.971 92.7 202.32 93.6C202.682 94.495 202.909 95.424 202.978 96.344C203.169 98.186 202.751 99.952 202.069 101.429C201.374 102.915 200.327 104.08 199.237 104.928C197.014 106.633 194.653 106.986 193.142 106.928C191.602 106.866 190.805 106.529 190.805 106.529Z" fill="#E0E0E0"/>
<path d="M212.144 110.447L219.072 98.391C221.103 94.856 225.616 93.637 229.151 95.668L229.799 96.041C233.334 98.072 234.553 102.585 232.522 106.12L225.595 118.176C223.564 121.711 219.051 122.93 215.516 120.899L214.868 120.526C211.332 118.494 210.113 113.982 212.144 110.447Z" fill="#EBEBEB"/>
<path d="M212.144 110.446C212.219 110.472 211.546 111.371 211.314 113.262C211.216 114.199 211.298 115.378 211.759 116.633C212.006 117.252 212.341 117.885 212.795 118.488C213.263 119.08 213.844 119.635 214.54 120.096C215.249 120.538 216.026 121.015 216.881 121.294C217.743 121.582 218.695 121.715 219.671 121.646C221.618 121.518 223.652 120.5 224.949 118.722C227.246 114.886 229.681 110.498 232.295 105.991C233.559 103.796 233.529 101.018 232.329 98.955C231.76 97.908 230.916 97.05 229.952 96.435C228.961 95.804 227.964 95.263 226.876 95.07C224.721 94.631 222.525 95.24 221.008 96.468C219.441 97.665 218.744 99.492 217.824 100.93C216.109 103.845 214.711 106.221 213.712 107.92C213.237 108.706 212.858 109.333 212.571 109.807C212.307 110.235 212.16 110.455 212.144 110.446C212.128 110.437 212.245 110.199 212.481 109.753C212.746 109.267 213.098 108.623 213.537 107.817C214.501 106.098 215.85 103.695 217.505 100.745C217.928 99.999 218.369 99.219 218.829 98.407C219.297 97.579 219.929 96.776 220.739 96.129C222.336 94.812 224.666 94.143 226.971 94.598C228.13 94.796 229.218 95.38 230.219 96.014C231.252 96.667 232.16 97.585 232.774 98.704C234.066 100.91 234.105 103.895 232.747 106.249C230.12 110.777 227.714 115.093 225.336 119.005C223.94 120.896 221.764 121.961 219.7 122.077C218.665 122.14 217.658 121.988 216.751 121.674C215.829 121.356 215.067 120.872 214.335 120.401C213.61 119.907 213.009 119.315 212.531 118.688C212.066 118.049 211.729 117.382 211.486 116.733C211.033 115.418 210.982 114.197 211.113 113.238C211.243 112.272 211.548 111.573 211.748 111.11C211.992 110.664 212.129 110.438 212.144 110.446Z" fill="#E0E0E0"/>
<path d="M191.471 137.538C191.471 137.538 211.761 195.158 219.796 207.417C227.832 219.675 264.49 251.264 270.112 249.596C275.734 247.929 276.722 246.106 272.66 239.548C268.597 232.99 243.681 209.857 239.983 204.132C236.285 198.407 210.174 130.53 210.174 130.53L191.471 137.538Z" fill="#E0E0E0"/>
<path d="M202.993 121.829L189.971 126.704C186.153 128.133 184.216 132.388 185.645 136.206L185.907 136.906C187.336 140.724 191.591 142.661 195.409 141.232L208.431 136.357C212.25 134.927 214.186 130.673 212.757 126.855L212.495 126.155C211.066 122.337 206.811 120.4 202.993 121.829Z" fill="#EBEBEB"/>
<path d="M202.993 121.829C202.987 121.813 203.233 121.714 203.713 121.547C204.203 121.424 204.941 121.237 205.916 121.266C206.884 121.292 208.081 121.542 209.304 122.202C209.904 122.548 210.508 122.989 211.063 123.551C211.604 124.125 212.09 124.815 212.46 125.61C212.805 126.409 213.159 127.24 213.323 128.201C213.486 129.147 213.472 130.165 213.241 131.176C212.791 133.194 211.387 135.168 209.294 136.238C205.048 137.948 200.398 139.62 195.503 141.476C192.959 142.434 190.02 141.91 188.054 140.276C187.049 139.489 186.291 138.444 185.815 137.318C185.352 136.227 184.953 135.059 184.946 133.883C184.871 131.535 185.91 129.345 187.469 127.983C188.239 127.289 189.134 126.796 190.027 126.469C190.903 126.147 191.745 125.838 192.549 125.543C195.729 124.39 198.32 123.45 200.172 122.778C201.039 122.475 201.731 122.233 202.254 122.051C202.732 121.889 202.987 121.813 202.993 121.829C202.999 121.846 202.758 121.955 202.292 122.148C201.778 122.354 201.097 122.626 200.244 122.967C198.406 123.677 195.834 124.669 192.679 125.888C191.111 126.562 189.195 126.952 187.759 128.304C186.301 129.601 185.342 131.669 185.426 133.867C185.44 134.971 185.811 136.043 186.273 137.123C186.723 138.174 187.433 139.146 188.373 139.878C190.213 141.398 192.95 141.88 195.321 140.989C200.194 139.142 204.919 137.454 209.078 135.811C211.043 134.82 212.379 132.979 212.822 131.079C213.049 130.128 213.072 129.166 212.928 128.269C212.791 127.38 212.448 126.535 212.127 125.764C211.785 125.002 211.332 124.338 210.825 123.781C210.304 123.235 209.733 122.802 209.163 122.457C208 121.799 206.85 121.526 205.909 121.47C204.003 121.39 203.007 121.908 202.993 121.829Z" fill="#E0E0E0"/>
<path d="M714.755 453.47C714.755 453.614 562.318 453.73 374.32 453.73C186.257 453.73 33.853 453.613 33.853 453.47C33.853 453.327 186.258 453.21 374.32 453.21C562.318 453.21 714.755 453.326 714.755 453.47Z" fill="#263238"/>
<path d="M87.015 339.067C87.292 338.229 118.45 236.372 118.45 236.372L117.67 223.723L125.819 210.305L135.941 213.648L134.556 228.69L127.362 239.626L95.976 341.962L87.015 339.067Z" fill="#E0E0E0"/>
<path d="M87.015 339.067C87.015 339.067 87.225 339.123 87.616 339.243C88.02 339.368 88.594 339.546 89.347 339.78C90.872 340.26 93.104 340.963 96.004 341.875L95.888 341.935C100.957 325.317 112.682 286.88 127.119 239.551L127.13 239.516L127.15 239.485C129.428 236.02 131.867 232.309 134.341 228.547L134.3 228.665C134.741 223.867 135.209 218.777 135.683 213.623L135.861 213.894C135.597 213.807 135.311 213.712 135.024 213.618C131.902 212.587 128.805 211.564 125.739 210.551L126.042 210.439C123.272 214.998 120.549 219.48 117.89 223.855L117.927 223.706C118.191 228.019 118.45 232.24 118.701 236.355L118.704 236.401L118.691 236.444C109.584 266.035 101.697 291.664 96.081 309.912C93.257 319.036 91.005 326.311 89.453 331.323C88.675 333.817 88.073 335.744 87.661 337.066C87.456 337.711 87.3 338.205 87.189 338.554C87.081 338.891 87.015 339.067 87.015 339.067C87.015 339.067 87.054 338.904 87.149 338.575C87.251 338.23 87.394 337.742 87.582 337.106C87.977 335.791 88.552 333.874 89.296 331.394C90.812 326.385 93.013 319.114 95.772 309.995C101.345 291.691 109.172 265.982 118.209 236.299L118.199 236.388C117.944 232.273 117.682 228.052 117.414 223.739L117.409 223.659L117.451 223.59C120.108 219.213 122.829 214.73 125.597 210.17L125.704 209.993L125.9 210.058C128.966 211.07 132.064 212.093 135.185 213.124C135.471 213.219 135.758 213.313 136.022 213.4L136.219 213.465L136.2 213.671C135.725 218.825 135.256 223.914 134.813 228.712L134.807 228.777L134.771 228.831C132.295 232.592 129.854 236.301 127.574 239.765L127.605 239.7C113.024 286.985 101.182 325.386 96.062 341.989L96.034 342.079L95.946 342.05C93.039 341.087 90.801 340.345 89.272 339.838C88.534 339.59 87.97 339.4 87.574 339.267C87.197 339.138 87.015 339.067 87.015 339.067Z" fill="#263238"/>
<path d="M79.494 344.018L65.5 362.942L45.93 433.929C45.93 433.929 43.116 448.408 59.111 452.522C77.071 457.141 81.214 443.384 81.214 443.384L100.242 374.054L99.957 349.994L104.654 344.705C105.599 343.641 105.146 341.957 103.795 341.51L81.325 334.089C79.967 333.641 78.596 334.736 78.734 336.16L79.494 344.018Z" fill="#E75F62"/>
<path d="M100.116 350.831C100.073 350.968 95.363 349.596 89.598 347.766C83.831 345.936 79.192 344.342 79.236 344.204C79.279 344.067 83.988 345.439 89.756 347.269C95.52 349.099 100.16 350.694 100.116 350.831Z" fill="#263238"/>
<path d="M100.242 374.054C100.233 374.089 99.735 373.999 98.84 373.807C97.944 373.617 96.656 373.312 95.069 372.913C91.895 372.116 87.535 370.908 82.776 369.39C78.017 367.869 73.763 366.326 70.715 365.136C69.19 364.542 67.964 364.043 67.124 363.679C66.283 363.317 65.825 363.101 65.838 363.068C65.851 363.035 66.335 363.187 67.198 363.49C68.152 363.83 69.377 364.267 70.845 364.791C73.923 365.891 78.186 367.375 82.936 368.894C87.685 370.409 92.02 371.67 95.165 372.557C96.665 372.981 97.916 373.335 98.891 373.61C99.769 373.862 100.251 374.019 100.242 374.054Z" fill="#263238"/>
<g opacity="0.3">
<path d="M52.9721 435.942L52.4921 435.8C50.7431 435.282 49.7451 433.444 50.2631 431.695L67.8321 372.356C68.3501 370.607 70.188 369.609 71.937 370.127L72.4171 370.269C74.1661 370.787 75.1641 372.625 74.6461 374.374L57.0771 433.713C56.5591 435.462 54.7211 436.46 52.9721 435.942Z" fill="black"/>
</g>
<g opacity="0.3">
<path d="M62.947 439.227L62.467 439.085C60.718 438.567 59.72 436.729 60.238 434.98L77.807 375.641C78.325 373.892 80.163 372.894 81.912 373.412L82.392 373.554C84.141 374.072 85.139 375.91 84.621 377.659L67.052 436.998C66.535 438.746 64.697 439.745 62.947 439.227Z" fill="black"/>
</g>
<g opacity="0.3">
<path d="M73.536 442.362L73.056 442.22C71.307 441.702 70.309 439.864 70.827 438.115L88.396 378.776C88.914 377.027 90.752 376.029 92.501 376.546L92.981 376.688C94.73 377.206 95.728 379.044 95.21 380.793L77.641 440.132C77.124 441.882 75.286 442.88 73.536 442.362Z" fill="black"/>
</g>
<path d="M127.266 239.596C127.219 239.732 125.225 239.166 122.812 238.331C120.399 237.496 118.481 236.71 118.528 236.574C118.575 236.438 120.569 237.004 122.982 237.839C125.395 238.674 127.313 239.46 127.266 239.596Z" fill="#263238"/>
<path d="M135.942 213.647C135.972 213.657 135.846 214.151 135.59 215.05C135.301 216.021 134.92 217.306 134.454 218.874C133.423 222.193 132.023 226.7 130.429 231.832L130.351 232.082L130.102 231.995C128.615 231.477 127.075 230.94 125.496 230.39C123.866 229.818 122.276 229.26 120.751 228.725L120.525 228.646L120.589 228.417C122.036 223.277 123.304 218.77 124.238 215.452C124.697 213.896 125.073 212.623 125.357 211.659C125.628 210.774 125.791 210.295 125.821 210.304C125.851 210.312 125.747 210.807 125.529 211.706C125.282 212.68 124.955 213.967 124.556 215.539C123.667 218.869 122.458 223.393 121.08 228.552L120.919 228.244C122.446 228.776 124.037 229.33 125.668 229.898C127.246 230.452 128.785 230.992 130.271 231.513L129.944 231.676C131.606 226.565 133.066 222.077 134.14 218.772C134.665 217.223 135.095 215.953 135.421 214.994C135.729 214.114 135.912 213.638 135.942 213.647Z" fill="#263238"/>
<path d="M430.898 111.922C430.101 111.922 429.3 111.792 428.528 111.524L416.284 107.281C413.841 106.434 412.018 104.331 411.529 101.791L409.082 89.064C408.592 86.524 409.504 83.894 411.461 82.2L421.257 73.718C423.212 72.026 425.947 71.5 428.389 72.346L440.633 76.589C443.078 77.436 444.901 79.541 445.389 82.082L447.836 94.805C448.324 97.348 447.412 99.977 445.456 101.669L435.661 110.15C434.324 111.309 432.621 111.922 430.898 111.922ZM419.304 99.86L430.745 103.824L439.898 95.898L437.611 84.008L426.17 80.043L417.017 87.969L419.304 99.86Z" fill="#E0E0E0"/>
<path d="M419.304 99.86C419.29 99.873 419.221 99.6 419.101 99.069C418.975 98.482 418.808 97.701 418.599 96.724C418.168 94.606 417.566 91.641 416.827 88.007C416.813 87.938 416.841 87.867 416.89 87.824C419.492 85.552 422.594 82.842 426.009 79.859C426.077 79.799 426.17 79.785 426.25 79.813C429.792 81.035 433.661 82.371 437.694 83.763C437.543 83.588 437.904 84.003 437.867 83.962L437.868 83.965L437.869 83.971L437.871 83.983L437.876 84.008L437.885 84.057L437.904 84.155L437.942 84.351L438.017 84.741L438.166 85.518C438.265 86.035 438.364 86.549 438.462 87.06C438.657 88.081 438.851 89.09 439.041 90.085C439.42 92.073 439.787 94.001 440.14 95.854C440.157 95.943 440.123 96.031 440.06 96.086C436.619 99.04 433.51 101.708 430.873 103.972C430.82 104.019 430.745 104.03 430.683 104.009C427.192 102.758 424.343 101.737 422.308 101.008C421.371 100.661 420.622 100.384 420.059 100.175C419.549 99.98 419.29 99.873 419.304 99.86C419.319 99.848 419.607 99.93 420.14 100.098C420.718 100.285 421.486 100.534 422.449 100.845C424.48 101.525 427.323 102.476 430.808 103.642L430.618 103.678C433.236 101.392 436.322 98.696 439.737 95.713L439.657 95.945C439.297 94.093 438.923 92.166 438.537 90.18C438.345 89.186 438.15 88.178 437.952 87.157C437.854 86.646 437.754 86.133 437.655 85.616L437.505 84.839L437.43 84.449L437.392 84.254L437.373 84.156L437.364 84.107L437.359 84.083L437.357 84.071L437.356 84.065L437.355 84.062C437.318 84.018 437.677 84.433 437.523 84.257C433.493 82.855 429.627 81.51 426.088 80.279L426.329 80.233C422.889 83.186 419.763 85.869 417.142 88.119L417.205 87.936C417.861 91.552 418.396 94.502 418.778 96.609C418.948 97.606 419.084 98.402 419.187 99.001C419.278 99.551 419.319 99.848 419.304 99.86Z" fill="#263238"/>
<path d="M430.898 111.922C430.897 111.895 431.333 111.912 432.136 111.762C432.928 111.607 434.121 111.251 435.334 110.289C437.708 108.21 441.098 105.241 445.275 101.582C446.314 100.699 447.125 99.457 447.514 98.026C447.702 97.31 447.785 96.551 447.744 95.783C447.698 95.023 447.495 94.236 447.349 93.428C446.721 90.205 446.051 86.764 445.346 83.143C445.17 82.227 445.026 81.334 444.62 80.509C444.236 79.681 443.681 78.921 442.994 78.29C442.308 77.658 441.485 77.163 440.589 76.844C439.658 76.522 438.719 76.197 437.77 75.869C435.873 75.213 433.942 74.545 431.982 73.867C431.002 73.528 430.015 73.186 429.022 72.842C428.025 72.464 427.063 72.204 426.019 72.21C424.993 72.216 423.972 72.436 423.053 72.866C422.115 73.277 421.367 73.952 420.579 74.646C419.01 76.003 417.465 77.339 415.946 78.653C414.43 79.966 412.94 81.256 411.482 82.519C410.096 83.774 409.289 85.565 409.202 87.346C409.135 88.242 409.326 89.103 409.498 89.996C409.666 90.879 409.831 91.75 409.995 92.609C410.321 94.326 410.637 95.994 410.943 97.606C411.256 99.21 411.526 100.794 411.842 102.253C412.228 103.684 413.043 104.928 414.08 105.807C414.596 106.25 415.163 106.608 415.752 106.877C416.337 107.139 416.966 107.331 417.554 107.546C418.738 107.964 419.856 108.358 420.903 108.728C422.983 109.467 424.78 110.105 426.262 110.632C427.739 111.138 428.855 111.626 429.659 111.763C430.463 111.912 430.899 111.896 430.898 111.922C430.898 111.922 430.463 111.985 429.642 111.866C428.812 111.759 427.679 111.298 426.196 110.823C424.706 110.32 422.899 109.709 420.808 109.003C419.757 108.645 418.635 108.264 417.446 107.859C416.852 107.648 416.238 107.47 415.608 107.197C414.987 106.92 414.388 106.549 413.842 106.088C412.744 105.173 411.873 103.869 411.455 102.358C411.115 100.843 410.845 99.302 410.52 97.687C410.206 96.076 409.881 94.41 409.547 92.695C409.38 91.837 409.211 90.966 409.039 90.084C408.868 89.217 408.656 88.278 408.725 87.321C408.811 85.418 409.667 83.5 411.149 82.151C412.608 80.882 414.098 79.586 415.615 78.267C417.132 76.951 418.676 75.613 420.243 74.254C420.641 73.915 421.012 73.573 421.445 73.233C421.877 72.907 422.344 72.625 422.837 72.394C423.824 71.932 424.92 71.695 426.022 71.689C427.119 71.674 428.231 71.982 429.195 72.351C430.188 72.695 431.175 73.038 432.154 73.378C434.113 74.058 436.043 74.728 437.939 75.387C438.887 75.717 439.828 76.045 440.759 76.369C441.719 76.713 442.6 77.246 443.333 77.925C444.067 78.602 444.658 79.417 445.066 80.304C445.498 81.187 445.652 82.162 445.82 83.053C446.508 86.676 447.163 90.121 447.776 93.347C447.915 94.152 448.117 94.937 448.164 95.761C448.202 96.575 448.109 97.378 447.905 98.133C447.485 99.642 446.614 100.948 445.519 101.862C441.293 105.471 437.864 108.399 435.462 110.45C434.194 111.414 432.966 111.743 432.157 111.867C431.333 111.984 430.898 111.922 430.898 111.922Z" fill="#263238"/>
<path d="M345.666 91.104C344.083 91.104 342.558 90.387 341.553 89.133L338.061 84.778C336.888 83.315 336.583 81.321 337.263 79.574L339.289 74.372C339.97 72.625 341.544 71.364 343.396 71.08L348.914 70.234C350.768 69.952 352.646 70.682 353.819 72.144L357.31 76.5C358.482 77.962 358.789 79.956 358.109 81.703L356.082 86.906C355.402 88.653 353.829 89.914 351.975 90.199L346.457 91.045C346.194 91.084 345.929 91.104 345.666 91.104ZM349.711 74.173C349.648 74.173 349.585 74.178 349.521 74.188L344.004 75.034C343.559 75.102 343.181 75.405 343.017 75.825L340.992 81.026C340.828 81.446 340.902 81.925 341.183 82.276L344.675 86.631C344.957 86.983 345.408 87.158 345.853 87.09L351.371 86.244C351.816 86.176 352.194 85.873 352.357 85.454L354.384 80.252C354.547 79.833 354.473 79.354 354.192 79.003L350.701 74.648C350.457 74.345 350.091 74.173 349.711 74.173Z" fill="#E0E0E0"/>
<path d="M349.711 74.173C349.709 74.161 349.861 74.12 350.141 74.193C350.279 74.233 350.448 74.305 350.612 74.443C350.78 74.588 350.912 74.773 351.087 74.97C351.816 75.846 352.773 76.995 353.928 78.382C354.079 78.567 354.232 78.756 354.389 78.948C354.556 79.177 354.655 79.461 354.666 79.757C354.687 80.056 354.562 80.362 354.472 80.591C354.377 80.84 354.281 81.093 354.184 81.35C353.789 82.385 353.369 83.484 352.929 84.637C352.818 84.926 352.705 85.219 352.592 85.515C352.467 85.862 352.194 86.178 351.847 86.348C351.47 86.528 351.136 86.514 350.818 86.582C350.491 86.633 350.161 86.685 349.828 86.737C348.478 86.939 347.157 87.17 345.662 87.363C345.23 87.364 344.805 87.175 344.523 86.854C344.299 86.575 344.076 86.298 343.855 86.023C343.42 85.479 342.992 84.943 342.571 84.416C342.151 83.889 341.739 83.371 341.334 82.863L341.033 82.484C340.926 82.359 340.812 82.178 340.752 82.005C340.621 81.651 340.637 81.246 340.776 80.914C341.232 79.766 341.666 78.673 342.075 77.643C342.279 77.133 342.477 76.639 342.668 76.162C342.77 75.934 342.831 75.684 343.006 75.44C343.171 75.21 343.401 75.039 343.65 74.941C345.573 74.589 347.028 74.453 348.084 74.304C349.123 74.176 349.708 74.122 349.711 74.173C349.709 74.194 349.572 74.21 349.301 74.274C348.969 74.339 348.579 74.415 348.115 74.505C347.106 74.705 345.539 74.93 343.789 75.282C343.605 75.36 343.438 75.491 343.32 75.663C343.206 75.821 343.141 76.067 343.043 76.308C342.861 76.788 342.673 77.286 342.478 77.8C342.083 78.835 341.664 79.934 341.223 81.088C341.126 81.33 341.122 81.594 341.212 81.836C341.285 82.062 341.523 82.286 341.723 82.551C342.131 83.056 342.547 83.572 342.97 84.096C343.393 84.622 343.823 85.156 344.26 85.699C344.476 85.967 344.693 86.236 344.912 86.507C345.097 86.718 345.379 86.842 345.663 86.842C347.063 86.633 348.43 86.429 349.752 86.232C350.085 86.182 350.416 86.132 350.743 86.083C351.071 86.022 351.417 86.015 351.627 85.902C351.863 85.786 352.044 85.586 352.137 85.337C352.254 85.042 352.369 84.75 352.483 84.462C352.939 83.315 353.374 82.221 353.783 81.192C353.885 80.937 353.986 80.685 354.085 80.438C354.193 80.176 354.275 79.987 354.267 79.766C354.263 79.551 354.196 79.34 354.077 79.169C353.929 78.979 353.784 78.792 353.643 78.61C352.54 77.18 351.627 75.996 350.931 75.094C350.39 74.142 349.685 74.22 349.711 74.173Z" fill="#263238"/>
<path d="M345.666 91.104C345.666 91.086 345.898 91.051 346.333 91.001C346.822 90.916 347.455 90.805 348.242 90.668C349.093 90.525 350.105 90.355 351.268 90.159C351.863 90.058 352.484 89.986 353.088 89.718C353.696 89.47 354.285 89.078 354.793 88.558C355.301 88.033 355.711 87.388 355.976 86.624C356.27 85.855 356.576 85.057 356.892 84.232C357.436 82.559 358.555 80.851 358.15 78.938C357.985 77.992 357.549 77.114 356.866 76.342C356.212 75.53 355.546 74.701 354.867 73.858C354.528 73.436 354.185 73.01 353.84 72.581C353.499 72.14 353.156 71.766 352.723 71.443C351.874 70.804 350.8 70.435 349.708 70.437C349.17 70.427 348.616 70.553 348.048 70.63C347.487 70.716 346.93 70.801 346.377 70.885C345.277 71.056 344.193 71.224 343.128 71.39C342.122 71.612 341.203 72.14 340.528 72.868C340.189 73.231 339.907 73.639 339.691 74.074C339.484 74.501 339.313 74.997 339.127 75.453C338.762 76.379 338.407 77.282 338.061 78.16C337.736 79.048 337.31 79.873 337.185 80.704C336.899 82.41 337.553 83.999 338.55 85.093C339.475 86.27 340.316 87.339 341.062 88.287C341.439 88.754 341.753 89.215 342.113 89.557C342.471 89.906 342.845 90.178 343.205 90.379C344.678 91.17 345.687 91.028 345.666 91.104C345.666 91.113 345.608 91.12 345.493 91.126C345.379 91.133 345.208 91.13 344.985 91.111C344.542 91.069 343.874 90.952 343.108 90.557C342.726 90.362 342.327 90.091 341.941 89.736C341.546 89.381 341.219 88.922 340.834 88.469C340.071 87.535 339.21 86.482 338.262 85.323C337.225 84.229 336.456 82.478 336.757 80.637C336.893 79.705 337.321 78.875 337.633 77.993C337.972 77.112 338.321 76.207 338.679 75.278C338.867 74.811 339.018 74.35 339.251 73.857C339.485 73.378 339.793 72.928 340.164 72.527C340.903 71.724 341.91 71.138 343.019 70.89C344.117 70.696 345.187 70.548 346.299 70.371C346.852 70.286 347.409 70.2 347.97 70.114C348.524 70.039 349.094 69.906 349.709 69.914C350.916 69.912 352.099 70.319 353.035 71.026C353.502 71.371 353.913 71.826 354.243 72.257C354.587 72.687 354.928 73.114 355.266 73.537C355.941 74.383 356.605 75.215 357.255 76.029C357.953 76.819 358.461 77.832 358.624 78.854C358.803 79.879 358.672 80.927 358.304 81.834C357.958 82.71 357.621 83.562 357.296 84.386C356.97 85.208 356.655 86.002 356.352 86.767C356.068 87.555 355.607 88.267 355.057 88.813C353.958 89.942 352.487 90.349 351.314 90.443C350.145 90.605 349.129 90.746 348.275 90.864C347.439 90.972 346.794 91.068 346.349 91.101C345.898 91.122 345.666 91.122 345.666 91.104Z" fill="#263238"/>
<path d="M443.088 78.049C443.191 78.139 442.077 79.641 440.513 81.345C438.947 83.052 437.457 84.213 437.365 84.105C437.269 83.995 438.581 82.68 440.131 80.991C441.681 79.303 442.974 77.95 443.088 78.049Z" fill="#263238"/>
<path d="M424.336 72.299C424.468 72.253 425.157 73.922 425.674 76.081C426.196 78.24 426.342 80.039 426.203 80.058C426.057 80.08 425.683 78.335 425.167 76.203C424.657 74.07 424.196 72.346 424.336 72.299Z" fill="#263238"/>
<path d="M416.882 87.77C416.824 87.907 415.138 87.314 413.038 86.668C410.939 86.015 409.213 85.551 409.243 85.406C409.269 85.269 411.065 85.509 413.192 86.171C415.32 86.826 416.937 87.642 416.882 87.77Z" fill="#263238"/>
<path d="M414.746 105.117C414.636 105.025 415.551 103.747 416.791 102.263C418.031 100.779 419.125 99.651 419.236 99.743C419.346 99.835 418.431 101.113 417.191 102.597C415.951 104.081 414.856 105.21 414.746 105.117Z" fill="#263238"/>
<path d="M431.59 110.595C431.448 110.617 431.133 109.173 430.886 107.37C430.639 105.566 430.555 104.091 430.698 104.074C430.841 104.057 431.156 105.501 431.402 107.299C431.648 109.097 431.732 110.573 431.59 110.595Z" fill="#263238"/>
<path d="M445.816 97.78C445.764 97.914 444.443 97.531 442.866 96.925C441.288 96.319 440.051 95.718 440.103 95.584C440.155 95.45 441.475 95.832 443.053 96.439C444.631 97.045 445.868 97.645 445.816 97.78Z" fill="#263238"/>
<path d="M644.337 174.457C651.115 166.303 657.883 158.063 663.157 148.864C668.431 139.665 672.186 129.381 672.434 118.781C672.471 117.174 671.778 106.016 670.234 105.571C669.13 105.252 668.372 115.101 667.467 115.809C658.834 122.568 653.222 132.599 649.995 143.078C646.767 153.556 645.24 163.53 644.337 174.457Z" fill="#263238"/>
<path d="M556.153 236.481C558.853 229.495 572.138 194.521 572.085 194.5C572.085 194.5 549.175 182.575 557.039 158.298C560.839 146.571 570.628 123.058 579.734 101.883C589.521 79.124 615.15 67.707 638.622 75.633L640.954 76.42C665.611 86.383 670.924 112.889 660.283 137.261L611.316 250.761L568.38 237.49L556.153 236.481Z" fill="#FFBF9D"/>
<path d="M572.085 194.501C572.085 194.501 587.022 200.541 606.705 195.824C606.705 195.824 593.084 211.212 569.695 200.889L572.085 194.501Z" fill="#FF9A6C"/>
<path d="M579.727 125.23C579.046 127.031 580.011 129.093 581.88 129.838C583.745 130.581 585.81 129.728 586.49 127.927C587.17 126.126 586.207 124.063 584.342 123.319C582.474 122.573 580.407 123.429 579.727 125.23Z" fill="#263238"/>
<path d="M581.513 113.663C581.789 114.258 585.058 113.205 588.77 114.469C592.496 115.679 594.577 118.511 595.133 118.192C595.399 118.058 595.238 117.097 594.342 115.832C593.464 114.577 591.754 113.067 589.435 112.295C587.116 111.527 584.883 111.721 583.469 112.215C582.032 112.707 581.371 113.39 581.513 113.663Z" fill="#263238"/>
<path d="M612.32 138.335C611.64 140.136 612.604 142.198 614.473 142.942C616.337 143.685 618.402 142.833 619.083 141.031C619.763 139.23 618.799 137.167 616.934 136.423C615.066 135.678 613 136.534 612.32 138.335Z" fill="#263238"/>
<path d="M617.397 127.455C617.673 128.05 620.946 127 624.655 128.263C628.38 129.473 630.461 132.305 631.019 131.986C631.284 131.851 631.127 130.893 630.227 129.627C629.35 128.371 627.639 126.861 625.322 126.089C623.004 125.321 620.769 125.515 619.356 126.009C617.92 126.5 617.256 127.183 617.397 127.455Z" fill="#263238"/>
<path d="M594.43 151.502C594.519 151.297 592.344 150.118 588.764 148.376C587.848 147.958 587.013 147.466 587.072 146.765C587.08 146.005 587.822 145.115 588.655 144.166C590.323 142.171 592.068 140.081 593.9 137.89C601.269 128.921 606.945 121.416 606.582 121.122C606.218 120.828 599.95 127.86 592.581 136.83C590.787 139.05 589.074 141.165 587.439 143.19C586.717 144.147 585.686 145.161 585.69 146.747C585.706 147.542 586.229 148.292 586.781 148.661C587.326 149.052 587.857 149.243 588.317 149.429C592.014 150.902 594.344 151.708 594.43 151.502Z" fill="#263238"/>
<path d="M604.496 157.764C603.903 157.525 602.534 161.555 598.116 163.251C593.701 164.959 589.555 163.055 589.333 163.608C589.192 163.842 590.026 164.714 591.824 165.377C593.583 166.039 596.376 166.345 599.079 165.307C601.777 164.262 603.473 162.227 604.17 160.618C604.892 158.985 604.78 157.834 604.496 157.764Z" fill="#263238"/>
<path d="M622.693 112.448C622.718 113.582 626.589 114.356 630.771 116.353C634.992 118.266 638.076 120.729 638.961 120.019C639.365 119.673 639.073 118.515 637.982 117.057C636.903 115.605 634.969 113.918 632.451 112.743C629.931 111.573 627.395 111.18 625.589 111.289C623.771 111.394 622.696 111.916 622.693 112.448Z" fill="#263238"/>
<path d="M587.219 101.831C587.588 102.896 590.443 102.884 593.534 103.882C596.659 104.772 599.026 106.368 599.923 105.688C600.33 105.349 600.206 104.365 599.337 103.182C598.484 102.007 596.826 100.723 594.69 100.073C592.553 99.426 590.462 99.572 589.099 100.075C587.72 100.575 587.07 101.323 587.219 101.831Z" fill="#263238"/>
<path d="M652.264 154.497C652.737 154.458 670.535 155.193 664.426 171.543C658.316 187.893 643.162 178.387 643.309 177.907C643.455 177.428 652.264 154.497 652.264 154.497Z" fill="#FFBF9D"/>
<path d="M650.617 173.58C650.709 173.554 650.828 173.886 651.227 174.286C651.616 174.676 652.368 175.126 653.34 175.125C655.304 175.137 657.783 172.938 658.964 170.021C659.561 168.549 659.779 167.015 659.69 165.645C659.638 164.263 659.177 163.138 658.364 162.658C657.573 162.135 656.763 162.425 656.391 162.811C656.001 163.186 655.983 163.551 655.886 163.547C655.825 163.571 655.638 163.142 656.022 162.516C656.211 162.216 656.547 161.903 657.048 161.732C657.559 161.559 658.197 161.613 658.778 161.905C660.006 162.463 660.708 164.047 660.806 165.551C660.972 167.087 660.762 168.824 660.091 170.477C658.755 173.733 655.917 176.185 653.298 175.985C652.036 175.855 651.206 175.15 650.854 174.579C650.499 173.986 650.549 173.588 650.617 173.58Z" fill="#FF9A6C"/>
<path d="M600.636 78.935C598.557 76.468 609.749 70.964 617.358 70.511C628.859 69.826 644.866 72.829 652.914 78.856C662.604 86.112 669.562 94.988 671.223 106.98C672.884 118.972 670.512 131.29 665.859 142.466C664.44 145.876 662.703 149.332 659.743 151.54C656.085 154.269 650.847 154.863 649.131 159.906C648.504 161.749 647.282 163.384 645.53 164.231C641.332 166.26 638.827 161.88 638.297 158.248C637.165 150.491 639.69 142.718 642.181 135.285C643.952 130.002 645.778 124.612 649.159 120.183C650.998 117.773 653.264 115.698 654.967 113.189C656.67 110.681 657.787 107.521 656.934 104.611C656.795 104.138 656.512 103.499 656.124 102.764C653.062 96.949 647.066 93.259 640.496 93.085C630.074 92.81 612.543 91.645 609.645 86.961C605.476 80.221 605.189 76.759 605.189 76.759L600.636 78.935Z" fill="#263238"/>
<path d="M655.031 68.882C656.079 69.414 680.651 84.595 680.488 106.732C680.326 128.869 676.275 134.29 676.275 134.29C676.275 134.29 677.497 135.761 678.234 137.639C678.894 139.322 675.124 145.018 671.89 143.117C649.829 122.649 619.428 110.894 584.747 100.156L558.585 90.792C550.934 89.116 549.023 86.275 552.761 85.496C555.627 84.899 579.387 83.698 579.387 83.698L584.518 82.118L600.544 70.806C600.544 70.806 599.924 68.252 603.177 67.421C606.431 66.59 634.339 58.381 655.031 68.882Z" fill="#E75F62"/>
<path d="M584.52 82.118C584.52 82.118 584.868 82.257 585.542 82.478C586.347 82.735 587.322 83.047 588.497 83.422C591.079 84.189 594.755 85.488 599.27 87.153C608.254 90.585 620.444 96.026 633.02 103.629C645.648 111.149 656.378 119.06 664.037 124.889C667.876 127.797 670.933 130.215 673.058 131.872C674.032 132.63 674.839 133.259 675.506 133.778C676.069 134.209 676.379 134.418 676.379 134.418C676.379 134.418 676.108 134.16 675.564 133.705C674.912 133.167 674.122 132.516 673.171 131.731C671.081 130.031 668.054 127.573 664.238 124.629C656.626 118.729 645.911 110.764 633.259 103.23C620.658 95.612 608.414 90.204 599.385 86.845C590.323 83.535 584.52 82.118 584.52 82.118Z" fill="#263238"/>
<g opacity="0.3">
<path d="M675.338 88.949C675.338 88.949 648.222 74.433 633.241 76.193C633.824 76.114 634.408 76.034 634.991 75.955C630.329 76.343 625.667 76.731 621.006 77.12C618.644 77.317 615.931 77.387 614.306 75.662C614.306 75.662 622.798 72.064 636.206 72.133C649.614 72.201 669.289 77.012 675.338 88.949Z" fill="black"/>
</g>
<path d="M675.703 89.243C675.703 89.243 675.093 88.251 673.71 86.673C672.333 85.099 670.195 82.908 667.132 80.728C664.095 78.528 660.134 76.35 655.435 74.736C650.763 73.124 645.279 71.969 639.534 72.528C636.67 72.77 633.927 73.334 631.292 73.885C628.666 74.483 626.115 74.926 623.712 75.594C621.327 76.263 619.095 77.002 616.925 77.21C614.748 77.515 612.765 76.992 610.993 76.421C603.903 74.092 600.072 71.143 600.545 70.805C600.55 70.787 600.525 71.137 600.917 71.556C601.301 71.956 601.935 72.487 602.833 73.031C604.619 74.132 607.335 75.52 610.891 76.735C612.645 77.329 614.739 77.893 616.965 77.596C619.189 77.398 621.456 76.661 623.827 76.009C626.194 75.363 628.766 74.924 631.387 74.333C634.018 73.789 636.746 73.231 639.574 72.993C645.241 72.442 650.648 73.566 655.296 75.143C659.962 76.721 663.904 78.849 666.941 80.998C670.004 83.125 672.162 85.264 673.574 86.794C674.28 87.562 674.805 88.18 675.147 88.611C675.499 89.035 675.703 89.243 675.703 89.243Z" fill="#263238"/>
<g opacity="0.3">
<path d="M680.139 115.878C675.004 114.073 671.558 111.396 666.832 108.522C661.796 105.46 656.725 102.663 651.841 99.364C648.135 96.86 643.642 94.215 641.993 90.348C640.873 92.35 640.847 94.504 641.897 96.543C642.946 98.582 647.404 102.113 649.301 103.403C660.111 110.751 667.623 115.772 679.705 120.885C680.035 119.571 680.139 115.878 680.139 115.878Z" fill="black"/>
</g>
<path d="M680.404 104.277C683.179 106.812 684.852 108.453 683.992 111.263C683.276 113.602 681.835 116.269 679.419 115.89C678.682 115.775 678.019 115.391 677.375 115.014C666.35 108.557 655.326 102.1 644.301 95.643C643.183 94.988 641.981 94.236 641.555 93.012C640.899 91.129 642.542 89.072 644.465 88.549C646.388 88.026 648.423 88.597 650.32 89.21C661.101 92.696 670.934 98.058 680.404 104.277Z" fill="#E75F62"/>
<path d="M641.923 93.721C641.991 93.701 641.437 93.116 641.5 91.843C641.552 90.646 642.391 88.682 644.5 87.86C646.622 87.141 649.434 87.623 652.19 88.735C654.991 89.857 658.06 91.134 661.227 92.581C667.578 95.454 673.064 98.6 676.798 101.223C678.681 102.512 680.134 103.653 681.137 104.444C681.546 104.774 681.922 105.079 682.281 105.368C682.546 105.575 682.691 105.679 682.701 105.667C682.712 105.655 682.588 105.528 682.342 105.297C682 104.985 681.641 104.658 681.252 104.304C680.282 103.468 678.854 102.282 676.987 100.952C673.284 98.248 667.791 95.038 661.419 92.156C658.24 90.703 655.163 89.438 652.343 88.334C649.529 87.231 646.638 86.744 644.379 87.552C642.127 88.484 641.319 90.578 641.315 91.836C641.304 92.494 641.475 92.988 641.624 93.294C641.799 93.59 641.914 93.728 641.923 93.721Z" fill="#263238"/>
<path d="M595.516 74.356L618.033 81.569L613.98 87.22L589.848 78.357L595.516 74.356Z" fill="white"/>
<path d="M622.516 105.809C622.574 105.694 613.095 100.847 601.348 94.985C589.597 89.121 580.027 84.463 579.97 84.578C579.912 84.693 589.389 89.539 601.14 95.403C612.887 101.265 622.459 105.925 622.516 105.809Z" fill="#263238"/>
<path d="M628.194 227.128L628.489 212.347L577.909 231.136C577.909 231.136 568.561 200.772 568.561 199.338L557.352 206.384L538.722 198.374L520.092 189.166L482.409 255.121L442.88 371.684L536.034 433.804L605.094 359.793L647.078 295.819L670.162 255.296L628.194 227.128Z" fill="#E75F62"/>
<path d="M573.413 230.922C573.383 230.922 573.357 230.405 573.335 229.444C573.322 228.409 573.305 227.02 573.283 225.299L573.511 225.444C569.641 227.321 563.821 230.703 558.28 235.874L557.875 236.252L557.844 235.699C557.807 235.041 557.767 234.34 557.728 233.632C557.322 226.382 556.984 219.818 556.765 215.065C556.669 212.745 556.591 210.84 556.533 209.435C556.518 208.818 556.506 208.312 556.496 207.903C556.493 207.552 556.501 207.368 556.518 207.367C556.536 207.366 556.564 207.549 556.6 207.897C556.636 208.305 556.68 208.809 556.734 209.424C556.833 210.827 556.968 212.728 557.131 215.044C557.444 219.792 557.84 226.352 558.246 233.602C558.285 234.31 558.324 235.012 558.361 235.669L557.925 235.493C563.523 230.286 569.435 226.939 573.372 225.155L573.606 225.049L573.6 225.3C573.56 227.021 573.528 228.41 573.504 229.444C573.475 230.406 573.443 230.922 573.413 230.922Z" fill="#263238"/>
<path d="M623.53 227.839C623.537 227.855 623.339 227.963 622.954 228.152C622.518 228.359 621.956 228.626 621.26 228.956C619.721 229.66 617.594 230.634 614.992 231.825C609.627 234.225 602.313 237.497 594.232 241.111C590.77 242.64 587.45 244.106 584.368 245.467L583.947 245.653L584.026 245.201C585.016 239.568 585.217 234.599 585.178 230.968L585.412 231.109C583.454 232.061 581.883 232.824 580.743 233.378C580.234 233.615 579.822 233.807 579.493 233.96C579.207 234.088 579.056 234.147 579.049 234.134C579.042 234.12 579.18 234.034 579.453 233.88C579.772 233.707 580.171 233.49 580.665 233.222C581.789 232.635 583.337 231.827 585.267 230.82L585.493 230.702L585.501 230.961C585.616 234.606 585.473 239.607 584.509 245.284L584.168 245.018C587.246 243.648 590.562 242.173 594.02 240.634C602.125 237.073 609.461 233.851 614.842 231.487C617.473 230.358 619.622 229.436 621.177 228.769C621.889 228.475 622.464 228.238 622.91 228.054C623.309 227.897 623.522 227.822 623.53 227.839Z" fill="#263238"/>
<path d="M535.103 446.758H154.196C146.151 446.758 139.629 440.236 139.629 432.191V168.451C139.629 160.406 146.151 153.884 154.196 153.884H535.102C543.147 153.884 549.669 160.406 549.669 168.451V432.192C549.67 440.236 543.148 446.758 535.103 446.758Z" fill="#455A64"/>
<path d="M550.054 453.47H141.401C131.572 453.47 123.603 445.502 123.603 435.672V427.843H567.851V435.672C567.852 445.502 559.884 453.47 550.054 453.47Z" fill="#455A64"/>
<path d="M537.517 165.519H150.636V412.848H537.517V165.519Z" fill="#263238"/>
<path d="M304.228 425.097L309.741 434.568H387.312L392.431 425.097H304.228Z" fill="#263238"/>
<path d="M527.071 412.057H161.878C160.07 412.057 158.605 410.591 158.605 408.784V177.165C158.605 175.358 160.07 173.892 161.878 173.892H527.072C528.879 173.892 530.345 175.357 530.345 177.165V408.784C530.344 410.591 528.879 412.057 527.071 412.057Z" fill="#EBEBEB"/>
<path d="M529.946 412.405H158.206L158.604 191.691H529.946V412.405Z" fill="#FAFAFA"/>
<path d="M189.838 183.09C189.838 184.861 188.467 186.297 186.777 186.297C185.086 186.297 183.716 184.861 183.716 183.09C183.716 181.319 185.086 179.884 186.777 179.884C188.467 179.884 189.838 181.319 189.838 183.09Z" fill="#263238"/>
<path d="M171.284 183.09C171.284 184.861 169.914 186.297 168.222 186.297C166.532 186.297 165.161 184.861 165.161 183.09C165.161 181.319 166.532 179.884 168.222 179.884C169.914 179.884 171.284 181.319 171.284 183.09Z" fill="#263238"/>
<path d="M180.82 183.09C180.82 184.861 179.45 186.297 177.759 186.297C176.068 186.297 174.698 184.861 174.698 183.09C174.698 181.319 176.069 179.884 177.759 179.884C179.45 179.884 180.82 181.319 180.82 183.09Z" fill="#263238"/>
<path d="M546.146 425.097C546.146 425.256 455.137 425.384 342.897 425.384C230.618 425.384 139.628 425.256 139.628 425.097C139.628 424.939 230.618 424.81 342.897 424.81C455.137 424.81 546.146 424.939 546.146 425.097Z" fill="#263238"/>
<path d="M304.543 234.031C310.658 230.335 317.168 227.533 323.883 225.626L327.867 206.482L360.211 205.915L364.865 224.905C371.643 226.575 378.249 229.147 384.49 232.626L400.837 221.911L424.109 244.382L413.977 261.092C417.674 267.209 420.475 273.722 422.381 280.437L441.523 284.42L442.091 316.764L423.1 321.42C421.43 328.197 418.858 334.801 415.38 341.043L426.093 357.391L403.626 380.664L386.914 370.531C380.798 374.227 374.286 377.028 367.571 378.935L363.586 398.079L331.243 398.647L326.588 379.655C319.811 377.984 313.206 375.413 306.964 371.935L290.617 382.65L267.344 360.18L277.477 343.47C273.781 337.353 270.978 330.843 269.071 324.127L249.928 320.143L249.361 287.8L268.352 283.143C270.022 276.366 272.595 269.762 276.072 263.52L265.36 247.17L287.828 223.897L304.543 234.031ZM321.784 277.118C308.472 290.907 308.857 312.876 322.646 326.187C336.434 339.499 358.403 339.112 371.714 325.324C385.025 311.536 384.641 289.567 370.852 276.255C357.064 262.944 335.096 263.33 321.784 277.118Z" fill="#E0E0E0"/>
<path d="M433.752 246.373C434.196 243.95 434.962 241.63 436.004 239.462L431.976 234.058L439.223 225.584L445.186 228.724C447.166 227.357 449.34 226.241 451.664 225.425L452.636 218.758L463.753 217.89L465.748 224.324C468.171 224.769 470.492 225.534 472.66 226.578L478.063 222.55L486.538 229.797L483.398 235.761C484.765 237.741 485.881 239.914 486.696 242.238L493.363 243.211L494.232 254.327L487.798 256.322C487.354 258.745 486.588 261.065 485.545 263.234L489.573 268.638L482.326 277.112L476.362 273.972C474.382 275.339 472.209 276.455 469.884 277.27L468.912 283.937L457.795 284.805L455.8 278.371C453.377 277.926 451.057 277.161 448.888 276.118L443.484 280.146L435.01 272.899L438.15 266.935C436.783 264.955 435.668 262.781 434.852 260.458L428.185 259.486L427.317 248.369L433.752 246.373ZM448.817 249.744C448.143 257.714 455.09 263.96 462.811 262.625C468.074 261.715 472.2 257.267 472.651 251.945C473.327 243.974 466.378 237.724 458.655 239.062C453.392 239.973 449.268 244.421 448.817 249.744Z" fill="#E0E0E0"/>
<path d="M190.218 358.025C190.303 355.119 190.781 352.275 191.609 349.559L185.942 343.975L192.881 332.791L200.401 335.387C202.467 333.438 204.803 331.746 207.369 330.379L207.31 322.427L220.125 319.426L223.604 326.575C226.511 326.66 229.356 327.138 232.072 327.968L237.655 322.302L248.839 329.241L246.243 336.761C248.192 338.826 249.882 341.162 251.25 343.728L259.202 343.67L262.205 356.484L255.055 359.963C254.97 362.869 254.492 365.714 253.663 368.43L259.33 374.014L252.391 385.198L244.871 382.601C242.805 384.55 240.469 386.241 237.904 387.608L237.963 395.56L225.148 398.562L221.669 391.412C218.762 391.327 215.918 390.849 213.201 390.02L207.617 395.687L196.433 388.748L199.029 381.228C197.08 379.163 195.39 376.826 194.022 374.261L186.07 374.319L183.068 361.504L190.218 358.025ZM208.753 361.632C210.532 369.225 218.128 373.938 225.721 372.159C233.313 370.38 238.026 362.784 236.247 355.191C234.468 347.599 226.872 342.885 219.279 344.664C211.687 346.444 206.974 354.04 208.753 361.632Z" fill="#E0E0E0"/>
<path d="M213.229 251.177C213.564 249.351 214.141 247.601 214.927 245.967L211.89 241.893L217.354 235.504L221.85 237.871C223.343 236.84 224.982 235.999 226.734 235.384L227.467 230.358L235.848 229.704L237.352 234.554C239.179 234.889 240.929 235.467 242.563 236.253L246.637 233.216L253.026 238.679L250.659 243.175C251.689 244.668 252.531 246.306 253.145 248.058L258.171 248.791L258.826 257.172L253.975 258.676C253.64 260.503 253.063 262.252 252.276 263.887L255.313 267.961L249.85 274.35L245.354 271.983C243.861 273.013 242.223 273.855 240.471 274.47L239.738 279.496L231.357 280.151L229.853 275.3C228.026 274.965 226.277 274.388 224.642 273.602L220.568 276.639L214.179 271.176L216.546 266.68C215.516 265.187 214.675 263.549 214.06 261.797L209.034 261.064L208.379 252.683L213.229 251.177ZM224.581 255.249C224.969 260.215 229.308 263.925 234.274 263.537C239.239 263.149 242.95 258.809 242.562 253.844C242.174 248.879 237.835 245.168 232.869 245.556C227.904 245.944 224.193 250.283 224.581 255.249Z" fill="#EBEBEB"/>
<path d="M434.172 341.427C434.46 339.858 434.955 338.356 435.63 336.951L433.021 333.452L437.714 327.964L441.576 329.997C442.858 329.112 444.266 328.389 445.771 327.861L446.401 323.544L453.6 322.982L454.892 327.148C456.461 327.436 457.964 327.932 459.368 328.607L462.867 325.998L468.355 330.691L466.322 334.553C467.207 335.835 467.93 337.242 468.458 338.747L472.775 339.377L473.338 346.576L469.171 347.868C468.883 349.437 468.387 350.94 467.712 352.344L470.321 355.844L465.628 361.332L461.766 359.298C460.484 360.183 459.076 360.906 457.571 361.434L456.941 365.751L449.742 366.313L448.45 362.146C446.881 361.858 445.378 361.363 443.974 360.687L440.475 363.296L434.987 358.603L437.02 354.741C436.135 353.459 435.413 352.051 434.884 350.546L430.567 349.916L430.005 342.717L434.172 341.427ZM443.923 344.924C444.256 349.189 447.984 352.377 452.249 352.044C456.514 351.711 459.702 347.983 459.368 343.718C459.035 339.453 455.307 336.265 451.042 336.599C446.777 336.932 443.59 340.659 443.923 344.924Z" fill="#EBEBEB"/>
<path d="M345.728 352.276H295.975C283.126 352.276 275.096 338.367 281.52 327.24L306.397 284.152L331.274 241.065C337.698 229.938 353.759 229.938 360.184 241.065L385.061 284.152L409.938 327.24C416.362 338.367 408.332 352.276 395.483 352.276H345.728Z" fill="#E75F62"/>
<path d="M399.285 332.218C399.285 332.218 399.424 332.475 399.674 332.991C399.864 333.525 400.179 334.344 400.178 335.475C400.205 336.591 399.928 338.021 399.014 339.404C398.55 340.082 397.939 340.748 397.14 341.271C396.336 341.78 395.352 342.134 394.279 342.206C385.801 342.297 373.558 342.282 358.417 342.319C343.274 342.335 325.25 342.354 305.237 342.375C302.735 342.377 300.202 342.378 297.64 342.38C294.942 342.439 292.377 340.522 291.51 337.945C291.052 336.67 290.953 335.256 291.258 333.917C291.345 333.586 291.453 333.259 291.561 332.934C291.707 332.625 291.846 332.304 292 332.005L292.959 330.25C294.241 327.905 295.536 325.537 296.842 323.148C302.069 313.594 307.48 303.701 313.022 293.57C318.569 283.437 323.985 273.543 329.216 263.988C331.832 259.211 334.403 254.519 336.92 249.924C337.562 248.777 338.148 247.629 338.826 246.5C339.511 245.359 340.472 244.374 341.625 243.721C343.919 242.383 346.813 242.29 349.149 243.384C350.315 243.927 351.358 244.739 352.122 245.759C352.874 246.805 353.394 247.903 353.993 248.967C355.162 251.107 356.315 253.218 357.451 255.299C359.723 259.46 361.929 263.501 364.062 267.407C368.325 275.22 372.296 282.499 375.921 289.144C383.154 302.433 389.007 313.189 393.061 320.637C395.07 324.352 396.631 327.239 397.698 329.212C398.218 330.186 398.617 330.932 398.892 331.448C399.16 331.953 399.285 332.218 399.285 332.218C399.285 332.218 399.129 331.97 398.847 331.473C398.561 330.962 398.147 330.225 397.607 329.262C396.52 327.3 394.931 324.429 392.885 320.734C388.797 313.305 382.894 302.576 375.6 289.321C371.957 282.685 367.968 275.416 363.685 267.614C361.545 263.712 359.331 259.676 357.051 255.518C355.911 253.439 354.755 251.33 353.583 249.192C352.987 248.134 352.441 247.006 351.746 246.047C351.025 245.086 350.044 244.327 348.948 243.818C346.752 242.792 344.022 242.884 341.873 244.142C340.791 244.755 339.892 245.68 339.248 246.755C338.593 247.846 337.992 249.023 337.357 250.162C334.844 254.759 332.277 259.454 329.664 264.233C324.436 273.79 319.023 283.685 313.479 293.82C307.933 303.95 302.519 313.84 297.29 323.393C295.982 325.781 294.686 328.148 293.402 330.492C292.788 331.685 292.006 332.785 291.746 334.031C291.462 335.274 291.553 336.588 291.978 337.776C292.79 340.181 295.148 341.941 297.64 341.892C300.202 341.894 302.735 341.895 305.237 341.897C325.25 341.918 343.274 341.937 358.417 341.953C373.543 341.976 385.787 341.994 394.266 342.006C395.305 341.944 396.259 341.61 397.045 341.123C397.826 340.622 398.427 339.978 398.887 339.32C399.793 337.977 400.084 336.577 400.074 335.478C400.033 333.234 399.189 332.236 399.285 332.218Z" fill="#263238"/>
<path d="M337.675 323.009C337.675 318.597 341.19 315.307 346.2 315.307C351.21 315.307 354.65 318.597 354.65 323.009C354.65 327.347 351.21 330.862 346.2 330.862C341.19 330.862 337.675 327.347 337.675 323.009ZM337.75 277.84H354.651L351.809 311.119H340.517L337.75 277.84Z" fill="white"/>
<path d="M348.112 236.116C348.074 236.221 346.948 235.557 344.945 235.464C342.973 235.348 340.137 235.997 337.734 237.875C335.334 239.768 333.873 242.215 332.966 243.996C332.059 245.797 331.633 246.983 331.552 246.953C331.52 246.942 331.589 246.633 331.761 246.09C331.932 245.546 332.215 244.77 332.635 243.837C333.468 241.993 334.914 239.438 337.414 237.465C339.929 235.498 342.921 234.879 344.97 235.097C346.002 235.195 346.813 235.439 347.337 235.676C347.863 235.909 348.126 236.09 348.112 236.116Z" fill="white"/>
<path d="M327.309 254.399C327.185 254.326 327.675 253.268 328.404 252.037C329.133 250.805 329.823 249.866 329.947 249.94C330.071 250.013 329.581 251.071 328.852 252.302C328.124 253.533 327.433 254.472 327.309 254.399Z" fill="white"/>
<g opacity="0.3">
<path d="M370.686 259.257L293.203 307.003L283.139 324.435L376.157 268.732L370.686 259.257Z" fill="white"/>
</g>
<g opacity="0.3">
<path d="M382.887 280.415L280.182 340.999C280.476 342.374 281.398 344.148 282.413 345.316L384.703 283.561L382.887 280.415Z" fill="white"/>
</g>
<path d="M636.716 393.395C628.489 384.328 616.018 381.415 605.072 384.922L595.499 374.419L594.166 372.928L518.438 289.841C522.989 279.286 521.3 266.592 513.073 257.525C506.076 249.814 496.009 246.55 486.421 247.902L482.722 249.372L495.603 258.023L494.921 272.068L484.507 281.517L470.462 280.834L461.28 270.714L457.485 272.197C456.398 280.674 462.081 291.348 468.273 298.173C476.487 307.227 488.933 310.144 499.868 306.662L576.864 391.141L579.232 393.767L586.529 401.774C582.003 412.319 583.7 424.989 591.914 434.043C598.082 440.841 606.262 445.38 614.771 445.149L618.566 443.666L609.384 433.545L610.067 419.5L620.481 410.051L634.526 410.734L639.913 422.338L643.708 420.855C645.985 411.443 643.712 401.107 636.716 393.395Z" fill="#E0E0E0"/>
<g opacity="0.3">
<path d="M636.716 393.395C628.489 384.328 616.018 381.415 605.072 384.922L595.499 374.419L594.166 372.928L518.438 289.841C522.989 279.286 521.3 266.592 513.073 257.525C506.076 249.814 496.009 246.55 486.421 247.902L482.722 249.372L495.603 258.023L494.921 272.068L484.507 281.517L470.462 280.834L461.28 270.714L457.485 272.197C456.398 280.674 462.081 291.348 468.273 298.173C476.487 307.227 488.933 310.144 499.868 306.662L576.864 391.141L579.232 393.767L586.529 401.774C582.003 412.319 583.7 424.989 591.914 434.043C598.082 440.841 606.262 445.38 614.771 445.149L618.566 443.666L609.384 433.545L610.067 419.5L620.481 410.051L634.526 410.734L639.913 422.338L643.708 420.855C645.985 411.443 643.712 401.107 636.716 393.395Z" fill="black"/>
</g>
<path d="M632.92 394.879C624.693 385.812 612.223 382.899 601.276 386.406L591.703 375.903L590.37 374.412L514.642 291.325C519.193 280.77 517.504 268.076 509.277 259.009C502.28 251.298 492.213 248.034 482.625 249.386L491.807 259.506L491.125 273.551L480.711 283L466.666 282.317L457.484 272.196C455.208 281.607 457.481 291.944 464.477 299.655C472.692 308.709 485.137 311.626 496.072 308.144L573.068 392.623L575.436 395.249L582.733 403.256C578.207 413.801 579.904 426.471 588.118 435.525C595.115 443.236 605.182 446.5 614.77 445.148L605.588 435.028L606.27 420.983L616.684 411.534L630.729 412.217L639.911 422.337C642.19 412.926 639.917 402.59 632.92 394.879Z" fill="#E0E0E0"/>
<path d="M632.92 394.879C632.92 394.879 633.356 395.362 634.19 396.327C634.96 397.34 636.146 398.839 637.32 401.049C638.499 403.248 639.661 406.157 640.359 409.763C640.992 413.365 641.137 417.695 640.018 422.364L639.971 422.562L639.834 422.411C637.111 419.419 634.007 416.009 630.636 412.305L630.725 412.347C626.393 412.142 621.682 411.919 616.679 411.682L616.785 411.644C613.534 414.6 610.041 417.776 606.381 421.104L606.434 420.992C606.226 425.355 606 430.105 605.765 435.037L605.72 434.911C608.563 438.04 611.689 441.478 614.911 445.024L615.148 445.284L614.799 445.334C610.048 446.013 604.964 445.566 600.161 443.827C595.361 442.103 590.863 439.069 587.375 434.962C583.86 430.889 581.359 425.729 580.467 420.141C579.55 414.568 580.2 408.595 582.529 403.169L582.569 403.409C556.891 375.242 527.389 342.88 495.883 308.32L496.153 308.392C490.852 310.084 484.906 310.324 479.25 308.866C473.591 307.435 468.284 304.255 464.278 299.82C460.909 296.108 458.49 291.578 457.293 286.768C456.084 281.96 456.081 276.891 457.235 272.136L457.35 271.66L457.679 272.022C460.761 275.419 463.821 278.793 466.86 282.143L466.682 282.059C471.399 282.289 476.081 282.517 480.727 282.743L480.542 282.809C484.048 279.629 487.518 276.482 490.957 273.362L490.874 273.538C491.105 268.804 491.333 264.126 491.559 259.494L491.624 259.675C488.529 256.262 485.471 252.89 482.444 249.552L482.127 249.203L482.593 249.14C488.245 248.374 494.036 249.154 499.114 251.409C504.201 253.64 508.576 257.247 511.685 261.645C514.814 266.028 516.734 271.173 517.199 276.373C517.69 281.571 516.828 286.781 514.85 291.414L514.81 291.173C552.34 332.434 582.547 365.644 601.361 386.328L601.241 386.296C606.659 384.574 611.81 384.631 616.039 385.379C620.276 386.22 623.652 387.704 626.14 389.228C628.653 390.736 630.276 392.272 631.378 393.258C632.409 394.326 632.92 394.879 632.92 394.879C632.92 394.879 632.378 394.354 631.336 393.302C630.223 392.332 628.591 390.816 626.079 389.331C623.591 387.829 620.224 386.371 616.008 385.553C611.8 384.828 606.684 384.79 601.312 386.516L601.242 386.539L601.192 386.484C582.343 365.832 552.079 332.674 514.478 291.478L514.381 291.371L514.438 291.237C516.382 286.671 517.227 281.537 516.739 276.419C516.276 271.299 514.382 266.236 511.299 261.924C508.234 257.595 503.925 254.049 498.92 251.857C493.922 249.641 488.223 248.877 482.663 249.633L482.812 249.221C485.84 252.557 488.899 255.927 491.997 259.339L492.067 259.416L492.062 259.52C491.838 264.153 491.611 268.83 491.382 273.565L491.377 273.67L491.299 273.741C487.86 276.862 484.391 280.011 480.887 283.191L480.808 283.262L480.702 283.257C476.057 283.032 471.374 282.805 466.657 282.576L466.55 282.571L466.478 282.492C463.438 279.142 460.377 275.769 457.295 272.373L457.739 272.26C456.605 276.934 456.61 281.918 457.798 286.643C458.975 291.371 461.351 295.822 464.664 299.472C468.603 303.833 473.817 306.957 479.38 308.364C484.939 309.798 490.786 309.562 495.996 307.9L496.154 307.849L496.266 307.972C527.754 342.549 557.239 374.926 582.902 403.107L583 403.214L582.943 403.347C580.644 408.691 579.997 414.577 580.895 420.072C581.769 425.582 584.227 430.672 587.691 434.693C591.128 438.75 595.56 441.747 600.296 443.456C605.034 445.179 610.054 445.628 614.748 444.965L614.636 445.275C611.42 441.724 608.3 438.28 605.462 435.147L605.413 435.093L605.417 435.021C605.661 430.089 605.897 425.339 606.113 420.977L606.116 420.91L606.166 420.865C609.833 417.545 613.333 414.376 616.59 411.428L616.635 411.387L616.696 411.39C621.698 411.639 626.408 411.874 630.74 412.091L630.794 412.094L630.83 412.134C634.189 415.848 637.282 419.268 639.997 422.269L639.813 422.316C640.94 417.684 640.813 413.38 640.201 409.795C639.524 406.206 638.384 403.304 637.226 401.105C636.072 398.894 634.904 397.388 634.15 396.366C633.328 395.387 632.92 394.879 632.92 394.879Z" fill="#263238"/>
<path d="M511.188 296.171C511.219 296.188 511.101 296.452 510.859 296.917C510.624 297.385 510.228 298.033 509.694 298.803C508.631 300.345 506.908 302.323 504.634 304.077C502.353 305.825 499.998 306.981 498.235 307.612C497.353 307.93 496.626 308.145 496.113 308.253C495.602 308.367 495.317 308.414 495.308 308.379C495.285 308.294 496.397 307.986 498.102 307.273C499.807 306.565 502.084 305.382 504.32 303.669C506.55 301.949 508.278 300.053 509.401 298.587C510.528 297.122 511.112 296.127 511.188 296.171Z" fill="#263238"/>
<path d="M595.757 332.258L566.949 318.856L541.236 315.65L550.68 323.603C550.68 323.603 517.442 335.187 516.859 337.799C516.276 340.411 519.485 347.427 525.339 346.132C525.339 346.132 522.046 350.095 523.417 354.536C524.788 358.976 527.816 359.779 533.404 358.748C533.404 358.748 529.602 364.439 532.583 367.34C535.564 370.242 540.2 369.505 540.2 369.505C540.2 369.505 540.256 376.437 543.918 377.043C547.58 377.65 557.781 376.931 561.588 375.756C565.395 374.58 580.937 369.781 580.937 369.781L593.548 367.014L595.757 332.258Z" fill="#FFBF9D"/>
<path d="M542.816 341.056C542.927 341.437 539.103 342.883 534.275 344.285C529.446 345.688 525.443 346.516 525.333 346.135C525.222 345.754 529.046 344.309 533.875 342.906C538.702 341.503 542.706 340.675 542.816 341.056Z" fill="#FF9A6C"/>
<path d="M547.709 354.735C547.824 355.115 544.785 356.365 540.925 357.528C537.062 358.69 533.839 359.325 533.725 358.945C533.611 358.566 536.648 357.315 540.511 356.153C544.372 354.989 547.595 354.355 547.709 354.735Z" fill="#FF9A6C"/>
<path d="M552.099 366.1C552.166 366.527 549.407 367.111 546.165 367.924C542.941 368.771 540.401 369.881 540.201 369.505C540.014 369.192 542.348 367.449 545.798 366.536C549.231 365.679 552.047 365.746 552.099 366.1Z" fill="#FF9A6C"/>
<path d="M555.732 322.5C555.839 322.889 552.065 324.258 547.402 325.867C542.735 327.469 538.918 328.711 538.764 328.339C538.613 327.98 542.22 326.128 546.935 324.509C551.647 322.884 555.63 322.124 555.732 322.5Z" fill="#FF9A6C"/>
<path d="M590.342 329.739L652.629 352.297L648.989 395.05L580.415 367.403L590.342 329.739Z" fill="#FFBF9D"/>
<path d="M670.26 254.927C670.26 254.927 678.383 263.321 683.109 278.411C687.803 293.395 710.14 357.466 709.571 377.824C708.983 398.872 694.813 413.892 663.671 405.574C645.088 400.611 622.954 392.586 622.954 392.586L638.688 340.853L650.997 343.956L631.12 306.643L670.26 254.927Z" fill="#E75F62"/>
<path d="M656.01 279.382C656.127 279.466 647.513 291.738 636.774 306.789C626.03 321.846 617.229 333.98 617.112 333.897C616.995 333.813 625.607 321.544 636.35 306.487C647.09 291.435 655.893 279.298 656.01 279.382Z" fill="#263238"/>
<path d="M679.839 351.034C679.816 351.071 679.302 350.77 678.328 350.324C677.357 349.873 675.906 349.321 674.058 348.814C672.212 348.303 669.971 347.826 667.484 347.285C664.99 346.734 662.263 346.131 659.4 345.498C653.667 344.216 648.484 343.027 644.738 342.141C642.934 341.703 641.441 341.34 640.308 341.065C639.265 340.8 638.692 340.636 638.7 340.601C638.708 340.566 639.297 340.662 640.354 340.867C641.496 341.101 643.001 341.409 644.821 341.781C648.588 342.575 653.784 343.708 659.518 344.99C662.377 345.637 665.101 346.253 667.592 346.817C670.071 347.383 672.308 347.898 674.16 348.46C676.012 349.017 677.463 349.63 678.417 350.142C678.897 350.392 679.256 350.611 679.492 350.77C679.73 350.928 679.849 351.019 679.839 351.034Z" fill="#263238"/>
<g opacity="0.3">
<path d="M695.763 353.285C695.516 350.814 693.666 348.728 691.477 347.555C689.288 346.382 686.78 345.973 684.32 345.636C673.126 344.1 661.812 343.674 650.521 343.251L651.565 343.704C665.502 346.277 679.177 350.261 692.315 355.577C693.071 355.883 693.93 356.193 694.674 355.861C695.584 355.454 695.862 354.277 695.763 353.285Z" fill="black"/>
</g>
<g opacity="0.3">
<path d="M439.135 154.916C428.638 153.131 416.081 156.177 405.584 154.392C404.015 154.125 402.299 153.883 400.92 154.677C399.263 155.631 398.69 157.746 398.609 159.656C398.384 164.941 400.829 170.156 404.644 173.819C408.459 177.482 413.536 179.671 418.751 180.556C422.942 181.268 427.445 181.131 431.183 179.107C437.707 175.573 440.864 162.132 439.135 154.916Z" fill="black"/>
</g>
<path d="M398.391 174.126C398.391 174.126 392.02 166.664 391.097 163.218C390.485 160.935 390.792 154.55 391.069 150.501C391.259 147.726 392.982 145.191 395.616 144.298C396.534 143.987 397.404 143.947 397.992 144.49C397.992 144.49 398.395 143.792 400.895 141.233C403.395 138.674 404.582 136.939 410.084 138.531C410.084 138.531 414.131 134.258 416.459 134.577C418.787 134.897 421.094 135.576 421.094 135.576C421.094 135.576 429.964 135.202 431.782 138.019C432.578 139.251 434.217 140.112 435.81 140.69C438.611 141.707 440.913 143.747 442.137 146.464C443.803 150.161 443.908 154.194 443.908 154.194L434.882 154.552C434.882 154.552 435.52 175.258 433.253 176.928C430.987 178.599 430.119 178.005 430.119 178.005C430.119 178.005 428.39 182.864 421.642 179.268C421.642 179.268 416.039 180.957 413.649 178.648C411.259 176.339 402.471 154.147 402.471 154.147L402.716 165.176C402.716 165.176 407.346 172.313 405.079 173.984C402.814 175.654 398.391 174.126 398.391 174.126Z" fill="#FFBF9D"/>
<path d="M409.63 146.058C409.664 146.047 409.846 146.511 410.144 147.358C410.464 148.304 410.873 149.514 411.362 150.963C412.369 154.013 413.726 158.238 415.194 162.914C416.675 167.588 417.868 171.867 419.254 174.749C419.924 176.198 420.598 177.304 421.09 178.049C421.58 178.797 421.892 179.184 421.856 179.214C421.842 179.226 421.751 179.14 421.59 178.965C421.426 178.792 421.197 178.527 420.925 178.166C420.377 177.449 419.644 176.357 418.923 174.909C417.431 172.023 416.176 167.734 414.697 163.07C413.229 158.394 411.928 154.152 411.011 151.073C410.585 149.605 410.229 148.378 409.951 147.419C409.711 146.553 409.595 146.069 409.63 146.058Z" fill="#FF9A6C"/>
<path d="M420.703 143.503C420.738 143.494 420.9 143.972 421.162 144.844C421.441 145.815 421.798 147.059 422.227 148.549C423.104 151.683 424.28 156.022 425.549 160.821C426.818 165.622 427.938 169.976 428.724 173.134C429.088 174.642 429.392 175.9 429.629 176.881C429.831 177.769 429.927 178.264 429.892 178.274C429.857 178.284 429.696 177.806 429.433 176.935C429.154 175.965 428.797 174.721 428.369 173.231C427.492 170.097 426.315 165.757 425.046 160.954C423.777 156.153 422.657 151.798 421.871 148.64C421.507 147.133 421.203 145.874 420.967 144.893C420.764 144.007 420.668 143.512 420.703 143.503Z" fill="#FF9A6C"/>
</svg>
