<svg width="61" height="60" viewBox="0 0 61 60" fill="none" xmlns="http://www.w3.org/2000/svg">
<g clip-path="url(#clip0_11_189)">
<path d="M40.46 30C40.46 32 39.85 33.8001 38.74 35.2001L32.87 29.4V21.3C37.12 21.9 40.46 25.6 40.46 30Z" fill="#E3835A"/>
<path d="M30.45 33.1001L35.71 38.3001C34.19 39.4001 32.37 40.0001 30.35 40.0001C28.53 40.0001 26.91 39.5001 25.49 38.6001L30.45 33.1001Z" fill="#80AF52"/>
<path d="M27.82 21.3V29.5L22.36 35.7001C21.05 34.2001 20.24 32.2 20.24 30C20.24 25.6 23.58 21.9 27.83 21.3H27.82Z" fill="#EA7E23"/>
<path d="M59.48 27.4999V32.4999H54.32C54.12 33.8999 53.92 35.2999 53.51 36.6999L58.26 38.6999L56.34 43.2999L51.59 41.2999C50.88 42.5999 50.07 43.7999 49.16 44.8999L52.8 48.4999L49.26 51.9999L45.62 48.3999C44.51 49.2999 43.29 50.0999 42.08 50.7999L44.1 55.4999L39.45 57.3999L37.43 52.6999C36.01 53.0999 34.6 53.3999 33.08 53.4999V58.5999H28.02V53.4999C26.5 53.2999 24.99 52.9999 23.57 52.5999L21.55 57.2999L16.9 55.3999L18.92 50.6999C17.71 49.9999 16.49 49.2999 15.48 48.3999L11.84 51.9999L8.3 48.4999L11.94 44.8999C11.03 43.7999 10.22 42.5999 9.51 41.2999L4.76 43.2999L2.84 38.6999L7.59 36.6999C7.19 35.3999 6.88 33.9999 6.78 32.4999H1.62V27.4999H6.78C6.88 26.0999 7.18 24.6999 7.59 23.2999L2.84 21.2999L4.76 16.6999L9.51 18.6999C10.22 17.3999 11.03 16.1999 11.94 15.0999L8.3 11.4999L11.84 7.9999L15.48 11.5999C16.59 10.6999 17.81 9.8999 19.02 9.1999L17 4.4999L21.65 2.5999L23.67 7.2999C25.09 6.8999 26.5 6.5999 28.02 6.4999V1.3999H33.08V6.4999C34.6 6.6999 36.11 6.9999 37.53 7.3999L39.55 2.6999L44.2 4.5999L42.18 9.2999C43.39 9.9999 44.61 10.6999 45.62 11.5999L49.26 7.9999L52.8 11.4999L49.16 15.0999C50.07 16.1999 50.88 17.3999 51.59 18.6999L56.34 16.6999L58.26 21.2999L53.51 23.2999C53.92 24.6999 54.22 25.9999 54.32 27.4999H59.48ZM48.05 29.9999C48.05 20.2999 40.16 12.4999 30.35 12.4999C20.54 12.4999 12.65 20.2999 12.65 29.9999C12.65 39.6999 20.54 47.4999 30.35 47.4999C40.16 47.4999 48.05 39.6999 48.05 29.9999Z" fill="#747371"/>
<path d="M32.88 60C32.17 60 31.57 59.4 31.57 58.7V53.6C31.57 53 32.08 52.4 32.68 52.4C34.1 52.3 35.41 52 36.73 51.6C37.34 51.4 38.05 51.7 38.25 52.3L39.77 55.9L42.1 54.9L40.58 51.3C40.38 50.7 40.58 50 41.19 49.7C42.4 49.1 43.52 48.3 44.63 47.4C45.14 47 45.84 47 46.35 47.5L49.08 50.2L50.9 48.4L48.17 45.7C47.66 45.2 47.66 44.5 48.07 44C48.98 42.9 49.69 41.8 50.4 40.6C50.7 40 51.41 39.8 52.02 40L55.66 41.5L56.67 39.2L53.03 37.7C52.42 37.5 52.12 36.8 52.32 36.2C52.73 34.9 52.93 33.6 53.13 32.2C53.23 31.6 53.74 31.1 54.34 31.1H58.29V28.6H54.34C53.73 28.6 53.13 28.1 53.13 27.5C53.03 26.2 52.73 24.8 52.32 23.5C52.12 22.9 52.42 22.2 53.03 22L56.67 20.5L55.66 18.2L52.02 19.7C51.41 19.9 50.7 19.7 50.4 19.1C49.69 17.9 48.98 16.7 48.07 15.7C47.66 15.2 47.66 14.5 48.17 14L50.9 11.3L49.08 9.5L46.35 12.2C45.84 12.7 45.14 12.7 44.63 12.3C43.62 11.5 42.51 10.7 41.39 10.1C40.78 9.8 40.58 9.1 40.88 8.5L42.4 4.9L40.07 3.9L38.55 7.5C38.35 8.1 37.64 8.4 37.03 8.2C35.61 7.8 34.2 7.5 32.78 7.4C32.17 7.3 31.67 6.8 31.67 6.2V2.3H29.14V6.2C29.14 6.8 28.63 7.4 28.03 7.4C26.61 7.5 25.3 7.8 23.98 8.2C23.37 8.4 22.67 8.1 22.46 7.5L20.94 3.9L18.61 4.9L20.13 8.5C20.33 9.1 20.13 9.8 19.52 10.1C18.31 10.7 17.19 11.5 16.08 12.4C15.57 12.8 14.87 12.8 14.36 12.3L11.63 9.6L9.80999 11.4L12.54 14.1C13.05 14.6 13.05 15.3 12.64 15.8C11.73 16.9 11.02 18 10.31 19.2C10.01 19.8 9.29998 20 8.68999 19.8L5.04999 18.3L4.03999 20.6L7.67999 22.1C8.28998 22.3 8.58999 23 8.38999 23.6C7.98999 24.9 7.77998 26.2 7.57999 27.6C7.47999 28.2 6.96999 28.7 6.36999 28.7H2.41999V31.2H6.36999C6.97999 31.2 7.57999 31.7 7.57999 32.3C7.67999 33.6 7.97999 35 8.38999 36.3C8.58999 36.9 8.28998 37.6 7.67999 37.8L4.03999 39.3L5.04999 41.6L8.68999 40.1C9.29998 39.9 9.99999 40.1 10.31 40.7C11.02 41.9 11.73 43.1 12.64 44.1C13.04 44.6 13.04 45.3 12.54 45.8L9.80999 48.5L11.63 50.3L14.36 47.6C14.87 47.1 15.57 47.1 16.08 47.5C17.09 48.3 18.2 49.1 19.32 49.7C19.93 50 20.13 50.7 19.83 51.3L18.31 54.9L20.64 55.9L22.16 52.3C22.36 51.7 23.07 51.4 23.68 51.6C25.1 52 26.51 52.3 27.93 52.4C28.54 52.5 29.04 53 29.04 53.6V58.7C29.04 59.4 28.43 60 27.73 60C27.03 60 26.41 59.4 26.41 58.7V54.7C25.6 54.6 24.79 54.4 23.98 54.2L22.36 57.9C22.06 58.5 21.35 58.8 20.74 58.6L16.19 56.7C15.89 56.6 15.68 56.3 15.48 56C15.38 55.7 15.38 55.3 15.48 55L17.1 51.3C16.49 50.9 15.89 50.5 15.38 50.1L12.45 53C12.25 53.2 11.84 53.4 11.54 53.4C11.24 53.4 10.93 53.3 10.63 53L7.08999 49.4C6.88999 49.2 6.68999 48.8 6.68999 48.5C6.68999 48.2 6.78999 47.9 7.08999 47.6L10.02 44.7C9.50999 44.1 9.10999 43.4 8.70999 42.8L4.96999 44.3C4.35998 44.6 3.54999 44.3 3.34999 43.6L1.42999 39C1.32999 38.7 1.32999 38.3 1.42999 38C1.52999 37.7 1.82999 37.5 2.13999 37.3L5.87999 35.8C5.67999 35.1 5.57999 34.3 5.47999 33.6H1.41999C0.709985 33.6 0.109985 33 0.109985 32.3V27.3C0.109985 26.6 0.719985 26 1.41999 26H5.46999C5.56998 25.3 5.76999 24.5 5.86999 23.8L2.02999 22.5C1.72999 22.4 1.41999 22.1 1.31999 21.8C1.21999 21.5 1.21999 21.1 1.31999 20.8L3.23999 16.2C3.53999 15.6 4.24999 15.3 4.85999 15.5L8.59999 17C8.99999 16.3 9.40999 15.7 9.90999 15.1L7.07999 12.3C6.87999 12.1 6.67999 11.7 6.67999 11.4C6.67999 11.1 6.77998 10.8 7.07999 10.5L10.62 7C10.82 6.8 11.23 6.6 11.53 6.6C11.83 6.6 12.14 6.7 12.44 7L15.37 9.9C15.98 9.5 16.58 9 17.29 8.6L15.77 4.9C15.47 4.3 15.77 3.5 16.48 3.3L21.13 1.4C21.43 1.3 21.84 1.3 22.14 1.4C22.44 1.5 22.75 1.8 22.85 2.1L24.37 5.8C25.18 5.6 25.89 5.5 26.7 5.3V1.3C26.7 0.6 27.31 0 28.01 0H33.07C33.78 0 34.39 0.6 34.39 1.3V5.3C35.2 5.4 36.01 5.6 36.82 5.8L38.44 2.1C38.74 1.5 39.45 1.2 40.06 1.4L44.71 3.3C45.01 3.4 45.22 3.7 45.42 4C45.52 4.3 45.52 4.7 45.42 5L43.8 8.7C44.41 9.1 45.01 9.5 45.52 9.9L48.45 7C48.65 6.8 49.06 6.6 49.36 6.6C49.66 6.6 49.97 6.7 50.27 7L53.81 10.5C54.01 10.7 54.21 11.1 54.21 11.4C54.21 11.7 54.11 12 53.81 12.3L50.88 15.2C51.39 15.8 51.79 16.5 52.2 17.1L55.94 15.6C56.55 15.3 57.36 15.6 57.56 16.3L59.48 20.9C59.58 21.2 59.58 21.6 59.48 21.9C59.38 22.2 59.08 22.4 58.77 22.6L55.03 24.1C55.23 24.8 55.33 25.6 55.43 26.3H59.48C60.19 26.3 60.8 26.9 60.8 27.6V32.6C60.8 33.3 60.19 33.9 59.48 33.9H55.43C55.33 34.6 55.13 35.4 55.03 36.1L58.77 37.6C59.07 37.7 59.38 38 59.48 38.3C59.58 38.6 59.58 39 59.48 39.3L57.56 43.9C57.26 44.5 56.55 44.8 55.94 44.6L52.2 43.1C51.79 43.8 51.39 44.4 50.88 45L53.81 47.9C54.01 48.1 54.21 48.5 54.21 48.8C54.21 49.1 54.11 49.4 53.81 49.7L49.97 53C49.77 53.2 49.36 53.4 49.06 53.4C48.76 53.4 48.45 53.3 48.15 53L45.22 50.1C44.61 50.5 44.01 51 43.3 51.4L44.82 55.1C45.12 55.7 44.82 56.5 44.11 56.7L39.46 58.6C39.16 58.7 38.75 58.7 38.45 58.6C38.15 58.5 37.84 58.2 37.74 57.9L36.42 54.3C35.61 54.5 34.9 54.6 34.09 54.8V58.8C34.19 59.4 33.58 60 32.88 60Z" fill="black"/>
<path d="M30.35 48.8C19.93 48.8 11.33 40.4 11.33 30C11.33 19.6 19.93 11.3 30.35 11.3C40.77 11.3 49.37 19.7 49.37 30C49.37 40.3 40.77 48.8 30.35 48.8ZM30.35 13.8C21.25 13.8 13.86 21.1 13.86 30.1C13.86 39.1 21.24 46.4001 30.35 46.4001C39.46 46.4001 46.84 39.1 46.84 30.1C46.84 21.1 39.46 13.8 30.35 13.8Z" fill="black"/>
<path d="M59.48 59.9999H1.31C0.6 59.9999 0 59.3999 0 58.6999C0 57.9999 0.61 57.3999 1.31 57.3999H59.48C60.19 57.3999 60.8 57.9999 60.8 58.6999C60.7 59.3999 60.09 59.9999 59.48 59.9999Z" fill="black"/>
<path d="M22.36 36.9001C21.96 36.9001 21.65 36.7001 21.45 36.5001C19.83 34.7001 19.02 32.4001 19.02 30.0001C19.02 27.6001 19.93 25.2001 21.55 23.4001C23.17 21.6001 25.29 20.4001 27.72 20.1001C28.12 20.0001 28.43 20.2001 28.73 20.4001C29.03 20.6001 29.13 21.0001 29.13 21.3001V29.5001C29.13 29.8001 29.03 30.1001 28.83 30.3001L23.27 36.5001C23.07 36.8001 22.76 36.9001 22.36 36.9001ZM26.61 22.9001C23.68 23.9001 21.55 26.8001 21.55 30.0001C21.55 31.3001 21.85 32.6001 22.56 33.7001L26.61 29.1001V22.9001Z" fill="black"/>
<path d="M30.35 41.2999C28.43 41.2999 26.51 40.6999 24.89 39.6999C24.59 39.4999 24.38 39.1999 24.28 38.7999C24.28 38.3999 24.38 38.0999 24.58 37.7999L29.44 32.2999C29.64 31.9999 30.05 31.8999 30.35 31.8999C30.65 31.8999 31.06 31.9999 31.26 32.2999L36.52 37.4999C36.82 37.7999 36.92 38.0999 36.92 38.4999C36.92 38.8999 36.72 39.1999 36.41 39.3999C34.69 40.5999 32.57 41.2999 30.34 41.2999H30.35ZM27.52 38.1999C28.43 38.5999 29.34 38.6999 30.35 38.6999C31.46 38.6999 32.58 38.4999 33.59 37.9999L30.45 34.8999L27.52 38.1999Z" fill="black"/>
<path d="M38.74 36.5001C38.44 36.5001 38.13 36.4001 37.83 36.1001L31.96 30.3001C31.76 30.1001 31.56 29.7001 31.56 29.4001V21.3001C31.56 20.9001 31.76 20.6001 31.96 20.4001C32.26 20.2001 32.57 20.1001 32.97 20.1001C35.4 20.4001 37.52 21.6001 39.14 23.4001C40.76 25.2001 41.67 27.6001 41.67 30.0001C41.67 32.2001 40.96 34.3001 39.65 36.0001C39.45 36.3001 39.14 36.5001 38.74 36.5001ZM34.19 29.0001L38.54 33.3001C39.04 32.3001 39.25 31.2001 39.25 30.1001C39.25 26.9001 37.13 24.1001 34.19 23.0001V29.0001Z" fill="black"/>
</g>
<defs>
<clipPath id="clip0_11_189">
<rect width="60.8" height="60" fill="white"/>
</clipPath>
</defs>
</svg>
